SplineFontDB: 3.0
FontName: Gandom
FullName: Gandom
FamilyName: Gandom
Weight: Regular
Copyright: Copyright (c) 2003 by Bitstream, Inc. All Rights Reserved.\nDejaVu changes are in public domain\nCopyright (c) 2015 by Saber Rastikerdar. All Rights Reserved.\nNon-Arabic(Latin) glyphs and data are imported from Noto Serif font under the Apache License, Version 2.0.
Version: 0.6
ItalicAngle: 0
UnderlinePosition: -500
UnderlineWidth: 100
Ascent: 1638
Descent: 410
InvalidEm: 0
LayerCount: 2
Layer: 0 1 "Back" 1
Layer: 1 1 "Fore" 0
XUID: [1021 502 1027637223 7335572]
UniqueID: 4193122
UseUniqueID: 1
FSType: 0
OS2Version: 1
OS2_WeightWidthSlopeOnly: 0
OS2_UseTypoMetrics: 1
CreationTime: 1431850356
ModificationTime: 1548535439
PfmFamily: 17
TTFWeight: 400
TTFWidth: 5
LineGap: 0
VLineGap: 0
Panose: 2 11 6 3 3 8 4 2 2 4
OS2TypoAscent: 2350
OS2TypoAOffset: 0
OS2TypoDescent: -1200
OS2TypoDOffset: 0
OS2TypoLinegap: 0
OS2WinAscent: 2350
OS2WinAOffset: 0
OS2WinDescent: 1200
OS2WinDOffset: 0
HheadAscent: 2350
HheadAOffset: 0
HheadDescent: -1200
HheadDOffset: 0
OS2SubXSize: 1331
OS2SubYSize: 1433
OS2SubXOff: 0
OS2SubYOff: 286
OS2SupXSize: 1331
OS2SupYSize: 1433
OS2SupXOff: 0
OS2SupYOff: 983
OS2StrikeYSize: 102
OS2StrikeYPos: 530
OS2Vendor: 'PfEd'
OS2CodePages: 00000041.20080000
OS2UnicodeRanges: 8000200f.80000000.00000008.00000000
Lookup: 1 9 0 "'fina' Terminal Forms in Arabic lookup 9" { "'fina' Terminal Forms in Arabic lookup 9 subtable"  } ['fina' ('arab' <'KUR ' 'SND ' 'URD ' 'dflt' > ) ]
Lookup: 1 9 0 "'medi' Medial Forms in Arabic lookup 11" { "'medi' Medial Forms in Arabic lookup 11 subtable"  } ['medi' ('arab' <'KUR ' 'SND ' 'URD ' 'dflt' > ) ]
Lookup: 1 9 0 "'init' Initial Forms in Arabic lookup 13" { "'init' Initial Forms in Arabic lookup 13 subtable"  } ['init' ('arab' <'KUR ' 'SND ' 'URD ' 'dflt' > ) ]
Lookup: 4 1 1 "'rlig' Required Ligatures in Arabic lookup 14" { "'rlig' Required Ligatures in Arabic lookup 14 subtable"  } ['rlig' ('arab' <'KUR ' 'dflt' > ) ]

StartChar: afii57388
Encoding: 1548 1548 2
Width: 748
VWidth: 3387
GlyphClass: 2
Flags: W
LayerCount: 2
Fore
SplineSet
347.104492188 291.157226562 m 1,0,-1
 377.288085938 286.469726562 l 2,1,2
 429.049804688 277.705078125 429.049804688 277.705078125 457.995117188 250.865234375 c 128,-1,3
 486.94140625 224.024414062 486.94140625 224.024414062 494.057617188 178.534179688 c 0,4,5
 508.380859375 86.9619140625 508.380859375 86.9619140625 461.092773438 40.724609375 c 0,6,7
 437.278320312 17.439453125 437.278320312 17.439453125 408.123046875 7.2197265625 c 128,-1,8
 378.96875 -2.9990234375 378.96875 -2.9990234375 344.098632812 -0.251953125 c 0,9,10
 188.869140625 13.3505859375 188.869140625 13.3505859375 205.232421875 205.591796875 c 0,11,12
 226.3984375 458.793945312 226.3984375 458.793945312 495.876953125 620.994140625 c 0,13,14
 527.19140625 639.887695312 527.19140625 639.887695312 535.71875 632.469726562 c 0,15,16
 538.572265625 629.987304688 538.572265625 629.987304688 540.569335938 628.126953125 c 128,-1,17
 542.567382812 626.267578125 542.567382812 626.267578125 543.439453125 625.306640625 c 128,-1,18
 544.345703125 624.307617188 544.345703125 624.307617188 544.630859375 622.954101562 c 128,-1,19
 544.915039062 621.599609375 544.915039062 621.599609375 544.552734375 619.690429688 c 128,-1,20
 544.189453125 617.78125 544.189453125 617.78125 542.64453125 615.27734375 c 128,-1,21
 541.099609375 612.7734375 541.099609375 612.7734375 538.551757812 609.78125 c 128,-1,22
 536.00390625 606.788085938 536.00390625 606.788085938 531.69921875 602.942382812 c 128,-1,23
 527.39453125 599.096679688 527.39453125 599.096679688 521.71875 594.807617188 c 0,24,25
 487.680664062 569.091796875 487.680664062 569.091796875 462.87109375 541.998046875 c 0,26,27
 335.844726562 403.276367188 335.844726562 403.276367188 346.71875 295.004882812 c 2,28,-1
 347.104492188 291.157226562 l 1,0,-1
EndSplineSet
EndChar

StartChar: uni0615
Encoding: 1557 1557 3
Width: 0
VWidth: 3435
GlyphClass: 4
Flags: W
AnchorPoint: "Anchor-10" 591.667 1381.86 mark 0
AnchorPoint: "Anchor-9" 591.667 1381.86 mark 0
AnchorPoint: "Anchor-1" 591.667 2133 basemark 0
AnchorPoint: "Anchor-1" 591.667 1381.86 mark 0
LayerCount: 2
Fore
SplineSet
510.250976562 1601.6171875 m 5,0,-1
 611.549804688 1601.6171875 l 6,1,2
 806.836914062 1601.49804688 806.836914062 1601.49804688 875.836914062 1679.35546875 c 4,3,4
 910.025390625 1717.03710938 910.025390625 1717.03710938 902.912109375 1778.03125 c 4,5,6
 894.470703125 1850.37402344 894.470703125 1850.37402344 811.427734375 1840.58300781 c 4,7,8
 696.549804688 1827.0390625 696.549804688 1827.0390625 510.250976562 1601.6171875 c 5,0,-1
561.75 1501.5546875 m 6,9,-1
 254.150390625 1501.36523438 l 5,10,-1
 201.857421875 1601.6171875 l 5,11,-1
 338.731445312 1601.6171875 l 5,12,-1
 338.731445312 2272.65429688 l 5,13,-1
 440.4765625 2272.65429688 l 5,14,-1
 440.4765625 1651.97558594 l 5,15,16
 688.790039062 2011.36523438 688.790039062 2011.36523438 893.841796875 1948.98144531 c 4,17,18
 978.895507812 1923.10644531 978.895507812 1923.10644531 998.641601562 1824.69433594 c 4,19,20
 1026.86132812 1684.28808594 1026.86132812 1684.28808594 922 1593 c 132,-1,21
 817.138671875 1501.71191406 817.138671875 1501.71191406 561.75 1501.5546875 c 6,9,-1
EndSplineSet
EndChar

StartChar: uni061B
Encoding: 1563 1563 4
Width: 748
VWidth: 3387
GlyphClass: 2
Flags: W
LayerCount: 2
Fore
SplineSet
347.077148438 811.162109375 m 1,0,-1
 377.27734375 806.470703125 l 2,1,2
 428.897460938 797.5 428.897460938 797.5 457.854492188 770.650390625 c 128,-1,3
 486.811523438 743.799804688 486.811523438 743.799804688 494.05859375 698.521484375 c 0,4,5
 501.413085938 652.294921875 501.413085938 652.294921875 493.067382812 617.950195312 c 128,-1,6
 484.72265625 583.606445312 484.72265625 583.606445312 460.932617188 560.56640625 c 0,7,8
 413.143554688 514.166992188 413.143554688 514.166992188 339.811523438 520.111328125 c 0,9,10
 188.416992188 532.571289062 188.416992188 532.571289062 205.232421875 725.5859375 c 0,11,12
 226.765625 979.032226562 226.765625 979.032226562 495.857421875 1140.98144531 c 0,13,14
 527.422851562 1159.83203125 527.422851562 1159.83203125 535.705078125 1152.49707031 c 0,15,16
 537.579101562 1150.85449219 537.579101562 1150.85449219 539.186523438 1149.38964844 c 128,-1,17
 540.793945312 1147.92382812 540.793945312 1147.92382812 541.834960938 1146.921875 c 128,-1,18
 542.875976562 1145.91992188 542.875976562 1145.91992188 543.400390625 1145.34863281 c 0,19,20
 550.74609375 1136.78027344 550.74609375 1136.78027344 521.727539062 1114.81445312 c 0,21,22
 449.271484375 1060.45410156 449.271484375 1060.45410156 394.494140625 974.470703125 c 0,23,24
 339.862304688 888.233398438 339.862304688 888.233398438 346.713867188 815.0390625 c 2,25,-1
 347.077148438 811.162109375 l 1,0,-1
219 153.837890625 m 128,-1,27
 219 208.465820312 219 208.465820312 258.03515625 247.501953125 c 128,-1,28
 297.071289062 286.537109375 297.071289062 286.537109375 351.700195312 286.537109375 c 128,-1,29
 406.33984375 286.537109375 406.33984375 286.537109375 446.375 248.512695312 c 0,30,31
 484.400390625 208.4765625 484.400390625 208.4765625 484.400390625 153.837890625 c 128,-1,32
 484.400390625 99.208984375 484.400390625 99.208984375 445.365234375 60.1728515625 c 128,-1,33
 406.329101562 21.1376953125 406.329101562 21.1376953125 351.700195312 21.1376953125 c 128,-1,34
 297.071289062 21.1376953125 297.071289062 21.1376953125 258.03515625 60.1728515625 c 128,-1,26
 219 99.208984375 219 99.208984375 219 153.837890625 c 128,-1,27
446.375 248.512695312 m 128,-1,36
 446.420898438 248.469726562 446.420898438 248.469726562 446.465820312 248.426757812 c 2,37,-1
 446.2890625 248.603515625 l 2,38,35
 446.33203125 248.55859375 446.33203125 248.55859375 446.375 248.512695312 c 128,-1,36
EndSplineSet
EndChar

StartChar: uni061F
Encoding: 1567 1567 5
Width: 1024
VWidth: 3375
GlyphClass: 2
Flags: W
LayerCount: 2
Fore
SplineSet
540.051757812 516.077148438 m 2,0,1
 518.529296875 516.077148438 518.529296875 516.077148438 518.529296875 538.2421875 c 2,2,-1
 518.529296875 558.844726562 l 2,3,4
 519.01171875 649.090820312 519.01171875 649.090820312 376.418945312 757.998046875 c 2,5,-1
 299.2265625 816.954101562 l 2,6,7
 156.98046875 925.489257812 156.98046875 925.489257812 155.665039062 1095.21875 c 0,8,9
 155.008789062 1178.93066406 155.008789062 1178.93066406 185.708007812 1246.10546875 c 0,10,11
 216.081054688 1312.89648438 216.081054688 1312.89648438 276.958984375 1363.87695312 c 0,12,13
 369.80859375 1441.00195312 369.80859375 1441.00195312 515.96875 1441.18847656 c 0,14,15
 713.426757812 1441.00195312 713.426757812 1441.00195312 811.301757812 1304.15917969 c 0,16,17
 830.178710938 1277.60644531 830.178710938 1277.60644531 843.376953125 1245.75488281 c 128,-1,18
 856.57421875 1213.90332031 856.57421875 1213.90332031 864.110351562 1176.57617188 c 128,-1,19
 871.645507812 1139.24804688 871.645507812 1139.24804688 873.440429688 1096.57910156 c 0,20,21
 873.625 1091.734375 873.625 1091.734375 873.65625 1086.92089844 c 128,-1,22
 873.6875 1082.10644531 873.6875 1082.10644531 873.56640625 1077.32519531 c 128,-1,23
 873.444335938 1072.54394531 873.444335938 1072.54394531 873.169921875 1067.79199219 c 2,24,-1
 873.161132812 1067.55859375 l 2,25,26
 873.100585938 1062.08789062 873.100585938 1062.08789062 872.884765625 1055.7578125 c 128,-1,27
 872.66796875 1049.42773438 872.66796875 1049.42773438 872.412109375 1044.90527344 c 1,28,-1
 783.311523438 1044.39453125 l 1,29,30
 740.112304688 1264.00195312 740.112304688 1264.00195312 527.5546875 1263.82714844 c 0,31,32
 464.288085938 1263.91503906 464.288085938 1263.91503906 418.706054688 1242.87011719 c 128,-1,33
 373.124023438 1221.82519531 373.124023438 1221.82519531 345.985351562 1179.66601562 c 0,34,35
 321.000976562 1141.4921875 321.000976562 1141.4921875 320.96875 1086.1875 c 0,36,37
 320.985351562 1061.70800781 320.985351562 1061.70800781 330.51171875 1035.70117188 c 128,-1,38
 340.0390625 1009.69433594 340.0390625 1009.69433594 358.897460938 982.200195312 c 0,39,40
 395.03515625 928.938476562 395.03515625 928.938476562 470.705078125 867.224609375 c 2,41,-1
 518.78515625 828.013671875 l 2,42,43
 643.461914062 726.25 643.461914062 726.25 643.461914062 564.729492188 c 2,44,-1
 643.461914062 541.66796875 l 2,45,46
 643.076171875 516.077148438 643.076171875 516.077148438 620.461914062 516.077148438 c 2,47,-1
 540.051757812 516.077148438 l 2,0,1
438 153.837890625 m 128,-1,49
 438 208.465820312 438 208.465820312 477.03515625 247.501953125 c 128,-1,50
 516.071289062 286.537109375 516.071289062 286.537109375 570.700195312 286.537109375 c 0,51,52
 598.141601562 286.537109375 598.141601562 286.537109375 621.750976562 277.044921875 c 128,-1,53
 645.307617188 267.573242188 645.307617188 267.573242188 665.375 248.512695312 c 0,54,55
 703.400390625 208.4765625 703.400390625 208.4765625 703.400390625 153.837890625 c 0,56,57
 703.400390625 126.423828125 703.400390625 126.423828125 693.680664062 103.096679688 c 128,-1,58
 683.9609375 79.7685546875 683.9609375 79.7685546875 664.365234375 60.1728515625 c 0,59,60
 625.329101562 21.1376953125 625.329101562 21.1376953125 570.700195312 21.1376953125 c 0,61,62
 543.286132812 21.1376953125 543.286132812 21.1376953125 519.958984375 30.857421875 c 128,-1,63
 496.630859375 40.5771484375 496.630859375 40.5771484375 477.03515625 60.1728515625 c 0,64,48
 438 99.208984375 438 99.208984375 438 153.837890625 c 128,-1,49
665.375 248.512695312 m 128,-1,66
 665.420898438 248.469726562 665.420898438 248.469726562 665.465820312 248.426757812 c 2,67,-1
 665.2890625 248.603515625 l 2,68,65
 665.33203125 248.55859375 665.33203125 248.55859375 665.375 248.512695312 c 128,-1,66
EndSplineSet
EndChar

StartChar: uni0621
Encoding: 1569 1569 6
Width: 771
VWidth: 2472
GlyphClass: 2
Flags: W
AnchorPoint: "Anchor-7" 384.754 -252.191 basechar 0
AnchorPoint: "Anchor-10" 330.376 1111.84 basechar 0
LayerCount: 2
Fore
SplineSet
678.241210938 324 m 2,1,-1
 643 200 l 1,2,3
 422 133 422 133 81.578125 -24.2216796875 c 1,4,5
 82 121 82 121 163 164 c 0,6,7
 217 193 217 193 293 219 c 1,8,9
 87 293 87 293 85.6953125 482.706054688 c 0,10,11
 85 588 85 588 151 673 c 0,12,13
 236 782 236 782 383 783 c 4,14,15
 567 783 567 783 592.747070312 634 c 0,16,17
 598 603 598 603 575 609.451171875 c 0,18,19
 408 654 408 654 327 613 c 0,20,21
 235 567 235 567 236.712890625 473.090820312 c 0,22,23
 239 354 239 354 449 291 c 0,24,25
 479 282 479 282 633 337.255038652 c 0,26,27
 688 357 688 357 678.241210938 324 c 2,1,-1
EndSplineSet
EndChar

StartChar: uni0627
Encoding: 1575 1575 12
Width: 448
VWidth: 2448
GlyphClass: 2
Flags: W
AnchorPoint: "Anchor-10" 259.115 1650.43 basechar 0
AnchorPoint: "Anchor-7" 225.129 -304.716 basechar 0
LayerCount: 2
Fore
SplineSet
288.053710938 1494.63964844 m 2,0,-1
 306.9140625 1504.40332031 l 1,1,-1
 306.9140625 206.280273438 l 2,2,3
 307 68 307 68 201.060546875 -0.630859375 c 1,4,-1
 147.283203125 1112.74121094 l 2,5,6
 133 1414 133 1414 288.053710938 1494.63964844 c 2,0,-1
EndSplineSet
Substitution2: "'fina' Terminal Forms in Arabic lookup 9 subtable" uniFE8E
EndChar

StartChar: uni062D
Encoding: 1581 1581 18
Width: 1216
VWidth: 2474
GlyphClass: 2
Flags: W
AnchorPoint: "Anchor-7" 611.843 -857.215 basechar 0
AnchorPoint: "Anchor-10" 581.688 1232.94 basechar 0
LayerCount: 2
Fore
SplineSet
101.49609375 -166.178710938 m 0,0,1
 101 389 101 389 808.16015625 560.397460938 c 1,2,3
 682 602 682 602 631.959960938 620.796875 c 0,4,5
 476 681 476 681 361.9765625 661.044921875 c 8,6,7
 241 640 241 640 160.959960938 543.133789062 c 0,8,9
 125 500 125 500 108.959960938 506.796875 c 0,10,11
 88 516 88 516 103.7421875 566.2578125 c 0,12,13
 187 830 187 830 401.919921875 842.396484375 c 24,14,15
 538 850 538 850 820.959960938 719.357421875 c 0,16,17
 923 672 923 672 1008.24023438 654.59765625 c 0,18,19
 1075 641 1075 641 1123.16992188 646.0625 c 1,20,-1
 1076 446 l 1,21,22
 202 301 202 301 206.396484375 -159.360351562 c 0,23,24
 209 -461 209 -461 707.346679688 -461.000976562 c 0,25,26
 917 -461 917 -461 1065 -425.177734375 c 0,27,28
 1103 -416 1103 -416 1081 -457.633789062 c 0,29,30
 980 -647 980 -647 670.318359375 -646.75 c 0,31,32
 101 -647 101 -647 101.49609375 -166.178710938 c 0,0,1
EndSplineSet
Substitution2: "'fina' Terminal Forms in Arabic lookup 9 subtable" uniFEA2
Substitution2: "'medi' Medial Forms in Arabic lookup 11 subtable" uniFEA4
Substitution2: "'init' Initial Forms in Arabic lookup 13 subtable" uniFEA3
EndChar

StartChar: uni062F
Encoding: 1583 1583 20
Width: 1024
VWidth: 2467
GlyphClass: 2
Flags: W
AnchorPoint: "Anchor-10" 583.422 1199.25 basechar 0
AnchorPoint: "Anchor-7" 475.658 -257.85 basechar 0
LayerCount: 2
Fore
SplineSet
878.775390625 155.02734375 m 1,0,1
 725.261654217 -31.3683252171 725.261654217 -31.3683252171 412 -31.3909773073 c 0,2,3
 376.861509158 -31.3935181873 376.861509158 -31.3935181873 342.06640625 -29.29296875 c 0,4,5
 98.525390625 -14.58984375 98.525390625 -14.58984375 98.525390625 193.130859375 c 2,6,-1
 98.525390625 223.052734375 l 1,7,8
 228.668945312 167.552734375 228.668945312 167.552734375 394.154296875 164.765625 c 0,9,10
 585.997070312 160.865234375 585.997070312 160.865234375 723.564453125 227.572265625 c 0,11,12
 797.321289062 263.698242188 797.321289062 263.698242188 787.672851562 314.79296875 c 0,13,14
 784.112304688 333.556640625 784.112304688 333.556640625 778.559570312 342.313476562 c 2,15,-1
 622.467773438 588.495117188 l 2,16,17
 457.204101562 849.143554688 457.204101562 849.143554688 606.44140625 928.384765625 c 2,18,-1
 628.048828125 939.857421875 l 1,19,-1
 895.362304688 414.012695312 l 1,20,21
 933.653320312 335.145507812 933.653320312 335.145507812 925.752929688 268.381835938 c 128,-1,22
 917.852539062 201.618164062 917.852539062 201.618164062 878.775390625 155.02734375 c 1,0,1
EndSplineSet
Substitution2: "'fina' Terminal Forms in Arabic lookup 9 subtable" uniFEAA
EndChar

StartChar: uni0631
Encoding: 1585 1585 22
Width: 893
VWidth: 2499
GlyphClass: 2
Flags: W
AnchorPoint: "Anchor-7" 441.147 -657.422 basechar 0
AnchorPoint: "Anchor-10" 651.056 1007.93 basechar 0
LayerCount: 2
Fore
SplineSet
72 -418.690429688 m 0,0,1
 14.793298194 -404.749522013 14.793298194 -404.749522013 7.65280541474 -371 c 0,2,3
 2 -345 2 -345 88 -330.262695312 c 0,4,5
 698 -230 698 -230 670.178710938 131.9609375 c 0,6,7
 666 187 666 187 618.494140625 304.325195312 c 0,8,9
 534.001030106 514.997431568 534.001030106 514.997431568 669.220703125 618.001953125 c 2,10,-1
 709.796875 648.911132812 l 1,11,12
 796 413 796 413 798.153884713 215 c 0,13,14
 804 -206 804 -206 566 -381 c 0,15,16
 460.142857143 -459 460.142857143 -459 374 -459 c 0,17,18
 242 -459 242 -459 72 -418.690429688 c 0,0,1
EndSplineSet
PairPos2: "'kern' Horizontal Kerning lookup 15-1" uniFB7C dx=-150 dy=0 dh=-150 dv=0 dx=0 dy=0 dh=0 dv=0
PairPos2: "'kern' Horizontal Kerning lookup 15-1" uniFB90 dx=-350 dy=0 dh=-350 dv=0 dx=0 dy=0 dh=0 dv=0
PairPos2: "'kern' Horizontal Kerning lookup 15-1" uniFB8E dx=-350 dy=0 dh=-350 dv=0 dx=0 dy=0 dh=0 dv=0
PairPos2: "'kern' Horizontal Kerning lookup 15-1" uni06A9 dx=-350 dy=0 dh=-350 dv=0 dx=0 dy=0 dh=0 dv=0
PairPos2: "'kern' Horizontal Kerning lookup 15-1" uni064A dx=-100 dy=0 dh=-100 dv=0 dx=0 dy=0 dh=0 dv=0
PairPos2: "'kern' Horizontal Kerning lookup 15-1" afii57414 dx=-100 dy=0 dh=-100 dv=0 dx=0 dy=0 dh=0 dv=0
PairPos2: "'kern' Horizontal Kerning lookup 15-1" uni0649 dx=-100 dy=0 dh=-100 dv=0 dx=0 dy=0 dh=0 dv=0
PairPos2: "'kern' Horizontal Kerning lookup 15-1" uni0648 dx=-80 dy=0 dh=-80 dv=0 dx=0 dy=0 dh=0 dv=0
PairPos2: "'kern' Horizontal Kerning lookup 15-1" afii57412 dx=-80 dy=0 dh=-80 dv=0 dx=0 dy=0 dh=0 dv=0
PairPos2: "'kern' Horizontal Kerning lookup 15-1" uniFEEB dx=-250 dy=0 dh=-250 dv=0 dx=0 dy=0 dh=0 dv=0
PairPos2: "'kern' Horizontal Kerning lookup 15-1" uni0647 dx=-250 dy=0 dh=-250 dv=0 dx=0 dy=0 dh=0 dv=0
PairPos2: "'kern' Horizontal Kerning lookup 15-1" uniFEE7 dx=-250 dy=0 dh=-250 dv=0 dx=0 dy=0 dh=0 dv=0
PairPos2: "'kern' Horizontal Kerning lookup 15-1" uni0646 dx=-100 dy=0 dh=-100 dv=0 dx=0 dy=0 dh=0 dv=0
PairPos2: "'kern' Horizontal Kerning lookup 15-1" uniFEE3 dx=-250 dy=0 dh=-250 dv=0 dx=0 dy=0 dh=0 dv=0
PairPos2: "'kern' Horizontal Kerning lookup 15-1" uni0645 dx=-250 dy=0 dh=-250 dv=0 dx=0 dy=0 dh=0 dv=0
PairPos2: "'kern' Horizontal Kerning lookup 15-1" uniFEFB dx=-250 dy=0 dh=-250 dv=0 dx=0 dy=0 dh=0 dv=0
PairPos2: "'kern' Horizontal Kerning lookup 15-1" uniFEDF dx=-250 dy=0 dh=-250 dv=0 dx=0 dy=0 dh=0 dv=0
PairPos2: "'kern' Horizontal Kerning lookup 15-1" uni0644 dx=-80 dy=0 dh=-80 dv=0 dx=0 dy=0 dh=0 dv=0
PairPos2: "'kern' Horizontal Kerning lookup 15-1" uniFEDB dx=-350 dy=0 dh=-350 dv=0 dx=0 dy=0 dh=0 dv=0
PairPos2: "'kern' Horizontal Kerning lookup 15-1" uni0643 dx=-250 dy=0 dh=-250 dv=0 dx=0 dy=0 dh=0 dv=0
PairPos2: "'kern' Horizontal Kerning lookup 15-1" uniFED7 dx=-250 dy=0 dh=-250 dv=0 dx=0 dy=0 dh=0 dv=0
PairPos2: "'kern' Horizontal Kerning lookup 15-1" uni0642 dx=-80 dy=0 dh=-80 dv=0 dx=0 dy=0 dh=0 dv=0
PairPos2: "'kern' Horizontal Kerning lookup 15-1" uniFED3 dx=-250 dy=0 dh=-250 dv=0 dx=0 dy=0 dh=0 dv=0
PairPos2: "'kern' Horizontal Kerning lookup 15-1" uni0641 dx=-250 dy=0 dh=-250 dv=0 dx=0 dy=0 dh=0 dv=0
PairPos2: "'kern' Horizontal Kerning lookup 15-1" uniFECF dx=-250 dy=0 dh=-250 dv=0 dx=0 dy=0 dh=0 dv=0
PairPos2: "'kern' Horizontal Kerning lookup 15-1" uniFECB dx=-250 dy=0 dh=-250 dv=0 dx=0 dy=0 dh=0 dv=0
PairPos2: "'kern' Horizontal Kerning lookup 15-1" uniFEC7 dx=-250 dy=0 dh=-250 dv=0 dx=0 dy=0 dh=0 dv=0
PairPos2: "'kern' Horizontal Kerning lookup 15-1" uni0638 dx=-250 dy=0 dh=-250 dv=0 dx=0 dy=0 dh=0 dv=0
PairPos2: "'kern' Horizontal Kerning lookup 15-1" uniFEC3 dx=-250 dy=0 dh=-250 dv=0 dx=0 dy=0 dh=0 dv=0
PairPos2: "'kern' Horizontal Kerning lookup 15-1" uni0637 dx=-250 dy=0 dh=-250 dv=0 dx=0 dy=0 dh=0 dv=0
PairPos2: "'kern' Horizontal Kerning lookup 15-1" uniFEBF dx=-250 dy=0 dh=-250 dv=0 dx=0 dy=0 dh=0 dv=0
PairPos2: "'kern' Horizontal Kerning lookup 15-1" uni0636 dx=-250 dy=0 dh=-250 dv=0 dx=0 dy=0 dh=0 dv=0
PairPos2: "'kern' Horizontal Kerning lookup 15-1" uniFEBB dx=-250 dy=0 dh=-250 dv=0 dx=0 dy=0 dh=0 dv=0
PairPos2: "'kern' Horizontal Kerning lookup 15-1" uni0635 dx=-250 dy=0 dh=-250 dv=0 dx=0 dy=0 dh=0 dv=0
PairPos2: "'kern' Horizontal Kerning lookup 15-1" uniFEB7 dx=-250 dy=0 dh=-250 dv=0 dx=0 dy=0 dh=0 dv=0
PairPos2: "'kern' Horizontal Kerning lookup 15-1" uni0634 dx=-250 dy=0 dh=-250 dv=0 dx=0 dy=0 dh=0 dv=0
PairPos2: "'kern' Horizontal Kerning lookup 15-1" uniFEB3 dx=-250 dy=0 dh=-250 dv=0 dx=0 dy=0 dh=0 dv=0
PairPos2: "'kern' Horizontal Kerning lookup 15-1" uni0633 dx=-250 dy=0 dh=-250 dv=0 dx=0 dy=0 dh=0 dv=0
PairPos2: "'kern' Horizontal Kerning lookup 15-1" uni0632 dx=-80 dy=0 dh=-80 dv=0 dx=0 dy=0 dh=0 dv=0
PairPos2: "'kern' Horizontal Kerning lookup 15-1" uni0631 dx=-80 dy=0 dh=-80 dv=0 dx=0 dy=0 dh=0 dv=0
PairPos2: "'kern' Horizontal Kerning lookup 15-1" uni0630 dx=-250 dy=0 dh=-250 dv=0 dx=0 dy=0 dh=0 dv=0
PairPos2: "'kern' Horizontal Kerning lookup 15-1" uni062F dx=-250 dy=0 dh=-250 dv=0 dx=0 dy=0 dh=0 dv=0
PairPos2: "'kern' Horizontal Kerning lookup 15-1" uniFEA7 dx=-250 dy=0 dh=-250 dv=0 dx=0 dy=0 dh=0 dv=0
PairPos2: "'kern' Horizontal Kerning lookup 15-1" uniFEA3 dx=-250 dy=0 dh=-250 dv=0 dx=0 dy=0 dh=0 dv=0
PairPos2: "'kern' Horizontal Kerning lookup 15-1" uniFE9F dx=-250 dy=0 dh=-250 dv=0 dx=0 dy=0 dh=0 dv=0
PairPos2: "'kern' Horizontal Kerning lookup 15-1" uniFE9B dx=-250 dy=0 dh=-250 dv=0 dx=0 dy=0 dh=0 dv=0
PairPos2: "'kern' Horizontal Kerning lookup 15-1" uni062B dx=-250 dy=0 dh=-250 dv=0 dx=0 dy=0 dh=0 dv=0
PairPos2: "'kern' Horizontal Kerning lookup 15-1" uniFE97 dx=-250 dy=0 dh=-250 dv=0 dx=0 dy=0 dh=0 dv=0
PairPos2: "'kern' Horizontal Kerning lookup 15-1" uni062A dx=-250 dy=0 dh=-250 dv=0 dx=0 dy=0 dh=0 dv=0
PairPos2: "'kern' Horizontal Kerning lookup 15-1" uni0629 dx=-250 dy=0 dh=-250 dv=0 dx=0 dy=0 dh=0 dv=0
PairPos2: "'kern' Horizontal Kerning lookup 15-1" uniFE91 dx=-50 dy=0 dh=-50 dv=0 dx=0 dy=0 dh=0 dv=0
PairPos2: "'kern' Horizontal Kerning lookup 15-1" uni0628 dx=-250 dy=0 dh=-250 dv=0 dx=0 dy=0 dh=0 dv=0
PairPos2: "'kern' Horizontal Kerning lookup 15-1" uni0627 dx=-250 dy=0 dh=-250 dv=0 dx=0 dy=0 dh=0 dv=0
PairPos2: "'kern' Horizontal Kerning lookup 15-1" uni0623 dx=-250 dy=0 dh=-250 dv=0 dx=0 dy=0 dh=0 dv=0
PairPos2: "'kern' Horizontal Kerning lookup 15-1" uni0622 dx=-250 dy=0 dh=-250 dv=0 dx=0 dy=0 dh=0 dv=0
PairPos2: "'kern' Horizontal Kerning lookup 15-1" uni0621 dx=-250 dy=0 dh=-250 dv=0 dx=0 dy=0 dh=0 dv=0
PairPos2: "'kern' Horizontal Kerning lookup 15-1" uniFB94 dx=-350 dy=0 dh=-350 dv=0 dx=0 dy=0 dh=0 dv=0
PairPos2: "'kern' Horizontal Kerning lookup 15-1" uniFB92 dx=-350 dy=0 dh=-350 dv=0 dx=0 dy=0 dh=0 dv=0
PairPos2: "'kern' Horizontal Kerning lookup 15-1" afii57509 dx=-350 dy=0 dh=-350 dv=0 dx=0 dy=0 dh=0 dv=0
PairPos2: "'kern' Horizontal Kerning lookup 15-1" afii57508 dx=-80 dy=0 dh=-80 dv=0 dx=0 dy=0 dh=0 dv=0
PairPos2: "'kern' Horizontal Kerning lookup 15-1" afii57506 dx=-250 dy=0 dh=-250 dv=0 dx=0 dy=0 dh=0 dv=0
PairPos2: "'kern' Horizontal Kerning lookup 15-1" afii57440 dx=-250 dy=0 dh=-250 dv=0 dx=0 dy=0 dh=0 dv=0
PairPos2: "'kern' Horizontal Kerning lookup 15-1" uniFE8B dx=-250 dy=0 dh=-250 dv=0 dx=0 dy=0 dh=0 dv=0
Substitution2: "'fina' Terminal Forms in Arabic lookup 9 subtable" uniFEAE
EndChar

StartChar: uni0633
Encoding: 1587 1587 24
Width: 2313
VWidth: 2501
GlyphClass: 2
Flags: W
AnchorPoint: "Anchor-7" 664.176 -751.198 basechar 0
AnchorPoint: "Anchor-10" 1675.99 1018.06 basechar 0
LayerCount: 2
Fore
SplineSet
1904.82617188 -0.4775390625 m 24,0,1
 1838 -1 1838 -1 1801.15722656 16.7265625 c 0,2,3
 1698 67 1698 67 1657.13964844 183.109375 c 1,4,5
 1593 -1 1593 -1 1431 -1.0439453125 c 0,6,7
 1314 -1 1314 -1 1269.77050781 68.0400390625 c 1,8,9
 1272 -40 1272 -40 1252.25683594 -119.879882812 c 0,10,11
 1148 -542 1148 -542 663.930664062 -545.791015625 c 0,12,13
 341 -548 341 -548 187.1328125 -346.896484375 c 0,14,15
 56 -175 56 -175 114.48046875 114.48046875 c 0,16,17
 135 217 135 217 190.567382812 336.995117188 c 0,18,19
 219 399 219 399 255.419921875 388.259765625 c 0,20,21
 292 378 292 378 265.825195312 307.799804688 c 0,22,23
 180 72 180 72 235.631835938 -109.409179688 c 0,24,25
 313 -364 313 -364 665.359375 -362.66796875 c 0,26,27
 1124 -361 1124 -361 1155.05664062 -15.0859375 c 0,28,29
 1164 84 1164 84 1092.65332031 257.984375 c 0,30,31
 989.894401891 512.261302504 989.894401891 512.261302504 1145.50878906 552.739257812 c 2,32,-1
 1180.71679688 561.897460938 l 1,33,34
 1214 392 1214 392 1248.03222656 291.599609375 c 24,35,36
 1286 180 1286 180 1437 183.254882812 c 0,37,38
 1561.79120896 185.995414753 1561.79120896 185.995414753 1595.36328125 328.373046875 c 2,39,-1
 1610.50488281 392.587890625 l 2,40,41
 1642.05740469 526.243164062 1642.05740469 526.243164062 1730.70898438 526.243164062 c 2,42,-1
 1743.84179688 526.243164062 l 1,43,-1
 1737.36132812 451.068359375 l 2,44,45
 1714 184 1714 184 1922.83007812 183.909179688 c 0,46,47
 2046.86781551 184.001388522 2046.86781551 184.001388522 2076.81738281 279.96484375 c 0,48,49
 2094 334 2094 334 2074.29980469 387.419921875 c 0,50,51
 2044 471 2044 471 2022.93457031 544.467773438 c 0,52,53
 1980.05868103 698.788792339 1980.05868103 698.788792339 2129.03417969 769.9921875 c 2,54,-1
 2145.62304688 777.920898438 l 1,55,56
 2202.62544189 608.095184281 2202.62544189 608.095184281 2214.41992188 415.799804688 c 0,57,58
 2226 227 2226 227 2128.55957031 113.940429688 c 128,-1,59
 2031 1 2031 1 1904.82617188 -0.4775390625 c 24,0,1
EndSplineSet
Substitution2: "'fina' Terminal Forms in Arabic lookup 9 subtable" uniFEB2
Substitution2: "'medi' Medial Forms in Arabic lookup 11 subtable" uniFEB4
Substitution2: "'init' Initial Forms in Arabic lookup 13 subtable" uniFEB3
EndChar

StartChar: uni0635
Encoding: 1589 1589 26
Width: 2498
VWidth: 2474
GlyphClass: 2
Flags: W
AnchorPoint: "Anchor-10" 1957.99 1060.06 basechar 0
AnchorPoint: "Anchor-7" 664.176 -751.198 basechar 0
LayerCount: 2
Fore
SplineSet
1732.26464844 183.426757812 m 2,0,1
 2011.09454773 183.426757812 2011.09454773 183.426757812 2174.76074219 247.239257812 c 0,2,3
 2291 292 2291 292 2287.78027344 344.5 c 0,4,5
 2283 413 2283 413 2148.83984375 506.400390625 c 0,6,7
 2072 560 2072 560 2004.12011719 560.087890625 c 0,8,9
 1826.04677333 559.000285674 1826.04677333 559.000285674 1643.28027344 329 c 2,10,-1
 1527.60253906 183.426757812 l 1,11,-1
 1732.26464844 183.426757812 l 2,0,1
1995.48046875 748.165039062 m 0,12,13
 2139 747 2139 747 2268.72070312 626.6796875 c 0,14,15
 2388 515 2388 515 2392.03613281 385.240234375 c 0,16,17
 2396.95261928 186.911317637 2396.95261928 186.911317637 2195.05078125 90.3388671875 c 0,18,19
 2003.62344968 -1.70024262758 2003.62344968 -1.70024262758 1728.41503906 -0.767578125 c 2,20,-1
 1501.91992188 0 l 2,21,22
 1317 1 1317 1 1269.77050781 68.0400390625 c 1,23,24
 1272 -40 1272 -40 1252.25683594 -119.879882812 c 0,25,26
 1148 -541 1148 -541 669.930664062 -545.791015625 c 0,27,28
 341 -549 341 -549 187.1328125 -346.896484375 c 0,29,30
 56 -176 56 -176 114.48046875 114.48046875 c 0,31,32
 135 217 135 217 190.567382812 336.995117188 c 0,33,34
 219 399 219 399 255.419921875 388.259765625 c 0,35,36
 292 378 292 378 265.825195312 307.799804688 c 0,37,38
 179 75 179 75 235.631835938 -109.409179688 c 0,39,40
 313 -364 313 -364 665.359375 -362.66796875 c 0,41,42
 1124 -361 1124 -361 1155.05664062 -15.0859375 c 0,43,44
 1164 84 1164 84 1092.65332031 257.984375 c 0,45,46
 988.989429722 512.025903809 988.989429722 512.025903809 1145.50878906 552.739257812 c 2,47,-1
 1180.71679688 561.897460938 l 1,48,49
 1207 426 1207 426 1250.19238281 291.599609375 c 0,50,51
 1283 187 1283 187 1401.35644531 185.829101562 c 1,52,-1
 1506.24023438 349.200195312 l 2,53,54
 1764 750 1764 750 1995.48046875 748.165039062 c 0,12,13
EndSplineSet
Substitution2: "'fina' Terminal Forms in Arabic lookup 9 subtable" uniFEBA
Substitution2: "'medi' Medial Forms in Arabic lookup 11 subtable" uniFEBC
Substitution2: "'init' Initial Forms in Arabic lookup 13 subtable" uniFEBB
EndChar

StartChar: uni0637
Encoding: 1591 1591 28
Width: 1431
VWidth: 2474
GlyphClass: 2
Flags: W
AnchorPoint: "Anchor-10" 373.774 1637.94 basechar 0
AnchorPoint: "Anchor-7" 640.88 -271.015 basechar 0
LayerCount: 2
Fore
SplineSet
450.322265625 183.426757812 m 1,0,-1
 654.984375 183.426757812 l 2,1,2
 882 183 882 183 1097.48046875 267.239257812 c 0,3,4
 1213 312 1213 312 1210.5 364.5 c 0,5,6
 1208 411 1208 411 1071.55957031 506.400390625 c 0,7,8
 995 560 995 560 926.83984375 560.087890625 c 0,9,10
 748.765131189 558.998563249 748.765131189 558.998563249 566 329 c 2,11,-1
 450.322265625 183.426757812 l 1,0,-1
319 188 m 1,12,-1
 258.788085938 1137.68164062 l 2,13,14
 242.016341374 1400.74368825 242.016341374 1400.74368825 410.482421875 1492.90625 c 2,15,-1
 432.0390625 1504.69921875 l 1,16,-1
 431.959960938 352.200195312 l 1,17,18
 697 750 697 750 918.200195312 748.165039062 c 0,19,20
 1062 747 1062 747 1191.44042969 626.6796875 c 0,21,22
 1311 515 1311 515 1314.75585938 385.240234375 c 0,23,24
 1320 192 1320 192 1117.77050781 90.3388671875 c 0,25,26
 935.795628792 -2.10381995465 935.795628792 -2.10381995465 611.134765625 -0.767578125 c 2,27,-1
 424.639648438 0 l 2,28,-1
 375.192382812 0.1533203125 l 2,29,30
 91 1 91 1 91.15234375 188.274414062 c 1,31,-1
 319 188 l 1,12,-1
EndSplineSet
Substitution2: "'fina' Terminal Forms in Arabic lookup 9 subtable" uniFEC2
Substitution2: "'medi' Medial Forms in Arabic lookup 11 subtable" uniFEC4
Substitution2: "'init' Initial Forms in Arabic lookup 13 subtable" uniFEC3
EndChar

StartChar: uni0639
Encoding: 1593 1593 30
Width: 1197
VWidth: 2474
GlyphClass: 2
Flags: W
AnchorPoint: "Anchor-10" 618.687 1305.58 basechar 0
AnchorPoint: "Anchor-7" 648.989 -808.611 basechar 0
LayerCount: 2
Fore
SplineSet
419.790039062 360.232421875 m 1,0,1
 276 478 276 478 269.959960938 623.174804688 c 0,2,3
 265 766 265 766 366.779296875 892.274414062 c 0,4,5
 475 1026 475 1026 649.640625 1026.66894531 c 0,6,7
 808 1027 808 1027 898.139648438 907.396484375 c 0,8,9
 921 877 921 877 933.125976562 840.5546875 c 0,10,11
 942 815 942 815 939.93359375 801.396484375 c 0,12,13
 936 773 936 773 903.099609375 795.693359375 c 0,14,15
 826 848 826 848 694.01953125 848.354492188 c 0,16,17
 569 848 569 848 483.69921875 773.014648438 c 0,18,19
 407 705 407 705 414.290039062 615.909179688 c 0,20,21
 422 530 422 530 502.790039062 465.946289062 c 0,22,23
 547 431 547 431 604.790039062 443.899414062 c 0,24,25
 716 468 716 468 720.790039062 469.420898438 c 24,26,27
 822 490 822 490 988.790039062 500.965820312 c 0,28,29
 1062.62911147 505.974840042 1062.62911147 505.974840042 1048.79003906 462.396484375 c 2,30,-1
 1001.79003906 314.396484375 l 1,31,32
 741 302 741 302 555 228 c 0,33,34
 204 89 204 89 206.396484375 -159.360351562 c 0,35,36
 209 -461 209 -461 707.346679688 -461.000976562 c 0,37,38
 917 -461 917 -461 1065 -425.177734375 c 0,39,40
 1103 -416 1103 -416 1081 -457.633789062 c 0,41,42
 980 -647 980 -647 670.318359375 -646.75 c 0,43,44
 101 -647 101 -647 101.49609375 -166.178710938 c 0,45,46
 102 186 102 186 419.790039062 360.232421875 c 1,0,1
EndSplineSet
Substitution2: "'fina' Terminal Forms in Arabic lookup 9 subtable" uniFECA
Substitution2: "'medi' Medial Forms in Arabic lookup 11 subtable" uniFECC
Substitution2: "'init' Initial Forms in Arabic lookup 13 subtable" uniFECB
EndChar

StartChar: afii57440
Encoding: 1600 1600 32
Width: 253
VWidth: 2490
GlyphClass: 2
Flags: W
AnchorPoint: "Anchor-10" 130.68 1001.57 basechar 0
AnchorPoint: "Anchor-7" 126.68 -138.845 basechar 0
LayerCount: 2
Fore
SplineSet
-4.947265625 0 m 2,0,1
 -80 0 -80 0 -80 92 c 2,2,-1
 -80 98 l 2,3,4
 -80 183 -80 183 -4.947265625 183 c 2,5,-1
 258 183 l 2,6,7
 333.052734375 183 333.052734375 183 333.052734375 98 c 2,8,-1
 333.052734375 92 l 2,9,10
 333 0 333 0 258 0 c 2,11,-1
 -4.947265625 0 l 2,0,1
EndSplineSet
EndChar

StartChar: uni0643
Encoding: 1603 1603 35
Width: 1789
VWidth: 2448
GlyphClass: 2
Flags: W
AnchorPoint: "Anchor-10" 854.321 1447.31 basechar 0
AnchorPoint: "Anchor-7" 813.141 -273.584 basechar 0
LayerCount: 2
Fore
SplineSet
1101.28222656 1284.37402344 m 1,0,-1
 1101.28222656 1175.19238281 l 1,1,-1
 1078.25878906 1173.36621094 l 2,2,3
 909.323242188 1159.96777344 909.323242188 1159.96777344 870.751953125 1094.53222656 c 0,4,5
 853.471679688 1065.21777344 853.471679688 1065.21777344 882.643554688 1025.62988281 c 0,6,7
 895.979492188 1007.28613281 895.979492188 1007.28613281 952.327148438 999.318359375 c 0,8,9
 1040.99414062 986.780273438 1040.99414062 986.780273438 1076.50878906 954.374023438 c 128,-1,10
 1112.02441406 921.966796875 1112.02441406 921.966796875 1111.8984375 865.338867188 c 0,11,12
 1112.01367188 739.249023438 1112.01367188 739.249023438 996.887695312 675.719726562 c 0,13,14
 907.370117188 625.936523438 907.370117188 625.936523438 797.87890625 627 c 0,15,16
 726.913085938 627 726.913085938 627 665.01953125 637.404296875 c 2,17,-1
 644.1640625 640.91015625 l 1,18,-1
 644.1640625 757.391601562 l 1,19,-1
 672.350585938 753.76953125 l 2,20,21
 905.931640625 723.755859375 905.931640625 723.755859375 980.518554688 800.833984375 c 0,22,23
 1022.73730469 844.462890625 1022.73730469 844.462890625 980.513671875 879.369140625 c 0,24,25
 960.274414062 896.102539062 960.274414062 896.102539062 897.591796875 905.303710938 c 128,-1,26
 834.909179688 914.505859375 834.909179688 914.505859375 793.362304688 957.231445312 c 128,-1,27
 751.815429688 999.95703125 751.815429688 999.95703125 753.181640625 1076.03417969 c 0,28,29
 755.3203125 1177.47460938 755.3203125 1177.47460938 850.803710938 1226.05078125 c 128,-1,30
 946.286132812 1274.62695312 946.286132812 1274.62695312 1074.71289062 1282.70410156 c 2,31,-1
 1101.28222656 1284.37402344 l 1,0,-1
801 150.458984375 m 0,32,33
 203 149 203 149 194.919921875 490.3203125 c 0,34,35
 193 578 193 578 207.145507812 643.064453125 c 0,36,37
 223 714 223 714 192.759765625 717.66015625 c 0,38,39
 163 721 163 721 140.919921875 671.759765625 c 0,40,41
 103 587 103 587 102.040039062 455.759765625 c 0,42,43
 100 185 100 185 281.400390625 68.4404296875 c 0,44,45
 457 -43 457 -43 789 -43.47265625 c 24,46,47
 1250 -44 1250 -44 1484.55761719 102.173828125 c 0,48,49
 1648 204 1648 204 1648.37792969 464.50390625 c 0,50,-1
 1648.37792969 1508.77734375 l 1,51,-1
 1631.0546875 1500.26660156 l 2,52,53
 1465.9901569 1419.17198606 1465.9901569 1419.17198606 1480.24316406 1170.1328125 c 2,54,-1
 1523 424 l 2,55,56
 1532 265 1532 265 1333.80078125 208.71875 c 0,57,58
 1133 152 1133 152 801 150.458984375 c 0,32,33
EndSplineSet
Substitution2: "'fina' Terminal Forms in Arabic lookup 9 subtable" uniFEDA
Substitution2: "'medi' Medial Forms in Arabic lookup 11 subtable" uniFEDC
Substitution2: "'init' Initial Forms in Arabic lookup 13 subtable" uniFEDB
EndChar

StartChar: uni0644
Encoding: 1604 1604 36
Width: 1348
VWidth: 2461
GlyphClass: 2
Flags: W
AnchorPoint: "Anchor-10" 650.118 1092.71 basechar 0
AnchorPoint: "Anchor-7" 624.402 -751.555 basechar 0
LayerCount: 2
Fore
SplineSet
1204.25195312 13.7373046875 m 0,0,1
 1190 -522 1190 -522 636.391601562 -522.719726562 c 0,2,3
 309 -523 309 -523 167.788085938 -336.904296875 c 0,4,5
 93 -239 93 -239 90.3759765625 -87 c 0,6,7
 89 4 89 4 113.360351562 114.48046875 c 0,8,9
 140 235 140 235 173.83984375 315.360351562 c 0,10,11
 215 416 215 416 254.83984375 408.100585938 c 0,12,13
 287 402 287 402 263.896484375 336.959960938 c 0,14,15
 161 36 161 36 247.143554688 -133.298828125 c 0,16,17
 350 -337 350 -337 641.08984375 -337.14453125 c 0,18,19
 1092 -338 1092 -338 1106.1875 3.4453125 c 24,20,21
 1109.01408584 74.353358941 1109.01408584 74.353358941 1101.06738281 189.528320312 c 2,22,-1
 1039.85449219 1076.71289062 l 2,23,24
 1017.01674986 1404.75940116 1017.01674986 1404.75940116 1178.01953125 1488.63574219 c 2,25,-1
 1207.41601562 1503.95019531 l 1,26,-1
 1207.41601562 431.447265625 l 2,27,28
 1207 172 1207 172 1204.25195312 13.7373046875 c 0,0,1
EndSplineSet
Substitution2: "'fina' Terminal Forms in Arabic lookup 9 subtable" uniFEDE
Substitution2: "'medi' Medial Forms in Arabic lookup 11 subtable" uniFEE0
Substitution2: "'init' Initial Forms in Arabic lookup 13 subtable" uniFEDF
EndChar

StartChar: uni0645
Encoding: 1605 1605 37
Width: 1167
VWidth: 2492
GlyphClass: 2
Flags: W
AnchorPoint: "Anchor-10" 649.046 968.62 basechar 0
AnchorPoint: "Anchor-7" 692.395 -304.445 basechar 0
LayerCount: 2
Fore
SplineSet
906.959960938 191.559570312 m 1,0,1
 924 232 924 232 938.424804688 271.194335938 c 0,2,3
 980 386 980 386 745.287109375 488.102539062 c 0,4,5
 617 544 617 544 547.11328125 452.215820312 c 24,6,7
 497 386 497 386 511.759765625 205.879882812 c 1,8,9
 685 206 685 206 906.959960938 191.559570312 c 1,0,1
456.147460938 27.462890625 m 0,10,11
 176.567382812 31.005859375 176.567382812 31.005859375 225.697265625 -287.647460938 c 2,12,-1
 260.876953125 -515.8203125 l 2,13,14
 293.010742188 -725.068359375 293.010742188 -725.068359375 131.112304688 -817.104492188 c 2,15,-1
 101.259765625 -834.075195312 l 1,16,-1
 101.259765625 -234.696289062 l 2,17,18
 101 -61 101 -61 159.43359375 50.0400390625 c 0,19,20
 212.754882812 150.5390625 212.754882812 150.5390625 362.104492188 176.370117188 c 2,21,-1
 367.095703125 177.233398438 l 1,22,-1
 366.845703125 182.293945312 l 2,23,24
 353 471 353 471 466.696289062 593.650390625 c 0,25,26
 626 765 626 765 857.673828125 612.5 c 24,27,28
 1133 431 1133 431 1094.87402344 286.911132812 c 0,29,30
 1068 187 1068 187 1022 104 c 0,31,32
 1001 67 1001 67 974 42 c 0,33,34
 941.907226562 13.0126953125 941.907226562 13.0126953125 778.028320312 21.5908203125 c 0,35,36
 733 24 733 24 456.147460938 27.462890625 c 0,10,11
EndSplineSet
Substitution2: "'init' Initial Forms in Arabic lookup 13 subtable" uniFEE3
Substitution2: "'medi' Medial Forms in Arabic lookup 11 subtable" uniFEE4
Substitution2: "'fina' Terminal Forms in Arabic lookup 9 subtable" uniFEE2
EndChar

StartChar: uni0647
Encoding: 1607 1607 39
Width: 859
VWidth: 2468
GlyphClass: 2
Flags: W
AnchorPoint: "Anchor-10" 399.208 1200.77 basechar 0
AnchorPoint: "Anchor-7" 430.002 -225.928 basechar 0
LayerCount: 2
Fore
SplineSet
231.538085938 349.274414062 m 0,0,1
 203 230 203 230 335.557617188 186.825195312 c 0,2,3
 433 155 433 155 531.8359375 187.25 c 0,4,5
 677 236 677 236 617.108398438 383.658203125 c 0,6,7
 575 488 575 488 411.328125 627.19140625 c 1,8,9
 257 453 257 453 231.538085938 349.274414062 c 0,0,1
334.3359375 720.28515625 m 1,10,-1
 325.833007812 727.924804688 l 2,11,12
 308.456226678 743.588743916 308.456226678 743.588743916 375.63671875 892.099609375 c 2,13,-1
 379.809570312 901.32421875 l 1,14,15
 668.665253258 636.473133267 668.665253258 636.473133267 736.169921875 438.850585938 c 0,16,17
 814 210 814 210 682.646484375 82.7265625 c 0,18,19
 603 5 603 5 428.924804688 2.8359375 c 0,20,21
 296 1 296 1 208.689453125 52.875 c 0,22,23
 122 105 122 105 101.634765625 210.341796875 c 0,24,25
 66 396 66 396 334.3359375 720.28515625 c 1,10,-1
EndSplineSet
Substitution2: "'fina' Terminal Forms in Arabic lookup 9 subtable" uniFEEA
Substitution2: "'medi' Medial Forms in Arabic lookup 11 subtable" uniFEEC
Substitution2: "'init' Initial Forms in Arabic lookup 13 subtable" uniFEEB
EndChar

StartChar: uni0648
Encoding: 1608 1608 40
Width: 925
VWidth: 2491
GlyphClass: 2
Flags: W
AnchorPoint: "Anchor-10" 519.056 1063.93 basechar 0
AnchorPoint: "Anchor-7" 441.147 -657.422 basechar 0
LayerCount: 2
Fore
SplineSet
598 -381 m 24,0,1
 492.142857143 -459 492.142857143 -459 406 -459 c 0,2,3
 274 -459 274 -459 104 -418.690429688 c 0,4,5
 46.7933590774 -404.749537055 46.7933590774 -404.749537055 39.65234375 -371 c 0,6,7
 34 -345 34 -345 120 -330.262695312 c 0,8,9
 541 -258 541 -258 657 -75.505859375 c 0,10,11
 680 -39 680 -39 692.854492188 1 c 1,12,13
 614 -15 614 -15 526.349609375 -14.7265625 c 0,14,15
 325 -14 325 -14 251.284179688 89.7919921875 c 0,16,17
 194 171 194 171 211.59765625 296.192382812 c 0,18,19
 241 510 241 510 357.521484375 616.749023438 c 0,20,21
 431 684 431 684 523.481445312 683.17578125 c 0,22,23
 663 682 663 682 744.120117188 517.3203125 c 0,24,25
 827 349 827 349 825.626953125 155.51953125 c 0,26,27
 825 61 825 61 813.959960938 -2 c 0,28,29
 770 -254 770 -254 598 -381 c 24,0,1
495.267578125 508.27734375 m 0,30,31
 384 499 384 499 344.9375 309.765625 c 0,32,33
 315 161 315 161 522.51953125 166.217773438 c 0,34,35
 551 167 551 167 694.819335938 180.125976562 c 1,36,37
 681 326 681 326 636.850585938 415.609375 c 0,38,39
 587 516 587 516 495.267578125 508.27734375 c 0,30,31
EndSplineSet
PairPos2: "'kern' Horizontal Kerning lookup 15-1" uniFB90 dx=-150 dy=0 dh=-150 dv=0 dx=0 dy=0 dh=0 dv=0
PairPos2: "'kern' Horizontal Kerning lookup 15-1" uniFB8E dx=-150 dy=0 dh=-150 dv=0 dx=0 dy=0 dh=0 dv=0
PairPos2: "'kern' Horizontal Kerning lookup 15-1" uni06A9 dx=-150 dy=0 dh=-150 dv=0 dx=0 dy=0 dh=0 dv=0
PairPos2: "'kern' Horizontal Kerning lookup 15-1" uni064A dx=-50 dy=0 dh=-50 dv=0 dx=0 dy=0 dh=0 dv=0
PairPos2: "'kern' Horizontal Kerning lookup 15-1" afii57414 dx=-50 dy=0 dh=-50 dv=0 dx=0 dy=0 dh=0 dv=0
PairPos2: "'kern' Horizontal Kerning lookup 15-1" uni0649 dx=-50 dy=0 dh=-50 dv=0 dx=0 dy=0 dh=0 dv=0
PairPos2: "'kern' Horizontal Kerning lookup 15-1" uni0648 dx=-50 dy=0 dh=-50 dv=0 dx=0 dy=0 dh=0 dv=0
PairPos2: "'kern' Horizontal Kerning lookup 15-1" afii57412 dx=-50 dy=0 dh=-50 dv=0 dx=0 dy=0 dh=0 dv=0
PairPos2: "'kern' Horizontal Kerning lookup 15-1" uniFEEB dx=-50 dy=0 dh=-50 dv=0 dx=0 dy=0 dh=0 dv=0
PairPos2: "'kern' Horizontal Kerning lookup 15-1" uni0647 dx=-50 dy=0 dh=-50 dv=0 dx=0 dy=0 dh=0 dv=0
PairPos2: "'kern' Horizontal Kerning lookup 15-1" uniFEE7 dx=-50 dy=0 dh=-50 dv=0 dx=0 dy=0 dh=0 dv=0
PairPos2: "'kern' Horizontal Kerning lookup 15-1" uni0646 dx=-50 dy=0 dh=-50 dv=0 dx=0 dy=0 dh=0 dv=0
PairPos2: "'kern' Horizontal Kerning lookup 15-1" uniFEE3 dx=-50 dy=0 dh=-50 dv=0 dx=0 dy=0 dh=0 dv=0
PairPos2: "'kern' Horizontal Kerning lookup 15-1" uni0645 dx=-50 dy=0 dh=-50 dv=0 dx=0 dy=0 dh=0 dv=0
PairPos2: "'kern' Horizontal Kerning lookup 15-1" uniFEFB dx=-50 dy=0 dh=-50 dv=0 dx=0 dy=0 dh=0 dv=0
PairPos2: "'kern' Horizontal Kerning lookup 15-1" uniFEDF dx=-50 dy=0 dh=-50 dv=0 dx=0 dy=0 dh=0 dv=0
PairPos2: "'kern' Horizontal Kerning lookup 15-1" uni0644 dx=-50 dy=0 dh=-50 dv=0 dx=0 dy=0 dh=0 dv=0
PairPos2: "'kern' Horizontal Kerning lookup 15-1" uniFEDB dx=-150 dy=0 dh=-150 dv=0 dx=0 dy=0 dh=0 dv=0
PairPos2: "'kern' Horizontal Kerning lookup 15-1" uni0643 dx=-50 dy=0 dh=-50 dv=0 dx=0 dy=0 dh=0 dv=0
PairPos2: "'kern' Horizontal Kerning lookup 15-1" uniFED7 dx=-50 dy=0 dh=-50 dv=0 dx=0 dy=0 dh=0 dv=0
PairPos2: "'kern' Horizontal Kerning lookup 15-1" uni0642 dx=-50 dy=0 dh=-50 dv=0 dx=0 dy=0 dh=0 dv=0
PairPos2: "'kern' Horizontal Kerning lookup 15-1" uniFED3 dx=-50 dy=0 dh=-50 dv=0 dx=0 dy=0 dh=0 dv=0
PairPos2: "'kern' Horizontal Kerning lookup 15-1" uni0641 dx=-50 dy=0 dh=-50 dv=0 dx=0 dy=0 dh=0 dv=0
PairPos2: "'kern' Horizontal Kerning lookup 15-1" uniFECF dx=-50 dy=0 dh=-50 dv=0 dx=0 dy=0 dh=0 dv=0
PairPos2: "'kern' Horizontal Kerning lookup 15-1" uniFECB dx=-50 dy=0 dh=-50 dv=0 dx=0 dy=0 dh=0 dv=0
PairPos2: "'kern' Horizontal Kerning lookup 15-1" uniFEC7 dx=-50 dy=0 dh=-50 dv=0 dx=0 dy=0 dh=0 dv=0
PairPos2: "'kern' Horizontal Kerning lookup 15-1" uni0638 dx=-50 dy=0 dh=-50 dv=0 dx=0 dy=0 dh=0 dv=0
PairPos2: "'kern' Horizontal Kerning lookup 15-1" uniFEC3 dx=-50 dy=0 dh=-50 dv=0 dx=0 dy=0 dh=0 dv=0
PairPos2: "'kern' Horizontal Kerning lookup 15-1" uni0637 dx=-50 dy=0 dh=-50 dv=0 dx=0 dy=0 dh=0 dv=0
PairPos2: "'kern' Horizontal Kerning lookup 15-1" uniFEBF dx=-50 dy=0 dh=-50 dv=0 dx=0 dy=0 dh=0 dv=0
PairPos2: "'kern' Horizontal Kerning lookup 15-1" uni0636 dx=-50 dy=0 dh=-50 dv=0 dx=0 dy=0 dh=0 dv=0
PairPos2: "'kern' Horizontal Kerning lookup 15-1" uniFEBB dx=-50 dy=0 dh=-50 dv=0 dx=0 dy=0 dh=0 dv=0
PairPos2: "'kern' Horizontal Kerning lookup 15-1" uni0635 dx=-50 dy=0 dh=-50 dv=0 dx=0 dy=0 dh=0 dv=0
PairPos2: "'kern' Horizontal Kerning lookup 15-1" uniFEB7 dx=-50 dy=0 dh=-50 dv=0 dx=0 dy=0 dh=0 dv=0
PairPos2: "'kern' Horizontal Kerning lookup 15-1" uni0634 dx=-50 dy=0 dh=-50 dv=0 dx=0 dy=0 dh=0 dv=0
PairPos2: "'kern' Horizontal Kerning lookup 15-1" uniFEB3 dx=-50 dy=0 dh=-50 dv=0 dx=0 dy=0 dh=0 dv=0
PairPos2: "'kern' Horizontal Kerning lookup 15-1" uni0633 dx=-50 dy=0 dh=-50 dv=0 dx=0 dy=0 dh=0 dv=0
PairPos2: "'kern' Horizontal Kerning lookup 15-1" uni0632 dx=-50 dy=0 dh=-50 dv=0 dx=0 dy=0 dh=0 dv=0
PairPos2: "'kern' Horizontal Kerning lookup 15-1" uni0631 dx=-50 dy=0 dh=-50 dv=0 dx=0 dy=0 dh=0 dv=0
PairPos2: "'kern' Horizontal Kerning lookup 15-1" uni0630 dx=-50 dy=0 dh=-50 dv=0 dx=0 dy=0 dh=0 dv=0
PairPos2: "'kern' Horizontal Kerning lookup 15-1" uni062F dx=-50 dy=0 dh=-50 dv=0 dx=0 dy=0 dh=0 dv=0
PairPos2: "'kern' Horizontal Kerning lookup 15-1" uniFEA7 dx=-50 dy=0 dh=-50 dv=0 dx=0 dy=0 dh=0 dv=0
PairPos2: "'kern' Horizontal Kerning lookup 15-1" uniFEA3 dx=-50 dy=0 dh=-50 dv=0 dx=0 dy=0 dh=0 dv=0
PairPos2: "'kern' Horizontal Kerning lookup 15-1" uniFE9F dx=-50 dy=0 dh=-50 dv=0 dx=0 dy=0 dh=0 dv=0
PairPos2: "'kern' Horizontal Kerning lookup 15-1" uniFE9B dx=-50 dy=0 dh=-50 dv=0 dx=0 dy=0 dh=0 dv=0
PairPos2: "'kern' Horizontal Kerning lookup 15-1" uni062B dx=-50 dy=0 dh=-50 dv=0 dx=0 dy=0 dh=0 dv=0
PairPos2: "'kern' Horizontal Kerning lookup 15-1" uniFE97 dx=-50 dy=0 dh=-50 dv=0 dx=0 dy=0 dh=0 dv=0
PairPos2: "'kern' Horizontal Kerning lookup 15-1" uni062A dx=-50 dy=0 dh=-50 dv=0 dx=0 dy=0 dh=0 dv=0
PairPos2: "'kern' Horizontal Kerning lookup 15-1" uni0629 dx=-50 dy=0 dh=-50 dv=0 dx=0 dy=0 dh=0 dv=0
PairPos2: "'kern' Horizontal Kerning lookup 15-1" uni0628 dx=-50 dy=0 dh=-50 dv=0 dx=0 dy=0 dh=0 dv=0
PairPos2: "'kern' Horizontal Kerning lookup 15-1" uni0627 dx=-50 dy=0 dh=-50 dv=0 dx=0 dy=0 dh=0 dv=0
PairPos2: "'kern' Horizontal Kerning lookup 15-1" uni0623 dx=-50 dy=0 dh=-50 dv=0 dx=0 dy=0 dh=0 dv=0
PairPos2: "'kern' Horizontal Kerning lookup 15-1" uni0622 dx=-100 dy=0 dh=-100 dv=0 dx=0 dy=0 dh=0 dv=0
PairPos2: "'kern' Horizontal Kerning lookup 15-1" uni0621 dx=-50 dy=0 dh=-50 dv=0 dx=0 dy=0 dh=0 dv=0
PairPos2: "'kern' Horizontal Kerning lookup 15-1" uniFB94 dx=-150 dy=0 dh=-150 dv=0 dx=0 dy=0 dh=0 dv=0
PairPos2: "'kern' Horizontal Kerning lookup 15-1" uniFB92 dx=-150 dy=0 dh=-150 dv=0 dx=0 dy=0 dh=0 dv=0
PairPos2: "'kern' Horizontal Kerning lookup 15-1" afii57509 dx=-150 dy=0 dh=-150 dv=0 dx=0 dy=0 dh=0 dv=0
PairPos2: "'kern' Horizontal Kerning lookup 15-1" afii57508 dx=-50 dy=0 dh=-50 dv=0 dx=0 dy=0 dh=0 dv=0
PairPos2: "'kern' Horizontal Kerning lookup 15-1" uniFB7C dx=-50 dy=0 dh=-50 dv=0 dx=0 dy=0 dh=0 dv=0
PairPos2: "'kern' Horizontal Kerning lookup 15-1" afii57506 dx=-50 dy=0 dh=-50 dv=0 dx=0 dy=0 dh=0 dv=0
PairPos2: "'kern' Horizontal Kerning lookup 15-1" uniFE8B dx=-50 dy=0 dh=-50 dv=0 dx=0 dy=0 dh=0 dv=0
Substitution2: "'fina' Terminal Forms in Arabic lookup 9 subtable" uniFEEE
EndChar

StartChar: uni0649
Encoding: 1609 1609 41
Width: 1520
VWidth: 2488
GlyphClass: 2
Flags: W
AnchorPoint: "Anchor-10" 711.452 1021.8 basechar 0
AnchorPoint: "Anchor-7" 672.419 -647.612 basechar 0
LayerCount: 2
Fore
SplineSet
711.930664062 -452.655273438 m 0,0,1
 180 -460 180 -460 105.83984375 -97.2001953125 c 0,2,3
 81 24 81 24 102.599609375 165.240234375 c 0,4,5
 121 283 121 283 180.360351562 398.51953125 c 0,6,7
 254 541 254 541 298.360351562 531.649414062 c 0,8,9
 333 524 333 524 310.736328125 474.225585938 c 0,10,11
 276 397 276 397 258.229492188 339.173828125 c 0,12,13
 233 256 233 256 223.3359375 162.052734375 c 0,14,15
 205 -16 205 -16 285.7890625 -117.728515625 c 0,16,17
 405.875897393 -271.118808383 405.875897393 -271.118808383 728.87890625 -269.61328125 c 0,18,19
 1075 -268 1075 -268 1254.92089844 -92.1162109375 c 24,20,21
 1332 -17 1332 -17 1300.95214844 22.130859375 c 0,22,23
 1276 53 1276 53 1138.41210938 53.578125 c 0,24,25
 952 54 952 54 896.022460938 102.650390625 c 0,26,27
 788 198 788 198 879.83984375 433.919921875 c 0,28,29
 1007 764 1007 764 1223.48339844 783.45703125 c 0,30,31
 1393.69940125 798.972599753 1393.69940125 798.972599753 1408.07617188 612.19140625 c 2,32,-1
 1409.99902344 587.209960938 l 1,33,34
 1165 615 1165 615 1053.35058594 486 c 0,35,36
 963 381 963 381 969.190429688 289.756835938 c 0,37,38
 974 226 974 226 1147.77441406 227.633789062 c 0,39,40
 1292 229 1292 229 1356.55957031 193.290039062 c 0,41,42
 1436 148 1436 148 1429.73242188 25.759765625 c 0,43,44
 1421.27207096 -150.498394137 1421.27207096 -150.498394137 1222 -300.007861778 c 0,45,46
 1024.44279162 -448.230705608 1024.44279162 -448.230705608 711.930664062 -452.655273438 c 0,0,1
EndSplineSet
Substitution2: "'fina' Terminal Forms in Arabic lookup 9 subtable" uniFEF0
Substitution2: "'medi' Medial Forms in Arabic lookup 11 subtable" uniFBE9
Substitution2: "'init' Initial Forms in Arabic lookup 13 subtable" uniFBE8
EndChar

StartChar: uni064B
Encoding: 1611 1611 43
Width: -22
VWidth: 1990
GlyphClass: 4
Flags: W
AnchorPoint: "Anchor-10" 526.624 960.612 mark 0
AnchorPoint: "Anchor-9" 526.624 960.612 mark 0
AnchorPoint: "Anchor-1" 492.064 1434.91 basemark 0
AnchorPoint: "Anchor-1" 526.624 960.612 mark 0
LayerCount: 2
Fore
SplineSet
260.94140625 914.122070312 m 1,0,-1
 260.94140625 1013.25683594 l 1,1,-1
 696.107421875 1191.20019531 l 1,2,-1
 696.107421875 1092.06347656 l 1,3,-1
 260.94140625 914.122070312 l 1,0,-1
260.94140625 1150.4296875 m 1,4,-1
 260.94140625 1249.56445312 l 1,5,-1
 696.107421875 1427.50683594 l 1,6,-1
 696.107421875 1328.37109375 l 1,7,-1
 260.94140625 1150.4296875 l 1,4,-1
EndSplineSet
EndChar

StartChar: uni064C
Encoding: 1612 1612 44
Width: -22
VWidth: 1990
GlyphClass: 4
Flags: W
AnchorPoint: "Anchor-10" 584.438 1050.75 mark 0
AnchorPoint: "Anchor-9" 584.438 1050.75 mark 0
AnchorPoint: "Anchor-1" 490.738 1648.81 basemark 0
AnchorPoint: "Anchor-1" 584.438 1050.75 mark 0
LayerCount: 2
Fore
SplineSet
492.016601562 1433.06542969 m 0,0,1
 492 1387 492 1387 545.577148438 1365.15039062 c 0,2,3
 566 1357 566 1357 604.827148438 1345.06347656 c 1,4,5
 647.434101339 1444.46372026 647.434101339 1444.46372026 604.626953125 1479.48632812 c 0,6,7
 582 1498 582 1498 558 1498.86738189 c 0,8,9
 530 1499 530 1499 512 1482.54492188 c 0,10,11
 492 1464 492 1464 492.016601562 1433.06542969 c 0,0,1
291.37109375 1198.14257812 m 0,12,13
 310 1116 310 1116 383.407226563 1116.0859375 c 0,14,15
 447 1116 447 1116 512.15234375 1178.99511719 c 0,16,17
 550 1216 550 1216 580.659179688 1277.00097656 c 1,18,19
 412 1313 412 1313 413.362153218 1437 c 0,20,21
 414 1486 414 1486 444.467773438 1525.08203125 c 4,22,23
 483 1574 483 1574 549.816894531 1573.94824219 c 0,24,25
 619 1574 619 1574 661.059570312 1533 c 128,-1,26
 703 1492 703 1492 702.887695312 1421.34960938 c 0,27,28
 703.000064997 1385.97954114 703.000064997 1385.97954114 691.883789062 1350.78710938 c 2,29,-1
 685.924804688 1331.921875 l 1,30,-1
 705.685546875 1330.88476562 l 2,31,32
 725 1330 725 1330 760.486328125 1329.06640625 c 1,33,-1
 760.486328125 1252.21777344 l 1,34,35
 733.056324004 1252.00044625 733.056324004 1252.00044625 711.861328125 1254.03808594 c 2,36,-1
 649.938476562 1259.99121094 l 1,37,38
 589 1117 589 1117 469.83203125 1059.11914062 c 0,39,40
 429 1039 429 1039 386.279296875 1039.33300781 c 0,41,42
 264 1039 264 1039 234.702148438 1179.625 c 0,43,44
 222 1242 222 1242 221.065429688 1309.38378906 c 1,45,-1
 278.30078125 1309.38378906 l 1,46,47
 281 1243 281 1243 291.37109375 1198.14257812 c 0,12,13
738.28125 1329.88574219 m 2,48,-1
 738.19140625 1329.89160156 l 2,49,50
 738.237304688 1329.88769531 738.237304688 1329.88769531 738.28125 1329.88574219 c 2,48,-1
EndSplineSet
EndChar

StartChar: uni064D
Encoding: 1613 1613 45
Width: -22
VWidth: 1990
GlyphClass: 4
Flags: W
AnchorPoint: "Anchor-7" 477.467 65.4287 mark 0
AnchorPoint: "Anchor-6" 477.467 65.4287 mark 0
AnchorPoint: "Anchor-0" 549.088 -404.448 basemark 0
AnchorPoint: "Anchor-0" 477.467 65.4287 mark 0
LayerCount: 2
Fore
SplineSet
265.50390625 -445.330078125 m 1,0,-1
 265.50390625 -346.1953125 l 1,1,-1
 700.668945312 -168.252929688 l 1,2,-1
 700.668945312 -267.387695312 l 1,3,-1
 265.50390625 -445.330078125 l 1,0,-1
265.50390625 -209.0234375 m 1,4,-1
 265.50390625 -109.887695312 l 1,5,-1
 700.668945312 68.0546875 l 1,6,-1
 700.668945312 -31.0810546875 l 1,7,-1
 265.50390625 -209.0234375 l 1,4,-1
EndSplineSet
EndChar

StartChar: uni064E
Encoding: 1614 1614 46
Width: -22
VWidth: 1990
GlyphClass: 4
Flags: W
AnchorPoint: "Anchor-10" 499.253 1176.03 mark 0
AnchorPoint: "Anchor-9" 499.253 1176.03 mark 0
AnchorPoint: "Anchor-1" 464.692 1456.81 basemark 0
AnchorPoint: "Anchor-1" 499.253 1176.03 mark 0
LayerCount: 2
Fore
SplineSet
234.482421875 1149.51660156 m 1,0,-1
 234.482421875 1248.65234375 l 1,1,-1
 669.6484375 1426.59472656 l 1,2,-1
 669.6484375 1327.45898438 l 1,3,-1
 234.482421875 1149.51660156 l 1,0,-1
EndSplineSet
EndChar

StartChar: uni064F
Encoding: 1615 1615 47
Width: -22
VWidth: 1990
GlyphClass: 4
Flags: W
AnchorPoint: "Anchor-10" 531.897 1106.79 mark 0
AnchorPoint: "Anchor-9" 531.897 1106.79 mark 0
AnchorPoint: "Anchor-1" 472.192 1661.64 basemark 0
AnchorPoint: "Anchor-1" 531.897 1106.79 mark 0
LayerCount: 2
Fore
SplineSet
710.8359375 1265.08984375 m 1,0,1
 661.82421875 1265.75976562 661.82421875 1265.75976562 596.794921875 1272.68945312 c 1,2,3
 551.232421875 1208.73632812 551.232421875 1208.73632812 486.758789062 1168.99121094 c 0,4,5
 384.48046875 1105.05664062 384.48046875 1105.05664062 268.704101562 1100.73632812 c 1,6,-1
 268.704101562 1177.40917969 l 1,7,8
 361.62210347 1180.42921517 361.62210347 1180.42921517 449.551757812 1237.6015625 c 0,9,10
 484 1260 484 1260 510.866210938 1295.84960938 c 1,11,12
 429.2819663 1313.96001551 429.2819663 1313.96001551 387.81640625 1370.79589844 c 4,13,14
 363.744140625 1404 363.744140625 1404 363.661132812 1444.41992188 c 0,15,16
 363.711484922 1492.2271764 363.711484922 1492.2271764 386.232025092 1528 c 0,17,18
 423.582104768 1587.32885276 423.582104768 1587.32885276 508.86328125 1586.77636719 c 0,19,20
 569.375976562 1587.16796875 569.375976562 1587.16796875 611.41015625 1545.828125 c 0,21,22
 653.18359375 1505.08789062 653.18359375 1505.08789062 653.237304688 1434.17871094 c 0,23,24
 653.18359375 1405.08105469 653.18359375 1405.08105469 640.26171875 1363.55566406 c 2,25,-1
 634.447265625 1344.86914062 l 1,26,-1
 653.98828125 1343.71386719 l 2,27,28
 686.879882812 1341.79199219 686.879882812 1341.79199219 710.8359375 1341.81640625 c 1,29,-1
 710.8359375 1265.08984375 l 1,0,1
555.177734375 1357.89257812 m 1,30,-1
 566.4609375 1384.21386719 l 2,31,32
 576.484375 1407.60644531 576.484375 1407.60644531 576.484375 1441.10644531 c 128,-1,33
 576.484375 1474.60546875 576.484375 1474.60546875 554.974609375 1492.31445312 c 128,-1,34
 533.463867188 1510.0234375 533.463867188 1510.0234375 507.396484375 1510.0234375 c 0,35,36
 459.324641112 1510.0234375 459.324641112 1510.0234375 446.915647557 1473 c 0,37,38
 424.627076137 1406.49988238 424.627076137 1406.49988238 495.927734375 1377.97753906 c 0,39,40
 515.947265625 1369.97167969 515.947265625 1369.97167969 555.177734375 1357.89257812 c 1,30,-1
EndSplineSet
EndChar

StartChar: uni0650
Encoding: 1616 1616 48
Width: -22
VWidth: 1990
GlyphClass: 4
Flags: W
AnchorPoint: "Anchor-7" 490.226 -13.9971 mark 0
AnchorPoint: "Anchor-6" 490.226 -13.9971 mark 0
AnchorPoint: "Anchor-0" 531.381 -282.48 basemark 0
AnchorPoint: "Anchor-0" 490.226 -13.9971 mark 0
LayerCount: 2
Fore
SplineSet
274.627929688 -304.823242188 m 1,0,-1
 274.627929688 -205.6875 l 1,1,-1
 709.79296875 -27.74609375 l 1,2,-1
 709.79296875 -126.880859375 l 1,3,-1
 274.627929688 -304.823242188 l 1,0,-1
EndSplineSet
EndChar

StartChar: uni0651
Encoding: 1617 1617 49
Width: -22
VWidth: 1990
GlyphClass: 4
Flags: W
AnchorPoint: "Anchor-10" 526.624 1201.15 mark 0
AnchorPoint: "Anchor-9" 526.624 1201.15 mark 0
AnchorPoint: "Anchor-1" 500.123 1590.05 basemark 0
AnchorPoint: "Anchor-1" 526.624 1201.15 mark 0
LayerCount: 2
Fore
SplineSet
498.879882812 1323.58007812 m 1,0,1
 473 1181 473 1181 347.74609375 1180.98144531 c 4,2,3
 223 1181 223 1181 222.20709422 1342.45929558 c 0,4,5
 222 1375 222 1375 235.623046875 1463.30371094 c 1,6,-1
 300.521484375 1463.30371094 l 1,7,8
 289 1386 289 1386 289.440429688 1361.6640625 c 0,9,10
 289 1264 289 1264 358.516601562 1264.09863281 c 0,11,12
 451 1264 451 1264 458 1457 c 0,13,14
 460 1511 460 1511 459.529296875 1511.96191406 c 1,15,-1
 523.690429688 1511.96191406 l 1,16,17
 525 1481 525 1481 525.560546875 1439.41601562 c 0,18,19
 524.998896613 1317.76100322 524.998896613 1317.76100322 631.11328125 1317.95117188 c 2,20,-1
 631.658203125 1317.95214844 l 2,21,22
 699 1318 699 1318 697.75390625 1431.08398438 c 0,23,24
 697 1514 697 1514 686.295898438 1565.85742188 c 1,25,-1
 755.086914062 1565.85742188 l 1,26,27
 766 1484 766 1484 766.639648438 1435.09667969 c 0,28,29
 766 1239 766 1239 623.929220071 1239.58068359 c 0,30,31
 521 1240 521 1240 498.879882812 1323.58007812 c 1,0,1
EndSplineSet
EndChar

StartChar: uni0652
Encoding: 1618 1618 50
Width: -29
VWidth: 2488
GlyphClass: 4
Flags: W
AnchorPoint: "Anchor-10" 635.609 1282.72 mark 0
AnchorPoint: "Anchor-9" 635.609 1282.72 mark 0
AnchorPoint: "Anchor-1" 619.643 1936.77 basemark 0
AnchorPoint: "Anchor-1" 635.609 1282.72 mark 0
LayerCount: 2
Fore
SplineSet
763.932617188 1573.67089844 m 0,0,1
 763.932617188 1626.24609375 763.932617188 1626.24609375 727.1640625 1663.01464844 c 128,-1,2
 690.399414062 1699.78320312 690.399414062 1699.78320312 637.075195312 1699.78320312 c 0,3,4
 583.004882812 1699.78320312 583.004882812 1699.78320312 546.614257812 1663.390625 c 128,-1,5
 510.221679688 1626.99902344 510.221679688 1626.99902344 510.221679688 1573.67089844 c 0,6,7
 510.221679688 1519.6015625 510.221679688 1519.6015625 546.614257812 1483.20996094 c 128,-1,8
 583.004882812 1446.81835938 583.004882812 1446.81835938 637.075195312 1446.81835938 c 0,9,10
 690.401367188 1446.81835938 690.401367188 1446.81835938 727.1640625 1483.58691406 c 128,-1,11
 763.932617188 1520.35449219 763.932617188 1520.35449219 763.932617188 1573.67089844 c 0,0,1
841.771484375 1573.79589844 m 128,-1,13
 841.771484375 1487.93164062 841.771484375 1487.93164062 782.490234375 1428.27050781 c 128,-1,14
 723.248046875 1368.65527344 723.248046875 1368.65527344 637.4296875 1368.65527344 c 0,15,16
 608.748046875 1368.65527344 608.748046875 1368.65527344 583.114257812 1375.26757812 c 128,-1,17
 557.481445312 1381.87890625 557.481445312 1381.87890625 534.819335938 1395.11816406 c 128,-1,18
 512.158203125 1408.35839844 512.158203125 1408.35839844 492.370117188 1428.27050781 c 0,19,20
 462.672851562 1458.15820312 462.672851562 1458.15820312 447.880859375 1494.46191406 c 128,-1,21
 433.086914062 1530.76464844 433.086914062 1530.76464844 433.086914062 1573.79589844 c 0,22,23
 433.086914062 1659.63085938 433.086914062 1659.63085938 492.336914062 1718.890625 c 128,-1,24
 551.584960938 1778.13867188 551.584960938 1778.13867188 637.4296875 1778.13867188 c 128,-1,25
 723.274414062 1778.13867188 723.274414062 1778.13867188 782.521484375 1718.890625 c 128,-1,12
 841.771484375 1659.63085938 841.771484375 1659.63085938 841.771484375 1573.79589844 c 128,-1,13
EndSplineSet
EndChar

StartChar: uni0653
Encoding: 1619 1619 51
Width: -3
VWidth: 2459
GlyphClass: 4
Flags: W
AnchorPoint: "Anchor-10" 504.319 1404.45 mark 0
AnchorPoint: "Anchor-9" 504.319 1404.45 mark 0
AnchorPoint: "Anchor-1" 504.319 1829.56 basemark 0
AnchorPoint: "Anchor-1" 504.319 1404.45 mark 0
LayerCount: 2
Fore
SplineSet
349.712890625 1479.8984375 m 4,0,1
 245 1487 245 1487 182.056105073 1422.87393039 c 0,2,3
 164 1405 164 1405 152.039487084 1407.0242072 c 128,-1,4
 140 1409 140 1409 139.81562286 1424.12192167 c 0,5,6
 139.322769595 1433.11224041 139.322769595 1433.11224041 143.810937121 1449.60505296 c 0,7,8
 165 1527 165 1527 217.444576628 1581.58453678 c 0,9,10
 255 1620 255 1620 306.507942574 1621.97143522 c 0,11,12
 346 1624 346 1624 388.670440814 1618.67700286 c 0,13,14
 431 1614 431 1614 548.323195724 1615.41580723 c 0,15,16
 665 1617 665 1617 689.072829829 1622.18150115 c 0,17,18
 713 1627 713 1627 722.913884117 1623.07841555 c 0,19,20
 734 1619 734 1619 722.977484178 1601.49400935 c 0,21,22
 656 1502 656 1502 579.953125 1481.41601562 c 4,23,24
 528 1467 528 1467 349.712890625 1479.8984375 c 4,0,1
EndSplineSet
EndChar

StartChar: uni0657
Encoding: 1623 1623 54
Width: -31
VWidth: 2687
GlyphClass: 4
Flags: W
AnchorPoint: "Anchor-10" 664.286 1572.39 mark 0
AnchorPoint: "Anchor-9" 664.286 1572.39 mark 0
AnchorPoint: "Anchor-1" 664.286 2429.06 basemark 0
AnchorPoint: "Anchor-1" 664.286 1572.39 mark 0
LayerCount: 2
Fore
SplineSet
768.813476562 1871.73046875 m 0,0,1
 768.657226562 1669.03222656 768.657226562 1669.03222656 572.7890625 1670.83398438 c 0,2,3
 491.053710938 1671.36425781 491.053710938 1671.36425781 434.354492188 1726.11523438 c 0,4,5
 377.913085938 1781.00683594 377.913085938 1781.00683594 377.884765625 1876.84179688 c 0,6,7
 377.913085938 1915.97070312 377.913085938 1915.97070312 395.40234375 1972.18261719 c 2,8,-1
 403.251953125 1997.41015625 l 1,9,-1
 376.870117188 1998.96777344 l 2,10,11
 334.756835938 2001.45605469 334.756835938 2001.45605469 300.126953125 2001.53027344 c 1,12,-1
 300.126953125 2105.11132812 l 1,13,14
 366.25 2104.09960938 366.25 2104.09960938 454.083984375 2094.85253906 c 1,15,16
 515.548828125 2182.24804688 515.548828125 2182.24804688 602.633789062 2234.84472656 c 0,17,18
 814.147460938 2364.20605469 814.147460938 2364.20605469 915.624023438 2369.73632812 c 5,19,-1
 915.624023438 2266.22949219 l 5,20,21
 807.149414062 2262.72949219 807.149414062 2262.72949219 652.860351562 2142.21875 c 0,22,23
 621.690429688 2118.09667969 621.690429688 2118.09667969 595.259765625 2090.10058594 c 2,24,-1
 570.08984375 2063.60351562 l 1,25,-1
 605.763671875 2055.66503906 l 2,26,27
 615.859375 2053.94335938 615.859375 2053.94335938 659.262695312 2030.55566406 c 0,28,29
 703.33984375 2007.28710938 703.33984375 2007.28710938 736.204101562 1962.40625 c 0,30,31
 768.657226562 1917.47558594 768.657226562 1917.47558594 768.813476562 1871.73046875 c 0,0,1
560.067382812 1774.453125 m 0,32,33
 662.559570312 1774.453125 662.559570312 1774.453125 662.559570312 1861.02636719 c 0,34,35
 662.559570312 1923.78710938 662.559570312 1923.78710938 590.255859375 1952.71191406 c 0,36,37
 563.344726562 1963.48144531 563.344726562 1963.48144531 510.267578125 1979.83007812 c 1,38,-1
 495.03515625 1944.29394531 l 2,39,40
 481.501953125 1912.71972656 481.501953125 1912.71972656 481.501953125 1867.5 c 128,-1,41
 481.501953125 1822.28027344 481.501953125 1822.28027344 510.537109375 1798.36621094 c 128,-1,42
 539.572265625 1774.453125 539.572265625 1774.453125 560.067382812 1774.453125 c 0,32,33
EndSplineSet
EndChar

StartChar: uni065A
Encoding: 1626 1626 55
Width: 1316
VWidth: 2687
GlyphClass: 4
Flags: W
AnchorPoint: "Anchor-10" 664.286 1572.39 mark 0
AnchorPoint: "Anchor-9" 664.286 1572.39 mark 0
AnchorPoint: "Anchor-1" 661.651 2165.48 basemark 0
AnchorPoint: "Anchor-1" 664.286 1572.39 mark 0
LayerCount: 2
Fore
SplineSet
578.485351562 1674.78808594 m 1,0,-1
 346.224609375 2063.08007812 l 1,1,-1
 481.889648438 2063.08007812 l 1,2,-1
 664.286132812 1789.47753906 l 1,3,-1
 846.682617188 2063.08007812 l 1,4,-1
 982.349609375 2063.08007812 l 1,5,-1
 750.084960938 1674.78808594 l 1,6,-1
 578.485351562 1674.78808594 l 1,0,-1
EndSplineSet
EndChar

StartChar: afii57392
Encoding: 1632 1632 56
Width: 864
VWidth: 2457
GlyphClass: 2
Flags: W
LayerCount: 2
Fore
SplineSet
303.16015625 652.879882812 m 0,0,1
 304 599.120117188 304 599.120117188 340.959960938 562.16015625 c 128,-1,2
 377.919921875 525.200195312 377.919921875 525.200195312 430.83984375 525.200195312 c 128,-1,3
 483.759765625 525.200195312 483.759765625 525.200195312 520.719726562 562.16015625 c 128,-1,4
 557.6796875 599.120117188 557.6796875 599.120117188 558.51953125 652.879882812 c 0,5,6
 557.6796875 706.639648438 557.6796875 706.639648438 520.719726562 743.599609375 c 128,-1,7
 483.759765625 780.559570312 483.759765625 780.559570312 430.83984375 780.559570312 c 128,-1,8
 377.919921875 780.559570312 377.919921875 780.559570312 340.959960938 743.599609375 c 128,-1,9
 304 706.639648438 304 706.639648438 303.16015625 652.879882812 c 0,0,1
162.6328125 648.606445312 m 128,-1,11
 162.6328125 760.637695312 162.6328125 760.637695312 241.728515625 840.194335938 c 128,-1,12
 320.741262385 919.671875 320.741262385 919.671875 431.943359375 919.671875 c 128,-1,13
 543.14718421 919.671875 543.14718421 919.671875 622.158203125 840.194335938 c 128,-1,14
 701.250976562 760.63671875 701.250976562 760.63671875 701.250976562 648.606445312 c 128,-1,15
 701.250976562 536.568359375 701.250976562 536.568359375 622.158203125 457.020507812 c 128,-1,16
 543.137695312 377.543945312 543.137695312 377.543945312 431.943359375 377.543945312 c 128,-1,17
 320.738620753 377.543945312 320.738620753 377.543945312 241.728515625 457.020507812 c 128,-1,10
 162.6328125 536.57421875 162.6328125 536.57421875 162.6328125 648.606445312 c 128,-1,11
EndSplineSet
EndChar

StartChar: afii57393
Encoding: 1633 1633 57
Width: 729
VWidth: 2299
GlyphClass: 2
Flags: W
LayerCount: 2
Fore
SplineSet
207.435546875 1452.98339844 m 5,0,1
 417 1049 417 1049 459.559570312 556.959960938 c 4,2,3
 498 105 498 105 357.470703125 18.8505859375 c 5,4,5
 346 684 346 684 128.423828125 1224.39941406 c 4,6,7
 60.037109375 1393.90722656 60.037109375 1393.90722656 192.124023438 1446.84667969 c 6,8,-1
 207.435546875 1452.98339844 l 5,0,1
EndSplineSet
EndChar

StartChar: afii57394
Encoding: 1634 1634 58
Width: 1082
VWidth: 2299
GlyphClass: 2
Flags: W
LayerCount: 2
Fore
SplineSet
205.795898438 1450.98339844 m 1,0,1
 269 1302 269 1302 286.711914062 1271.35546875 c 0,2,3
 397 1082 397 1082 562.759765625 1081.09277344 c 0,4,5
 765 1080 765 1080 798.879882812 1315.79980469 c 0,6,7
 821.441674936 1452.20957603 821.441674936 1452.20957603 951.470703125 1420.60644531 c 2,8,-1
 973.766601562 1415.1875 l 1,9,10
 972 1363 972 1363 954.232421875 1271.63769531 c 0,11,12
 883 917 883 917 562.360351562 917.559570312 c 0,13,14
 480 918 480 918 405 942.400390625 c 1,15,16
 469 592 469 592 470.049804688 427 c 0,17,18
 473 90 473 90 355.830078125 18.8505859375 c 1,19,20
 347 731 347 731 128.784179688 1222.39941406 c 0,21,22
 57.9648787901 1382.07918953 57.9648787901 1382.07918953 190.484375 1443.84667969 c 2,23,-1
 205.795898438 1450.98339844 l 1,0,1
EndSplineSet
EndChar

StartChar: afii57395
Encoding: 1635 1635 59
Width: 1248
VWidth: 2299
GlyphClass: 2
Flags: W
LayerCount: 2
Fore
SplineSet
206.680664062 1452.84863281 m 1,0,1
 248 1366 248 1366 280.5234375 1290.07421875 c 0,2,3
 372 1081 372 1081 511 1083.03320312 c 0,4,5
 568 1084 568 1084 612.5 1139 c 128,-1,6
 657 1194 657 1194 658.479492188 1386.50976562 c 1,7,-1
 770.010742188 1408.33105469 l 1,8,9
 774 1235 774 1235 784.1171875 1190.40527344 c 0,10,11
 808 1082 808 1082 913.842773438 1083.36328125 c 0,12,13
 1018.69644842 1084.97990201 1018.69644842 1084.97990201 1010.28710938 1303.1640625 c 0,14,15
 1007.04263445 1396.76995949 1007.04263445 1396.76995949 1078.76464844 1430.06933594 c 0,16,17
 1098 1439 1098 1439 1143.69042969 1431.35058594 c 1,18,19
 1157 1116 1157 1116 1076.61230469 1009.90039062 c 0,20,21
 1011 924 1011 924 903 924 c 128,-1,22
 795 924 795 924 719.458984375 1039.58007812 c 1,23,24
 648 918 648 918 512 919.388671875 c 0,25,26
 438 920 438 920 396.126953125 948.0625 c 1,27,28
 471 572 471 572 471.890625 421 c 0,29,30
 473 75 473 75 359.637695312 18.41796875 c 1,31,32
 347 722 347 722 127.987304688 1220.265625 c 0,33,34
 55 1386 55 1386 206.680664062 1452.84863281 c 1,0,1
EndSplineSet
EndChar

StartChar: afii57396
Encoding: 1636 1636 60
Width: 972
VWidth: 2626
GlyphClass: 2
Flags: W
LayerCount: 2
Fore
SplineSet
411.409179688 721.01171875 m 5,0,1
 165 844 165 844 107.203125 924.69140625 c 5,2,3
 163 1270 163 1270 613.36328125 1451.55371094 c 5,4,5
 642 1407 642 1407 647.40625 1270.36914062 c 5,6,7
 270 1078 270 1078 228.551757812 974.388671875 c 5,8,9
 411 884 411 884 718.150390625 832.391601562 c 5,10,11
 712 763 712 763 707.278320312 698.431640625 c 5,12,13
 280 448 280 448 221.903320312 335.17578125 c 1,14,15
 448 226 448 226 846.296875 271.969726562 c 1,16,-1
 878.603515625 55.0986328125 l 1,17,18
 370 18 370 18 93.431640625 234.61328125 c 1,19,20
 113 478 113 478 411.409179688 721.01171875 c 5,0,1
EndSplineSet
EndChar

StartChar: afii57397
Encoding: 1637 1637 61
Width: 1288
VWidth: 2452
GlyphClass: 2
Flags: W
LayerCount: 2
Fore
SplineSet
395.017578125 790.459960938 m 4,0,1
 238.513399954 517.110797643 238.513399954 517.110797643 321.46875 387.279296875 c 4,2,3
 395 273 395 273 578.728515625 252.891601562 c 0,4,5
 756 234 756 234 889.405273438 314.333984375 c 0,6,7
 966 360 966 360 996.319419606 443.794681084 c 0,8,9
 1027 527 1027 527 974.991210938 653.529296875 c 0,10,11
 902.014566464 833.963984432 902.014566464 833.963984432 626.331054688 1068.42480469 c 2,12,-1
 596.471679688 1093.81933594 l 1,13,14
 498 968 498 968 395.017578125 790.459960938 c 4,0,1
529.453125 1194.71679688 m 1,15,-1
 494.349609375 1226.25390625 l 1,16,17
 496.370273048 1269.57644849 496.370273048 1269.57644849 562.436523438 1420.26074219 c 1,18,19
 992.8201343 1016.17388295 992.8201343 1016.17388295 1095.28808594 716.196289062 c 0,20,21
 1214.48614999 364.580866091 1214.48614999 364.580866091 1017.44238281 173.658203125 c 0,22,23
 898.267188371 57.3572177196 898.267188371 57.3572177196 628.723632812 54.0068359375 c 0,24,25
 422.032226562 51.15234375 422.032226562 51.15234375 291.918457031 128.915039062 c 128,-1,26
 161.8046875 206.677734375 161.8046875 206.677734375 131.8046875 361.860351562 c 0,27,28
 76.9169921875 647.82421875 76.9169921875 647.82421875 504.96875 1165.12695312 c 2,29,-1
 529.453125 1194.71679688 l 1,15,-1
EndSplineSet
EndChar

StartChar: afii57398
Encoding: 1638 1638 62
Width: 1319
VWidth: 2451
GlyphClass: 2
Flags: W
LayerCount: 2
Fore
SplineSet
967.237304688 1446.89941406 m 1,0,1
 970 1043 970 1043 1012.58984375 710.369140625 c 0,2,3
 1035 534 1035 534 1158.9140625 14.03125 c 1,4,5
 913 14 913 14 848.482421875 716.576171875 c 0,6,7
 813.535103442 1106.18285274 813.535103442 1106.18285274 811.869140625 1225.70507812 c 2,8,-1
 811.293945312 1266.97167969 l 1,9,-1
 771.673828125 1255.41699219 l 2,10,11
 667 1225 667 1225 502.434570312 1225.36035156 c 0,12,13
 377 1226 377 1226 257.700195312 1242.53515625 c 0,14,15
 176 1254 176 1254 136.928710938 1293.54296875 c 0,16,17
 97.7333984375 1332.26337128 97.7333984375 1332.26337128 97.7333984375 1402.48046875 c 2,18,-1
 97.7333984375 1445.58300781 l 1,19,20
 301 1394 301 1394 488.9296875 1393.78613281 c 0,21,22
 729 1394 729 1394 967.237304688 1446.89941406 c 1,0,1
EndSplineSet
EndChar

StartChar: afii57399
Encoding: 1639 1639 63
Width: 1085
VWidth: 2451
GlyphClass: 2
Flags: W
LayerCount: 2
Fore
SplineSet
541.825195312 342.271484375 m 5,0,1
 610 680 610 680 866.44140625 1360.6328125 c 4,2,3
 918.044246396 1497.11702718 918.044246396 1497.11702718 967.806640625 1370 c 6,4,-1
 1014 1252 l 5,5,6
 676 471 676 471 574.328125 11.7177734375 c 5,7,-1
 510.65625 11.7177734375 l 5,8,9
 406 486 406 486 75 1248.93652344 c 5,10,-1
 117.177734375 1370 l 6,11,12
 164 1505 164 1505 218.54296875 1360.6328125 c 4,13,14
 476 692 476 692 541.825195312 342.271484375 c 5,0,1
EndSplineSet
EndChar

StartChar: afii57400
Encoding: 1640 1640 64
Width: 1085
VWidth: 2451
GlyphClass: 2
Flags: W
LayerCount: 2
Fore
SplineSet
547.174804688 1099.44628906 m 5,0,1
 479 761.717773438 479 761.717773438 222.55859375 81.0849609375 c 4,2,3
 170.956054688 -55.3994140625 170.956054688 -55.3994140625 121.193359375 71.7177734375 c 6,4,-1
 75 189.717773438 l 5,5,6
 413 970.717773438 413 970.717773438 514.671875 1430 c 5,7,-1
 578.34375 1430 l 5,8,9
 683 955.717773438 683 955.717773438 1014 192.78125 c 5,10,-1
 971.822265625 71.7177734375 l 6,11,12
 925 -63.2822265625 925 -63.2822265625 870.45703125 81.0849609375 c 4,13,14
 613 749.717773438 613 749.717773438 547.174804688 1099.44628906 c 5,0,1
EndSplineSet
EndChar

StartChar: afii57401
Encoding: 1641 1641 65
Width: 1245
VWidth: 2451
GlyphClass: 2
Flags: W
LayerCount: 2
Fore
SplineSet
780 675 m 1,0,1
 323 640 323 640 182.599609375 803.200195312 c 0,2,3
 98 902 98 902 98.2802734375 1014.29980469 c 0,4,5
 98 1205 98 1205 209.743164062 1327.38867188 c 0,6,7
 321 1450 321 1450 490.243164062 1449.82519531 c 0,8,9
 657 1450 657 1450 775.120117188 1336.6796875 c 0,10,11
 889 1227 889 1227 904.122070312 1024.19238281 c 0,12,13
 925.331664179 748.729495079 925.331664179 748.729495079 951.700195312 585.540039062 c 4,14,15
 998 299 998 299 1084.77734375 12.126953125 c 1,16,-1
 1075.61914062 12.126953125 l 2,17,18
 922 12 922 12 858.309570312 270.228515625 c 0,19,20
 824 409 824 409 780 675 c 1,0,1
759.860351562 850.8359375 m 1,21,-1
 751.596679688 950.31640625 l 2,22,23
 739 1102 739 1102 687.069335938 1176.58300781 c 0,24,25
 618 1277 618 1277 501.604492188 1277.671875 c 0,26,27
 406 1278 406 1278 331 1215.5 c 0,28,29
 254 1151 254 1151 249.123046875 1044.31738281 c 0,30,31
 245 950 245 950 335.08984375 893.708984375 c 24,32,33
 457 818 457 818 759.860351562 850.8359375 c 1,21,-1
EndSplineSet
EndChar

StartChar: afii57381
Encoding: 1642 1642 66
Width: 1517
VWidth: 3432
GlyphClass: 2
Flags: W
LayerCount: 2
Fore
SplineSet
928.860351562 389.670898438 m 0,0,1
 928.860351562 395.845361155 928.860351562 395.845361155 929.289682253 401.835808597 c 128,-1,2
 929.719012944 407.826256039 929.719012944 407.826256039 930.57848379 413.637391257 c 128,-1,3
 931.437954636 419.448526475 931.437954636 419.448526475 932.727129858 425.078388055 c 128,-1,4
 934.01630508 430.708249635 934.01630508 430.708249635 935.736863634 436.16187697 c 128,-1,5
 937.457422189 441.615504306 937.457422189 441.615504306 939.608000838 446.890577216 c 128,-1,6
 941.758579487 452.165650125 941.758579487 452.165650125 944.341784648 457.267566771 c 128,-1,7
 946.924989808 462.369483418 946.924989808 462.369483418 949.938530781 467.29556485 c 128,-1,8
 952.952071754 472.221646283 952.952071754 472.221646283 956.399482417 476.977649433 c 128,-1,9
 959.846893079 481.733652582 959.846893079 481.733652582 963.724955273 486.316539731 c 128,-1,10
 967.603017467 490.89942688 967.603017467 490.89942688 971.916134562 495.315291303 c 0,11,12
 1017.05797376 539.430664062 1017.05797376 539.430664062 1078.62011719 539.430664062 c 0,13,14
 1092.34109593 539.430664062 1092.34109593 539.430664062 1105.19370237 537.159971021 c 128,-1,15
 1118.04630881 534.889277981 1118.04630881 534.889277981 1130.08845276 530.339503736 c 128,-1,16
 1142.13059671 525.789729492 1142.13059671 525.789729492 1153.43655449 518.937471269 c 0,17,18
 1188.36619646 498.390456025 1188.36619646 498.390456025 1207.87556815 464.507301228 c 0,19,20
 1228.37988281 430.673481841 1228.37988281 430.673481841 1228.37988281 389.670898438 c 0,21,22
 1228.37988281 328.107808965 1228.37988281 328.107808965 1184.26451006 282.966914946 c 0,23,24
 1177.95589181 276.804952164 1177.95589181 276.804952164 1171.30525581 271.530288074 c 128,-1,25
 1164.65461982 266.255623984 1164.65461982 266.255623984 1157.64992599 261.859817762 c 128,-1,26
 1150.64523215 257.46401154 1150.64523215 257.46401154 1143.28789068 253.952004318 c 128,-1,27
 1135.9305492 250.439997096 1135.9305492 250.439997096 1128.21328353 247.806031179 c 128,-1,28
 1120.49601785 245.172065262 1120.49601785 245.172065262 1112.41515706 243.418219779 c 128,-1,29
 1104.33429627 241.664374295 1104.33429627 241.664374295 1095.88764491 240.787753554 c 128,-1,30
 1087.44099356 239.911132812 1087.44099356 239.911132812 1078.62011719 239.911132812 c 0,31,32
 1037.52296736 239.911132812 1037.52296736 239.911132812 1002.66806309 259.38851232 c 0,33,34
 967.814467603 279.890793975 967.814467603 279.890793975 948.349079122 313.697560363 c 0,35,36
 928.860351562 348.572772048 928.860351562 348.572772048 928.860351562 389.670898438 c 0,0,1
296.024414062 1246.92871094 m 0,37,38
 296.024414062 1308.49164342 296.024414062 1308.49164342 339.080197062 1352.5731038 c 0,39,40
 384.222036266 1396.68847656 384.222036266 1396.68847656 445.784179688 1396.68847656 c 0,41,42
 466.356428179 1396.68847656 466.356428179 1396.68847656 485.001196278 1391.5797756 c 128,-1,43
 503.645964378 1386.47107465 503.645964378 1386.47107465 520.600616986 1376.19528377 c 0,44,45
 555.530258959 1355.64826853 555.530258959 1355.64826853 575.039630648 1321.76511373 c 0,46,47
 581.903912487 1310.43847952 581.903912487 1310.43847952 586.455741715 1298.39370399 c 128,-1,48
 591.007570942 1286.34892846 591.007570942 1286.34892846 593.275758127 1273.50330235 c 128,-1,49
 595.543945312 1260.65767625 595.543945312 1260.65767625 595.543945312 1246.92871094 c 0,50,51
 595.543945312 1226.36021297 595.543945312 1226.36021297 590.655282132 1207.68493678 c 128,-1,52
 585.766618952 1189.00966059 585.766618952 1189.00966059 575.968208324 1172.1591464 c 128,-1,53
 566.169797695 1155.30863222 566.169797695 1155.30863222 551.428572558 1140.22472744 c 0,54,55
 507.348057519 1097.16894531 507.348057519 1097.16894531 445.784179688 1097.16894531 c 0,56,57
 425.222555018 1097.16894531 425.222555018 1097.16894531 406.229877546 1102.04454265 c 128,-1,58
 387.237200074 1106.92013999 387.237200074 1106.92013999 369.832125593 1116.64632482 c 0,59,60
 361.127247415 1121.76688302 361.127247415 1121.76688302 353.369695045 1127.73197435 c 128,-1,61
 345.612142675 1133.69706567 345.612142675 1133.69706567 338.819851087 1140.49019612 c 128,-1,62
 332.027559499 1147.28332657 332.027559499 1147.28332657 326.198315662 1154.90254977 c 128,-1,63
 320.369071826 1162.52177298 320.369071826 1162.52177298 315.513141622 1170.95537286 c 0,64,65
 305.771066008 1188.38888402 305.771066008 1188.38888402 300.897740035 1207.37157627 c 128,-1,66
 296.024414062 1226.35426853 296.024414062 1226.35426853 296.024414062 1246.92871094 c 0,37,38
1039.05904661 1538.78627278 m 1,67,-1
 1174.55647793 1468.97808775 l 1,68,-1
 432.384006813 32.4372641869 l 1,69,-1
 297.321679311 106.660761879 l 1,70,-1
 1039.05904661 1538.78627278 l 1,67,-1
EndSplineSet
EndChar

StartChar: uni066B
Encoding: 1643 1643 67
Width: 938
VWidth: 3435
GlyphClass: 2
Flags: W
LayerCount: 2
Fore
SplineSet
638.796875 639.668945312 m 1,0,-1
 758.693359375 565.4609375 l 1,1,-1
 185.013671875 -390.555664062 l 1,2,-1
 63.0546875 -309.609375 l 1,3,-1
 638.796875 639.668945312 l 1,0,-1
EndSplineSet
EndChar

StartChar: uni066C
Encoding: 1644 1644 68
Width: 539
VWidth: 3387
GlyphClass: 2
Flags: W
LayerCount: 2
Fore
SplineSet
254.902979427 297.616029867 m 0,0,1
 261.874011014 297.677647707 261.874011014 297.677647707 268.465918438 297.325717344 c 0,2,3
 409.366163792 289.803300648 409.366163792 289.803300648 398.074342356 89.2855053963 c 0,4,5
 383.355841257 -171.637508309 383.355841257 -171.637508309 124.35460321 -325.986188385 c 0,6,7
 79.0023426507 -353.038713392 79.0023426507 -353.038713392 59.160987689 -329.024937288 c 0,8,9
 52.8173246584 -318.897878593 52.8173246584 -318.897878593 70.6313450323 -305.564290923 c 0,10,11
 150.48550924 -247.392109035 150.48550924 -247.392109035 205.099351938 -161.001846363 c 0,12,13
 260.108416846 -73.9864061008 260.108416846 -73.9864061008 253.451524221 -0.0720120792025 c 2,14,-1
 253.10097362 3.82030476469 l 1,15,-1
 222.703057887 8.54262864321 l 1,16,-1
 222.485101947 8.55720905307 l 2,17,18
 157.113562721 12.9303123382 157.113562721 12.9303123382 125.220292183 60.033304844 c 0,19,20
 93.1257972843 107.433484482 93.1257972843 107.433484482 105.963354765 172.607428847 c 128,-1,21
 118.803119667 237.792579894 118.803119667 237.792579894 163.48862015 267.746689701 c 0,22,23
 208.613508961 297.995335457 208.613508961 297.995335457 254.902979427 297.616029867 c 0,0,1
EndSplineSet
EndChar

StartChar: afii63167
Encoding: 1645 1645 69
Width: 1289
VWidth: 2360
GlyphClass: 2
Flags: W
LayerCount: 2
Fore
SplineSet
143.533203125 858.200195312 m 1,0,-1
 525.563476562 858.200195312 l 1,1,-1
 644.826171875 1221.30761719 l 1,2,-1
 764.0859375 858.200195312 l 1,3,-1
 1146.1171875 858.200195312 l 1,4,-1
 837.489257812 632.583007812 l 1,5,-1
 955.581054688 269.793945312 l 1,6,-1
 644.826171875 494.34765625 l 1,7,-1
 334.068359375 269.793945312 l 1,8,-1
 452.16015625 632.583007812 l 1,9,-1
 143.533203125 858.200195312 l 1,0,-1
EndSplineSet
EndChar

StartChar: uni066E
Encoding: 1646 1646 70
Width: 1764
VWidth: 2471
GlyphClass: 2
Flags: W
AnchorPoint: "Anchor-10" 804.34 1180.13 basechar 0
AnchorPoint: "Anchor-7" 541.037 -262.897 basechar 0
LayerCount: 2
Fore
SplineSet
789 -43.47265625 m 4,0,1
 457 -43 457 -43 281.400390625 68.4404296875 c 0,2,3
 100 184 100 184 102.040039062 455.759765625 c 0,4,5
 103 587 103 587 140.919921875 671.759765625 c 0,6,7
 163 721 163 721 192.759765625 717.66015625 c 0,8,9
 223 714 223 714 207.145507812 643.064453125 c 0,10,11
 193 578 193 578 194.919921875 490.3203125 c 0,12,13
 203 149 203 149 801 150.458984375 c 0,14,15
 1145 151 1145 151 1340.79980469 213.383789062 c 0,16,17
 1443 246 1443 246 1503.15625 293.32421875 c 0,18,19
 1586 357 1586 357 1553.796875 438.475585938 c 0,20,21
 1497 582 1497 582 1487.10742188 612.040039062 c 0,22,23
 1434 773 1434 773 1569.44628906 837.56640625 c 2,24,-1
 1586.03613281 845.49609375 l 1,25,26
 1656 637 1656 637 1664.97265625 459.475585938 c 0,27,28
 1676 223 1676 223 1465.91796875 97.853515625 c 0,29,30
 1227 -44 1227 -44 789 -43.47265625 c 4,0,1
EndSplineSet
Substitution2: "'init' Initial Forms in Arabic lookup 13 subtable" uni066E.init
Substitution2: "'medi' Medial Forms in Arabic lookup 11 subtable" uni066E.medi
Substitution2: "'fina' Terminal Forms in Arabic lookup 9 subtable" uni066E.fina
EndChar

StartChar: uni066F
Encoding: 1647 1647 71
Width: 1409
VWidth: 2491
GlyphClass: 2
Flags: W
AnchorPoint: "Anchor-10" 354.999 1265.61 basechar 0
AnchorPoint: "Anchor-7" 496.955 -621.591 basechar 0
LayerCount: 2
Fore
SplineSet
1006.546875 770.423828125 m 0,0,1
 1175.29707055 772.97426249 1175.29707055 772.97426249 1254.22070312 576.637695312 c 0,2,3
 1319 415 1319 415 1318.24902344 232.52734375 c 0,4,5
 1318 54 1318 54 1292.25683594 -37.7998046875 c 0,6,7
 1178 -453 1178 -453 659.930664062 -463.7109375 c 0,8,9
 345 -470 345 -470 187.1328125 -264.81640625 c 0,10,11
 56 -94 56 -94 114.48046875 196.559570312 c 0,12,13
 135 299 135 299 190.567382812 419.075195312 c 0,14,15
 219 481 219 481 255.419921875 470.33984375 c 0,16,17
 292 460 292 460 265.825195312 389.879882812 c 0,18,19
 180 154 180 154 235.631835938 -27.3291015625 c 0,20,21
 313 -282 313 -282 665.359375 -280.587890625 c 0,22,23
 1168 -279 1168 -279 1195.05664062 66.994140625 c 0,24,25
 1197 92 1197 92 1197.79296875 117.440429688 c 1,26,27
 1086 86 1086 86 996.59375 86.4560546875 c 0,28,29
 820 87 820 87 748.654296875 186.858398438 c 0,30,31
 667 300 667 300 732.548828125 489.086914062 c 0,32,33
 829 767 829 767 1006.546875 770.423828125 c 0,0,1
835.138671875 404.26953125 m 0,34,35
 806 263 806 263 1014.59375 268.086914062 c 0,36,37
 1099 270 1099 270 1200.13769531 294.112304688 c 1,38,39
 1186 408 1186 408 1144.58007812 488.140625 c 4,40,41
 1096 585 1096 585 1010.9140625 585.59375 c 0,42,43
 873 586 873 586 835.138671875 404.26953125 c 0,34,35
EndSplineSet
Substitution2: "'init' Initial Forms in Arabic lookup 13 subtable" uni066F.init
Substitution2: "'medi' Medial Forms in Arabic lookup 11 subtable" uni066F.medi
Substitution2: "'fina' Terminal Forms in Arabic lookup 9 subtable" uni066F.fina
EndChar

StartChar: uni0670
Encoding: 1648 1648 72
Width: 0
VWidth: 2655
GlyphClass: 4
Flags: W
AnchorPoint: "Anchor-10" 675.06 1564.84 mark 0
AnchorPoint: "Anchor-9" 675.06 1564.84 mark 0
AnchorPoint: "Anchor-1" 664.561 2244.49 basemark 0
AnchorPoint: "Anchor-1" 675.06 1564.84 mark 0
LayerCount: 2
Fore
SplineSet
655.760742188 1614.21386719 m 1,0,-1
 606.6328125 2121.61425781 l 5,1,-1
 722.418945312 2189.80078125 l 5,2,-1
 722.418945312 1614.21386719 l 1,3,-1
 655.760742188 1614.21386719 l 1,0,-1
EndSplineSet
EndChar

StartChar: uni0674
Encoding: 1652 1652 73
Width: 690
VWidth: 2360
GlyphClass: 2
Flags: W
LayerCount: 2
Fore
SplineSet
232.438934885 1669.73930398 m 1,0,1
 142 1727 142 1727 142 1827.5 c 128,-1,2
 142 1928 142 1928 202.843261719 1984.97900391 c 0,3,4
 264 2042 264 2042 351.913085938 2042.06542969 c 4,5,6
 514 2042 514 2042 514.046875 1913 c 0,7,8
 514 1892 514 1892 459 1910.69522616 c 0,9,10
 407 1929 407 1929 367.609212832 1924.5121335 c 0,11,12
 260 1912 260 1912 252.63642297 1832.841186 c 0,13,14
 245 1753 245 1753 360.923692855 1717.87216059 c 0,15,16
 396 1707 396 1707 538.314453125 1740.05023572 c 1,17,-1
 534.41015625 1619.42871094 l 1,18,-1
 140.0234375 1530.88593699 l 1,19,-1
 140.0234375 1648.41323107 l 1,20,-1
 232.438934885 1669.73930398 l 1,0,1
EndSplineSet
EndChar

StartChar: uni06A1
Encoding: 1697 1697 77
Width: 1738
VWidth: 2491
GlyphClass: 2
Flags: W
AnchorPoint: "Anchor-10" 505.175 1372.5 basechar 0
AnchorPoint: "Anchor-7" 627.668 -205.226 basechar 0
LayerCount: 2
Fore
SplineSet
789 -43.47265625 m 4,0,1
 457 -43 457 -43 281.400390625 68.4404296875 c 0,2,3
 100 184 100 184 102.040039062 455.759765625 c 0,4,5
 103 587 103 587 140.919921875 671.759765625 c 0,6,7
 163 721 163 721 192.759765625 717.66015625 c 0,8,9
 223 714 223 714 207.145507812 643.064453125 c 0,10,11
 193 578 193 578 194.919921875 490.3203125 c 0,12,13
 203 149 203 149 801 150.458984375 c 0,14,15
 1233 152 1233 152 1379 236.9140625 c 0,16,17
 1480 296 1480 296 1514.99414062 397.403320312 c 1,18,19
 1403 366 1403 366 1313.79492188 366.418945312 c 0,20,21
 1137 367 1137 367 1065.85546875 466.821289062 c 0,22,23
 991 570 991 570 1049.75 739.049804688 c 0,24,25
 1146 1017 1146 1017 1323.74804688 1020.38671875 c 0,26,27
 1494 1023 1494 1023 1570.421875 826.600585938 c 0,28,29
 1643 638 1643 638 1627.55273438 444.02734375 c 0,30,31
 1615 292 1615 292 1560.17382812 199 c 0,32,33
 1417 -44 1417 -44 789 -43.47265625 c 4,0,1
1153.33984375 654.232421875 m 0,34,35
 1130 543 1130 543 1331.79492188 548.049804688 c 0,36,37
 1416 550 1416 550 1517.33886719 574.075195312 c 1,38,39
 1508 656 1508 656 1466.78125 734.103515625 c 0,40,41
 1414 835 1414 835 1328.11523438 835.556640625 c 0,42,43
 1191 836 1191 836 1153.33984375 654.232421875 c 0,34,35
EndSplineSet
Substitution2: "'init' Initial Forms in Arabic lookup 13 subtable" uni06A1.init
Substitution2: "'medi' Medial Forms in Arabic lookup 11 subtable" uni06A1.medi
Substitution2: "'fina' Terminal Forms in Arabic lookup 9 subtable" uni06A1.fina
EndChar

StartChar: uni06A9
Encoding: 1705 1705 78
Width: 2001
VWidth: 2471
GlyphClass: 2
Flags: W
AnchorPoint: "Anchor-10" 1254.27 1477.11 basechar 0
AnchorPoint: "Anchor-7" 827.068 -268.854 basechar 0
LayerCount: 2
Fore
SplineSet
801 150.458984375 m 0,0,1
 1122 152 1122 152 1323.80078125 208.71875 c 0,2,3
 1524 266 1524 266 1510.36035156 340.740234375 c 0,4,5
 1503 382 1503 382 1459.59960938 442.462890625 c 0,6,7
 1108 932 1108 932 1091.62988281 994.095703125 c 0,8,9
 1042.97400446 1172.09510034 1042.97400446 1172.09510034 1223.171875 1235.56054688 c 2,10,-1
 1957.66503906 1494.24804688 l 1,11,-1
 1957.66503906 1470.09863281 l 2,12,13
 1957.9994144 1305.28863352 1957.9994144 1305.28863352 1719.87988281 1229.46289062 c 2,14,-1
 1239.28027344 1076.42285156 l 1,15,16
 1280 979 1280 979 1575.88183594 523.799804688 c 0,17,18
 1749 258 1749 258 1474.55761719 102.173828125 c 0,19,20
 1217 -44 1217 -44 789 -43.47265625 c 24,21,22
 457 -43 457 -43 281.400390625 68.4404296875 c 0,23,24
 100 185 100 185 102.040039062 455.759765625 c 0,25,26
 103 587 103 587 140.919921875 671.759765625 c 0,27,28
 163 721 163 721 192.759765625 717.66015625 c 0,29,30
 223 714 223 714 207.145507812 643.064453125 c 0,31,32
 193 578 193 578 194.919921875 490.3203125 c 0,33,34
 203 149 203 149 801 150.458984375 c 0,0,1
EndSplineSet
Substitution2: "'init' Initial Forms in Arabic lookup 13 subtable" uniFB90
Substitution2: "'medi' Medial Forms in Arabic lookup 11 subtable" uniFB91
Substitution2: "'fina' Terminal Forms in Arabic lookup 9 subtable" uniFB8F
EndChar

StartChar: afii57514
Encoding: 1722 1722 80
Width: 1369
VWidth: 2501
GlyphClass: 2
Flags: W
AnchorPoint: "Anchor-10" 634.998 1076.75 basechar 0
AnchorPoint: "Anchor-7" 330.305 -818.087 basechar 0
LayerCount: 2
Fore
SplineSet
1261.28417969 252.587890625 m 4,0,1
 1292 46 1292 46 1252.25683594 -119.879882812 c 0,2,3
 1150 -539 1150 -539 664.930664062 -545.791015625 c 0,4,5
 342 -550 342 -550 187.1328125 -346.896484375 c 0,6,7
 56 -176 56 -176 114.48046875 114.48046875 c 0,8,9
 135 217 135 217 190.567382812 336.994140625 c 0,10,11
 219 399 219 399 255.419921875 388.259765625 c 0,12,13
 292 378 292 378 265.825195312 307.799804688 c 0,14,15
 180 72 180 72 235.631835938 -109.409179688 c 0,16,17
 313 -364 313 -364 665.360351562 -362.66796875 c 0,18,19
 1124 -361 1124 -361 1155.05664062 -15.0859375 c 0,20,21
 1164 88 1164 88 1102.65332031 237.984375 c 4,22,23
 991.165653018 512.591976592 991.165653018 512.591976592 1145.50878906 552.739257812 c 6,24,-1
 1180.71679688 561.897460938 l 5,25,26
 1245 355 1245 355 1261.28417969 252.587890625 c 4,0,1
EndSplineSet
Substitution2: "'init' Initial Forms in Arabic lookup 13 subtable" uni06BA.init
Substitution2: "'medi' Medial Forms in Arabic lookup 11 subtable" uni06BA.medi
Substitution2: "'fina' Terminal Forms in Arabic lookup 9 subtable" uniFB9F
EndChar

StartChar: uni06F4
Encoding: 1780 1780 87
Width: 1095
VWidth: 2451
GlyphClass: 2
Flags: W
LayerCount: 2
Fore
SplineSet
474.412109375 400 m 1048,0,-1
359.637695312 18.41796875 m 1,1,2
 347 722 347 722 127.987304688 1220.265625 c 0,3,4
 55 1386 55 1386 206.680664062 1452.84863281 c 1,5,6
 317.23088931 1191.18730804 317.23088931 1191.18730804 325.197265625 1166.49121094 c 2,7,-1
 344.02734375 1108.1171875 l 1,8,9
 451 1471 451 1471 733 1471.63085938 c 0,10,11
 862 1472 862 1472 933.041992188 1319 c 0,12,13
 952 1278 952 1278 907 1286.74609375 c 0,14,15
 821 1305 821 1305 775 1303.88867188 c 0,16,17
 638 1301 638 1301 567.745117188 1229.36035156 c 0,18,19
 448 1108 448 1108 500.8046875 1022.60058594 c 0,20,21
 575.012388232 902.74984928 575.012388232 902.74984928 812.912109375 939.505859375 c 0,22,23
 823 941 823 941 919.416015625 972.934570312 c 0,24,25
 1029 1009 1029 1009 993 936 c 2,26,-1
 923 822 l 1,27,28
 838 774 838 774 739.25 773.502929688 c 0,29,30
 546 772 546 772 404.263671875 888.819335938 c 1,31,32
 476 576 476 576 474.412109375 400 c 0,33,34
 472 77 472 77 359.637695312 18.41796875 c 1,1,2
EndSplineSet
EndChar

StartChar: uni06F5
Encoding: 1781 1781 88
Width: 1232
VWidth: 2300
GlyphClass: 2
Flags: W
LayerCount: 2
Fore
SplineSet
658.831054688 401.984375 m 0,0,1
 725 187 725 187 876.66015625 186.83984375 c 4,2,3
 989 187 989 187 989.142578125 321 c 4,4,5
 988 657 988 657 581.952148438 1131.78808594 c 1,6,7
 236 558 236 558 256.594919724 317 c 0,8,9
 267 193 267 193 380.883789062 187.603515625 c 0,10,11
 514 182 514 182 570.719726562 398.840820312 c 0,12,13
 583 446 583 446 613.120117188 445.559570312 c 0,14,15
 645 446 645 446 658.831054688 401.984375 c 0,0,1
375.548828125 10.6806640625 m 0,16,17
 101 11 101 11 104.1796875 315 c 0,18,19
 109 700 109 700 470.079101562 1228.37207031 c 1,20,-1
 446.391601562 1248.93945312 l 2,21,22
 409 1281 409 1281 491.625 1455.72851562 c 1,23,24
 1133 836 1133 836 1127.33308056 329 c 0,25,26
 1124 7 1124 7 870.758789062 11.2236328125 c 0,27,28
 695 14 695 14 617.458007812 200.500976562 c 1,29,30
 547 11 547 11 375.548828125 10.6806640625 c 0,16,17
EndSplineSet
EndChar

StartChar: uni06F6
Encoding: 1782 1782 89
Width: 1079
VWidth: 2451
GlyphClass: 2
Flags: W
LayerCount: 2
Fore
SplineSet
78.6513671875 6.48046875 m 1,0,1
 211 423 211 423 487.69140625 705.907226562 c 1,2,3
 201 780 201 780 203.931640625 998.400390625 c 0,4,5
 206 1147 206 1147 283 1264 c 0,6,7
 403 1447 403 1447 611 1447.44921875 c 0,8,9
 807 1448 807 1448 868 1302.08007812 c 0,10,11
 902 1221 902 1221 836 1244.38769531 c 0,12,13
 756 1273 756 1273 664 1272.80273438 c 0,14,15
 499 1273 499 1273 415 1159 c 0,16,17
 356 1079 356 1079 355.418945312 1024 c 4,18,19
 354 897 354 897 665.891601562 842.547851562 c 1,20,21
 795 892 795 892 913.481445312 926.459960938 c 0,22,23
 984 947 984 947 972.154296875 910.989257812 c 2,24,-1
 920 752 l 1,25,26
 729 698 729 698 564.46484375 534.23046875 c 0,27,28
 399 369 399 369 248 124 c 0,29,30
 175.297239142 6.48046875 175.297239142 6.48046875 102.484375 6.48046875 c 2,31,-1
 78.6513671875 6.48046875 l 1,0,1
EndSplineSet
EndChar

StartChar: uniFB8F
Encoding: 64399 64399 104
Width: 2016
VWidth: 2471
GlyphClass: 2
Flags: W
AnchorPoint: "Anchor-7" 827.068 -268.854 basechar 0
AnchorPoint: "Anchor-10" 1254.27 1477.11 basechar 0
LayerCount: 2
Fore
SplineSet
801 150.458984375 m 0,0,1
 1122 152 1122 152 1323.80078125 208.71875 c 0,2,3
 1524 266 1524 266 1507.17578125 341.020507812 c 24,4,5
 1497 386 1497 386 1463.5859375 433.080078125 c 0,6,7
 1108 933 1108 933 1092.06640625 992.240234375 c 0,8,9
 1044 1173 1044 1173 1220.67773438 1234.81738281 c 2,10,-1
 1955.17089844 1493.50585938 l 1,11,-1
 1955.17089844 1469.35644531 l 2,12,13
 1955.17089844 1304.05414378 1955.17089844 1304.05414378 1717.38671875 1228.71972656 c 2,14,-1
 1236.78613281 1075.6796875 l 1,15,16
 1522 588 1522 588 1747.31445312 296.665039062 c 0,17,18
 1831 188 1831 188 2004.59375 188 c 2,19,-1
 2021.02636719 188 l 2,20,21
 2056 188 2056 188 2056.07910156 98 c 2,22,-1
 2056.07910156 92 l 2,23,24
 2056.07910156 0 2056.07910156 0 2021.02636719 0 c 2,25,-1
 1980.12011719 0 l 2,26,27
 1775 0 1775 0 1610.46679688 218.16015625 c 1,28,29
 1564 152 1564 152 1474.55761719 102.173828125 c 0,30,31
 1212 -44 1212 -44 789 -43.47265625 c 24,32,33
 457 -43 457 -43 281.400390625 68.4404296875 c 0,34,35
 100 184 100 184 102.040039062 455.759765625 c 0,36,37
 103 587 103 587 140.919921875 671.759765625 c 0,38,39
 163 721 163 721 192.759765625 717.66015625 c 0,40,41
 223 714 223 714 207.145507812 643.064453125 c 0,42,43
 193 578 193 578 194.919921875 490.3203125 c 0,44,45
 203 149 203 149 801 150.458984375 c 0,0,1
EndSplineSet
EndChar

StartChar: uniFB9F
Encoding: 64415 64415 112
Width: 1441
VWidth: 2501
GlyphClass: 2
Flags: W
AnchorPoint: "Anchor-10" 364.705 813.531 basechar 0
AnchorPoint: "Anchor-7" 256.66 -803.562 basechar 0
LayerCount: 2
Fore
SplineSet
1425.09375 0 m 2,0,1
 1313 0 1313 0 1269.77050781 68.0400390625 c 1,2,3
 1272 -40 1272 -40 1252.25683594 -119.879882812 c 0,4,5
 1148 -544 1148 -544 661.930664062 -545.791015625 c 0,6,7
 343 -547 343 -547 187.1328125 -346.896484375 c 0,8,9
 56 -178 56 -178 114.48046875 114.48046875 c 0,10,11
 135 217 135 217 190.567382812 336.994140625 c 0,12,13
 219 399 219 399 255.419921875 388.259765625 c 0,14,15
 292 378 292 378 265.825195312 307.799804688 c 0,16,17
 179 75 179 75 235.631835938 -109.409179688 c 0,18,19
 313 -364 313 -364 665.360351562 -362.66796875 c 0,20,21
 1124 -361 1124 -361 1155.05664062 -15.0859375 c 0,22,23
 1164 84 1164 84 1092.65332031 257.984375 c 0,24,25
 988.98942972 512.025903813 988.98942972 512.025903813 1145.50878906 552.739257812 c 2,26,-1
 1180.71679688 561.897460938 l 1,27,28
 1216 386 1216 386 1248.03222656 291.599609375 c 0,29,30
 1284 183 1284 183 1429.56738281 183 c 2,31,-1
 1446 183 l 2,32,33
 1481.05273438 183 1481.05273438 183 1481.05273438 98 c 6,34,-1
 1481.05273438 92 l 6,35,36
 1481 0 1481 0 1446 0 c 2,37,-1
 1425.09375 0 l 2,0,1
EndSplineSet
EndChar

StartChar: uniFBE8
Encoding: 64488 64488 115
Width: 584
VWidth: 2473
GlyphClass: 2
Flags: W
AnchorPoint: "Anchor-10" 242.869 1140.81 basechar 0
AnchorPoint: "Anchor-7" 248.422 -233.744 basechar 0
LayerCount: 2
Fore
SplineSet
18.8798828125 183 m 2,0,1
 378 183 378 183 344.639648438 366.439453125 c 0,2,3
 341 386 341 386 325.83984375 427.120117188 c 0,4,5
 291 522 291 522 282.37890625 554.717773438 c 0,6,7
 240.045352202 706.837033681 240.045352202 706.837033681 393.6328125 780.275390625 c 2,8,-1
 410.216796875 788.205078125 l 1,9,10
 487 559 487 559 486.354492188 367 c 4,11,12
 486 213 486 213 402.73046875 117.666992188 c 0,13,14
 301 0 301 0 20.0927734375 0 c 2,15,-1
 -4.947265625 0 l 2,16,17
 -80 0 -80 0 -80 92 c 2,18,-1
 -80 98 l 2,19,20
 -80 183 -80 183 -4.947265625 183 c 2,21,-1
 18.8798828125 183 l 2,0,1
EndSplineSet
EndChar

StartChar: uniFBE9
Encoding: 64489 64489 116
Width: 717
VWidth: 2477
GlyphClass: 2
Flags: W
AnchorPoint: "Anchor-10" 341.202 1085.49 basechar 0
AnchorPoint: "Anchor-7" 320.596 -156.627 basechar 0
LayerCount: 2
Fore
SplineSet
722 0 m 2,0,-1
 701.09375 0 l 2,1,2
 475 0 475 0 395.959960938 164.803710938 c 1,3,4
 284 0 284 0 20.0927734375 0 c 2,5,-1
 -4.947265625 0 l 2,6,7
 -80 0 -80 0 -80 92 c 2,8,-1
 -80 98 l 2,9,10
 -80 183 -80 183 -4.947265625 183 c 2,11,-1
 18.8798828125 183 l 2,12,13
 165 183 165 183 242.600585938 213.803710938 c 0,14,15
 310.334114148 241.13481816 310.334114148 241.13481816 325.760742188 361.36328125 c 2,16,-1
 339.120117188 465.48046875 l 2,17,18
 352.029927165 563.226592362 352.029927165 563.226592362 463.28125 567.498046875 c 2,19,-1
 478.440429688 568.080078125 l 1,20,-1
 461.940429688 438.5390625 l 2,21,22
 429 183 429 183 705.567382812 183 c 2,23,-1
 722 183 l 2,24,25
 757.052734375 183 757.052734375 183 757.052734375 98 c 6,26,-1
 757.052734375 92 l 6,27,28
 757 0 757 0 722 0 c 2,0,-1
EndSplineSet
EndChar

StartChar: uniFE73
Encoding: 65139 65139 124
Width: 618
VWidth: 2360
GlyphClass: 2
Flags: W
AnchorPoint: "Anchor-10" 227.653 1373.86 basechar 0
AnchorPoint: "Anchor-7" 227.653 -128.42 basechar 0
LayerCount: 2
Fore
SplineSet
319.928710938 370.798828125 m 2,0,1
 319.928710938 301.426757812 319.928710938 301.426757812 380.665039062 240.689453125 c 0,2,3
 435.622070312 185.73046875 435.622070312 185.73046875 555.84375 185.73046875 c 2,4,-1
 628.473632812 185.73046875 l 5,5,-1
 628.473632812 1.1796875 l 1,6,-1
 492.28515625 1.1796875 l 2,7,8
 334.006835938 1.1796875 334.006835938 1.1796875 231.803710938 103.383789062 c 0,9,10
 135.377929688 199.80859375 135.377929688 199.80859375 135.377929688 356.931640625 c 2,11,-1
 135.377929688 392.583007812 l 1,12,-1
 319.928710938 392.583007812 l 1,13,-1
 319.928710938 370.798828125 l 2,0,1
EndSplineSet
EndChar

StartChar: uniFE8E
Encoding: 65166 65166 150
Width: 564
VWidth: 2448
GlyphClass: 2
Flags: W
AnchorPoint: "Anchor-10" 203.317 1637.96 basechar 0
AnchorPoint: "Anchor-7" 260.601 -284.03 basechar 0
LayerCount: 2
Fore
SplineSet
548.125976562 -0.1083984375 m 6,0,1
 205.014270569 -0.1083984375 205.014270569 -0.1083984375 180.142578125 422.80078125 c 2,2,-1
 139.038085938 1121.7265625 l 2,3,4
 122.013242731 1407.77749601 122.013242731 1407.77749601 286.94921875 1496.58398438 c 2,5,-1
 303.657226562 1505.58007812 l 1,6,7
 315 1233 315 1233 302.400390625 676.3203125 c 0,8,9
 295 347 295 347 366.872070312 257.046875 c 0,10,11
 427.088022265 182.891601562 427.088022265 182.891601562 552.599609375 182.891601562 c 6,12,-1
 569.032226562 182.891601562 l 6,13,14
 604.084960938 183.000263375 604.084960938 183.000263375 604.084960938 97.8916015625 c 6,15,-1
 604.084960938 91.8916015625 l 6,16,17
 603.999899777 -0.1083984375 603.999899777 -0.1083984375 569.032226562 -0.1083984375 c 6,18,-1
 548.125976562 -0.1083984375 l 6,0,1
EndSplineSet
EndChar

StartChar: uniFEA2
Encoding: 65186 65186 170
Width: 1257
VWidth: 2474
GlyphClass: 2
Flags: W
AnchorPoint: "Anchor-7" 611.843 -857.215 basechar 0
AnchorPoint: "Anchor-10" 581.688 1232.94 basechar 0
LayerCount: 2
Fore
SplineSet
802 386.974609375 m 1,0,1
 203 222 203 222 206.396484375 -159.360351562 c 0,2,3
 209 -461 209 -461 707.346679688 -461.000976562 c 0,4,5
 917 -461 917 -461 1065 -425.177734375 c 0,6,7
 1103 -416 1103 -416 1081 -457.633789062 c 0,8,9
 980 -647 980 -647 670.318359375 -646.75 c 0,10,11
 101 -647 101 -647 101.49609375 -166.178710938 c 0,12,13
 102 389 102 389 808.16015625 560.397460938 c 1,14,15
 682 602 682 602 631.959960938 620.796875 c 0,16,17
 473 680 473 680 361.9765625 661.044921875 c 8,18,19
 241 640 241 640 160.959960938 543.133789062 c 0,20,21
 125 500 125 500 108.959960938 506.796875 c 0,22,23
 88 516 88 516 103.7421875 566.2578125 c 0,24,25
 187 830 187 830 401.919921875 842.396484375 c 24,26,27
 538 850 538 850 820.959960938 719.357421875 c 0,28,29
 923 672 923 672 1008.24023438 654.59765625 c 0,30,31
 1075 641 1075 641 1123.16992188 646.0625 c 1,32,-1
 1076 446 l 1,33,34
 985 431 985 431 903 412.267578125 c 1,35,36
 917 188 917 188 1245.56738281 188 c 2,37,-1
 1262 188 l 2,38,39
 1297.05273438 188 1297.05273438 188 1297.05273438 98 c 2,40,-1
 1297.05273438 92 l 2,41,42
 1297 0 1297 0 1262 0 c 2,43,-1
 1241.09375 0 l 2,44,45
 820 0 820 0 802 386.974609375 c 1,0,1
EndSplineSet
EndChar

StartChar: uniFEA3
Encoding: 65187 65187 171
Width: 1349
VWidth: 2474
GlyphClass: 2
Flags: W
AnchorPoint: "Anchor-10" 544.819 1152.41 basechar 0
AnchorPoint: "Anchor-7" 493.893 -260.763 basechar 0
LayerCount: 2
Fore
SplineSet
1253.65625 529.91796875 m 1,0,-1
 1211.19042969 368.11328125 l 1,1,2
 1094 368 1094 368 955 312 c 0,3,4
 770 238 770 238 526.5 125 c 0,5,6
 257 0 257 0 50.0927734375 0 c 2,7,-1
 -4.947265625 0 l 2,8,9
 -80 0 -80 0 -80 92 c 2,10,-1
 -80 98 l 2,11,12
 -80 183 -80 183 -4.947265625 183 c 2,13,-1
 58.8798828125 183 l 2,14,15
 276 183 276 183 586 309 c 0,16,17
 670 343 670 343 905.166015625 439.932617188 c 1,18,19
 844 472 844 472 690 540 c 0,20,21
 515 617 515 617 390.016601562 600.248046875 c 0,22,23
 273 585 273 585 189 482.336914062 c 0,24,25
 153 439 153 439 137 446 c 0,26,27
 116 455 116 455 131.782226562 505.4609375 c 0,28,29
 217 777 217 777 429.959960938 777.599609375 c 0,30,31
 572 778 572 778 811 662 c 0,32,33
 1070 536 1070 536 1120 530 c 128,-1,34
 1170 524 1170 524 1253.65625 529.91796875 c 1,0,-1
EndSplineSet
EndChar

StartChar: uniFEA4
Encoding: 65188 65188 172
Width: 1359
VWidth: 2474
GlyphClass: 2
Flags: W
AnchorPoint: "Anchor-7" 493.893 -260.763 basechar 0
AnchorPoint: "Anchor-10" 544.819 1152.41 basechar 0
LayerCount: 2
Fore
SplineSet
866 275.560546875 m 1,0,1
 716 213 716 213 526.5 125 c 0,2,3
 257 0 257 0 50.0927734375 0 c 2,4,-1
 -4.947265625 0 l 2,5,6
 -80 0 -80 0 -80 92 c 2,7,-1
 -80 98 l 2,8,9
 -80 183 -80 183 -4.947265625 183 c 2,10,-1
 58.8798828125 183 l 2,11,12
 276 183 276 183 586 309 c 0,13,14
 670 343 670 343 905.166015625 439.932617188 c 1,15,16
 844 472 844 472 690 540 c 0,17,18
 515 617 515 617 390.016601562 600.248046875 c 0,19,20
 273 585 273 585 189 482.336914062 c 0,21,22
 153 439 153 439 137 446 c 0,23,24
 116 455 116 455 131.782226562 505.4609375 c 0,25,26
 217 777 217 777 429.959960938 777.599609375 c 0,27,28
 572 778 572 778 811 662 c 0,29,30
 1070 536 1070 536 1120 530 c 128,-1,31
 1170 524 1170 524 1253.65625 529.91796875 c 1,32,-1
 1211.19042969 368.11328125 l 1,33,34
 1097 368 1097 368 962 314.790039062 c 1,35,36
 974 183 974 183 1172.06640625 183 c 2,37,-1
 1364 183 l 2,38,39
 1399.05273438 183 1399.05273438 183 1399.05273438 98 c 2,40,-1
 1399.05273438 92 l 2,41,42
 1399 0 1399 0 1364 0 c 2,43,-1
 1169.41015625 0 l 2,44,45
 886 0 886 0 866 275.560546875 c 1,0,1
EndSplineSet
EndChar

StartChar: uniFEAA
Encoding: 65194 65194 178
Width: 1132
VWidth: 2467
GlyphClass: 2
Flags: W
AnchorPoint: "Anchor-10" 548.198 1228.83 basechar 0
AnchorPoint: "Anchor-7" 413.75 -278.564 basechar 0
LayerCount: 2
Fore
SplineSet
1120.56738281 183 m 2,0,1
 1137 183 l 2,2,3
 1172.05273438 183 1172.05273438 183 1172.05273438 98 c 2,4,-1
 1172.05273438 92 l 2,5,6
 1172 0 1172 0 1137 0 c 2,7,-1
 1116.09375 0 l 2,8,9
 961 0 961 0 838.416992188 163.204101562 c 1,10,11
 673 -28 673 -28 385 -31.4970703125 c 0,12,13
 327 -32 327 -32 309.008789062 -31.1240234375 c 0,14,15
 65.466796875 -20.0212806243 65.466796875 -20.0212806243 65.466796875 191.30078125 c 2,16,-1
 65.466796875 221.221679688 l 1,17,18
 193 167 193 167 361.09765625 162.935546875 c 0,19,20
 521 159 521 159 656.639648438 219.240234375 c 0,21,22
 761.708973861 266.420281102 761.708973861 266.420281102 744.413085938 345.032226562 c 0,23,24
 741.841245382 355.655770288 741.841245382 355.655770288 733.140625 369.313476562 c 2,25,-1
 592.823242188 589.575195312 l 2,26,27
 427.037302522 849.941416523 427.037302522 849.941416523 576.795898438 929.463867188 c 2,28,-1
 598.403320312 940.9375 l 1,29,-1
 854.26171875 441.012695312 l 2,30,31
 986 183 986 183 1120.56738281 183 c 2,0,1
EndSplineSet
EndChar

StartChar: uniFEAE
Encoding: 65198 65198 182
Width: 990
VWidth: 2499
GlyphClass: 2
Flags: W
AnchorPoint: "Anchor-10" 651.056 1007.93 basechar 0
AnchorPoint: "Anchor-7" 441.147 -657.422 basechar 0
LayerCount: 2
Fore
SplineSet
964.09375 0 m 2,0,1
 842 0 842 0 790 61 c 1,2,3
 755 -243 755 -243 567 -381 c 0,4,5
 461 -459 461 -459 375 -459 c 0,6,7
 238 -459 238 -459 73 -418.690429688 c 0,8,9
 16 -405 16 -405 8.65234375 -371 c 0,10,11
 3 -345 3 -345 89 -330.262695312 c 0,12,13
 705 -225 705 -225 671.178710938 131.9609375 c 0,14,15
 666 187 666 187 618.494140625 304.325195312 c 0,16,17
 554.199226715 464.503664779 554.199226715 464.503664779 669.220703125 552.122070312 c 2,18,-1
 709.796875 583.03125 l 1,19,20
 758 432 758 432 793.0703125 300.6015625 c 0,21,22
 824 183 824 183 968.567382812 183 c 2,23,-1
 995 183 l 2,24,25
 1030.05273438 183 1030.05273438 183 1030.05273438 98 c 2,26,-1
 1030.05273438 92 l 2,27,28
 1030 0 1030 0 995 0 c 2,29,-1
 964.09375 0 l 2,0,1
EndSplineSet
PairPos2: "'kern' Horizontal Kerning lookup 15-1" uniFB7C dx=-150 dy=0 dh=-150 dv=0 dx=0 dy=0 dh=0 dv=0
PairPos2: "'kern' Horizontal Kerning lookup 15-1" uniFB90 dx=-350 dy=0 dh=-350 dv=0 dx=0 dy=0 dh=0 dv=0
PairPos2: "'kern' Horizontal Kerning lookup 15-1" uniFB8E dx=-350 dy=0 dh=-350 dv=0 dx=0 dy=0 dh=0 dv=0
PairPos2: "'kern' Horizontal Kerning lookup 15-1" uni06A9 dx=-350 dy=0 dh=-350 dv=0 dx=0 dy=0 dh=0 dv=0
PairPos2: "'kern' Horizontal Kerning lookup 15-1" uni064A dx=-100 dy=0 dh=-100 dv=0 dx=0 dy=0 dh=0 dv=0
PairPos2: "'kern' Horizontal Kerning lookup 15-1" afii57414 dx=-100 dy=0 dh=-100 dv=0 dx=0 dy=0 dh=0 dv=0
PairPos2: "'kern' Horizontal Kerning lookup 15-1" uni0649 dx=-100 dy=0 dh=-100 dv=0 dx=0 dy=0 dh=0 dv=0
PairPos2: "'kern' Horizontal Kerning lookup 15-1" uni0648 dx=-80 dy=0 dh=-80 dv=0 dx=0 dy=0 dh=0 dv=0
PairPos2: "'kern' Horizontal Kerning lookup 15-1" afii57412 dx=-80 dy=0 dh=-80 dv=0 dx=0 dy=0 dh=0 dv=0
PairPos2: "'kern' Horizontal Kerning lookup 15-1" uniFEEB dx=-250 dy=0 dh=-250 dv=0 dx=0 dy=0 dh=0 dv=0
PairPos2: "'kern' Horizontal Kerning lookup 15-1" uni0647 dx=-250 dy=0 dh=-250 dv=0 dx=0 dy=0 dh=0 dv=0
PairPos2: "'kern' Horizontal Kerning lookup 15-1" uniFEE7 dx=-250 dy=0 dh=-250 dv=0 dx=0 dy=0 dh=0 dv=0
PairPos2: "'kern' Horizontal Kerning lookup 15-1" uni0646 dx=-100 dy=0 dh=-100 dv=0 dx=0 dy=0 dh=0 dv=0
PairPos2: "'kern' Horizontal Kerning lookup 15-1" uniFEE3 dx=-250 dy=0 dh=-250 dv=0 dx=0 dy=0 dh=0 dv=0
PairPos2: "'kern' Horizontal Kerning lookup 15-1" uni0645 dx=-250 dy=0 dh=-250 dv=0 dx=0 dy=0 dh=0 dv=0
PairPos2: "'kern' Horizontal Kerning lookup 15-1" uniFEFB dx=-250 dy=0 dh=-250 dv=0 dx=0 dy=0 dh=0 dv=0
PairPos2: "'kern' Horizontal Kerning lookup 15-1" uniFEDF dx=-250 dy=0 dh=-250 dv=0 dx=0 dy=0 dh=0 dv=0
PairPos2: "'kern' Horizontal Kerning lookup 15-1" uni0644 dx=-80 dy=0 dh=-80 dv=0 dx=0 dy=0 dh=0 dv=0
PairPos2: "'kern' Horizontal Kerning lookup 15-1" uniFEDB dx=-350 dy=0 dh=-350 dv=0 dx=0 dy=0 dh=0 dv=0
PairPos2: "'kern' Horizontal Kerning lookup 15-1" uni0643 dx=-250 dy=0 dh=-250 dv=0 dx=0 dy=0 dh=0 dv=0
PairPos2: "'kern' Horizontal Kerning lookup 15-1" uniFED7 dx=-250 dy=0 dh=-250 dv=0 dx=0 dy=0 dh=0 dv=0
PairPos2: "'kern' Horizontal Kerning lookup 15-1" uni0642 dx=-100 dy=0 dh=-100 dv=0 dx=0 dy=0 dh=0 dv=0
PairPos2: "'kern' Horizontal Kerning lookup 15-1" uniFED3 dx=-250 dy=0 dh=-250 dv=0 dx=0 dy=0 dh=0 dv=0
PairPos2: "'kern' Horizontal Kerning lookup 15-1" uni0641 dx=-250 dy=0 dh=-250 dv=0 dx=0 dy=0 dh=0 dv=0
PairPos2: "'kern' Horizontal Kerning lookup 15-1" uniFECF dx=-250 dy=0 dh=-250 dv=0 dx=0 dy=0 dh=0 dv=0
PairPos2: "'kern' Horizontal Kerning lookup 15-1" uniFECB dx=-250 dy=0 dh=-250 dv=0 dx=0 dy=0 dh=0 dv=0
PairPos2: "'kern' Horizontal Kerning lookup 15-1" uniFEC7 dx=-250 dy=0 dh=-250 dv=0 dx=0 dy=0 dh=0 dv=0
PairPos2: "'kern' Horizontal Kerning lookup 15-1" uni0638 dx=-250 dy=0 dh=-250 dv=0 dx=0 dy=0 dh=0 dv=0
PairPos2: "'kern' Horizontal Kerning lookup 15-1" uniFEC3 dx=-250 dy=0 dh=-250 dv=0 dx=0 dy=0 dh=0 dv=0
PairPos2: "'kern' Horizontal Kerning lookup 15-1" uni0637 dx=-250 dy=0 dh=-250 dv=0 dx=0 dy=0 dh=0 dv=0
PairPos2: "'kern' Horizontal Kerning lookup 15-1" uniFEBF dx=-250 dy=0 dh=-250 dv=0 dx=0 dy=0 dh=0 dv=0
PairPos2: "'kern' Horizontal Kerning lookup 15-1" uni0636 dx=-250 dy=0 dh=-250 dv=0 dx=0 dy=0 dh=0 dv=0
PairPos2: "'kern' Horizontal Kerning lookup 15-1" uniFEBB dx=-250 dy=0 dh=-250 dv=0 dx=0 dy=0 dh=0 dv=0
PairPos2: "'kern' Horizontal Kerning lookup 15-1" uni0635 dx=-250 dy=0 dh=-250 dv=0 dx=0 dy=0 dh=0 dv=0
PairPos2: "'kern' Horizontal Kerning lookup 15-1" uniFEB7 dx=-250 dy=0 dh=-250 dv=0 dx=0 dy=0 dh=0 dv=0
PairPos2: "'kern' Horizontal Kerning lookup 15-1" uni0634 dx=-250 dy=0 dh=-250 dv=0 dx=0 dy=0 dh=0 dv=0
PairPos2: "'kern' Horizontal Kerning lookup 15-1" uniFEB3 dx=-250 dy=0 dh=-250 dv=0 dx=0 dy=0 dh=0 dv=0
PairPos2: "'kern' Horizontal Kerning lookup 15-1" uni0633 dx=-250 dy=0 dh=-250 dv=0 dx=0 dy=0 dh=0 dv=0
PairPos2: "'kern' Horizontal Kerning lookup 15-1" uni0632 dx=-80 dy=0 dh=-80 dv=0 dx=0 dy=0 dh=0 dv=0
PairPos2: "'kern' Horizontal Kerning lookup 15-1" uni0631 dx=-80 dy=0 dh=-80 dv=0 dx=0 dy=0 dh=0 dv=0
PairPos2: "'kern' Horizontal Kerning lookup 15-1" uni0630 dx=-250 dy=0 dh=-250 dv=0 dx=0 dy=0 dh=0 dv=0
PairPos2: "'kern' Horizontal Kerning lookup 15-1" uni062F dx=-250 dy=0 dh=-250 dv=0 dx=0 dy=0 dh=0 dv=0
PairPos2: "'kern' Horizontal Kerning lookup 15-1" uniFEA7 dx=-250 dy=0 dh=-250 dv=0 dx=0 dy=0 dh=0 dv=0
PairPos2: "'kern' Horizontal Kerning lookup 15-1" uniFEA3 dx=-250 dy=0 dh=-250 dv=0 dx=0 dy=0 dh=0 dv=0
PairPos2: "'kern' Horizontal Kerning lookup 15-1" uniFE9F dx=-250 dy=0 dh=-250 dv=0 dx=0 dy=0 dh=0 dv=0
PairPos2: "'kern' Horizontal Kerning lookup 15-1" uniFE9B dx=-250 dy=0 dh=-250 dv=0 dx=0 dy=0 dh=0 dv=0
PairPos2: "'kern' Horizontal Kerning lookup 15-1" uni062B dx=-250 dy=0 dh=-250 dv=0 dx=0 dy=0 dh=0 dv=0
PairPos2: "'kern' Horizontal Kerning lookup 15-1" uniFE97 dx=-250 dy=0 dh=-250 dv=0 dx=0 dy=0 dh=0 dv=0
PairPos2: "'kern' Horizontal Kerning lookup 15-1" uni062A dx=-250 dy=0 dh=-250 dv=0 dx=0 dy=0 dh=0 dv=0
PairPos2: "'kern' Horizontal Kerning lookup 15-1" uni0629 dx=-250 dy=0 dh=-250 dv=0 dx=0 dy=0 dh=0 dv=0
PairPos2: "'kern' Horizontal Kerning lookup 15-1" uniFE91 dx=-50 dy=0 dh=-50 dv=0 dx=0 dy=0 dh=0 dv=0
PairPos2: "'kern' Horizontal Kerning lookup 15-1" uni0628 dx=-250 dy=0 dh=-250 dv=0 dx=0 dy=0 dh=0 dv=0
PairPos2: "'kern' Horizontal Kerning lookup 15-1" uni0627 dx=-250 dy=0 dh=-250 dv=0 dx=0 dy=0 dh=0 dv=0
PairPos2: "'kern' Horizontal Kerning lookup 15-1" uni0623 dx=-250 dy=0 dh=-250 dv=0 dx=0 dy=0 dh=0 dv=0
PairPos2: "'kern' Horizontal Kerning lookup 15-1" uni0622 dx=-250 dy=0 dh=-250 dv=0 dx=0 dy=0 dh=0 dv=0
PairPos2: "'kern' Horizontal Kerning lookup 15-1" uni0621 dx=-250 dy=0 dh=-250 dv=0 dx=0 dy=0 dh=0 dv=0
PairPos2: "'kern' Horizontal Kerning lookup 15-1" uniFB94 dx=-350 dy=0 dh=-350 dv=0 dx=0 dy=0 dh=0 dv=0
PairPos2: "'kern' Horizontal Kerning lookup 15-1" uniFB92 dx=-350 dy=0 dh=-350 dv=0 dx=0 dy=0 dh=0 dv=0
PairPos2: "'kern' Horizontal Kerning lookup 15-1" afii57509 dx=-350 dy=0 dh=-350 dv=0 dx=0 dy=0 dh=0 dv=0
PairPos2: "'kern' Horizontal Kerning lookup 15-1" afii57508 dx=-80 dy=0 dh=-80 dv=0 dx=0 dy=0 dh=0 dv=0
PairPos2: "'kern' Horizontal Kerning lookup 15-1" afii57506 dx=-250 dy=0 dh=-250 dv=0 dx=0 dy=0 dh=0 dv=0
PairPos2: "'kern' Horizontal Kerning lookup 15-1" afii57440 dx=-250 dy=0 dh=-250 dv=0 dx=0 dy=0 dh=0 dv=0
PairPos2: "'kern' Horizontal Kerning lookup 15-1" uniFE8B dx=-250 dy=0 dh=-250 dv=0 dx=0 dy=0 dh=0 dv=0
EndChar

StartChar: uniFEB2
Encoding: 65202 65202 186
Width: 2472
VWidth: 2501
GlyphClass: 2
Flags: W
AnchorPoint: "Anchor-10" 1675.99 1018.06 basechar 0
AnchorPoint: "Anchor-7" 664.176 -751.198 basechar 0
LayerCount: 2
Fore
SplineSet
1431 183 m 24,0,1
 1559.98976116 182.000079371 1559.98976116 182.000079371 1595.12695312 330.99609375 c 2,2,-1
 1610.27050781 395.2109375 l 2,3,4
 1641.96827051 528.866210938 1641.96827051 528.866210938 1730.47167969 528.866210938 c 2,5,-1
 1743.60253906 528.866210938 l 1,6,-1
 1737.12011719 453.689453125 l 2,7,8
 1714 180 1714 180 1928.13769531 184.817382812 c 24,9,10
 2060.55648043 187.98937582 2060.55648043 187.98937582 2067.25390625 335.858398438 c 2,11,-1
 2069.70507812 389.9765625 l 2,12,13
 2078 572 2078 572 2182.93261719 572 c 2,14,-1
 2213.76660156 572 l 1,15,-1
 2205.66601562 372.297851562 l 2,16,17
 2197.99128648 184.787109375 2197.99128648 184.787109375 2461.06054688 184.787109375 c 2,18,-1
 2477.49316406 184.787109375 l 2,19,20
 2512.54589844 184.997277314 2512.54589844 184.997277314 2512.54589844 99.787109375 c 2,21,-1
 2512.54589844 93.787109375 l 2,22,23
 2513.00105324 1.787109375 2513.00105324 1.787109375 2477.49316406 1.787109375 c 2,24,-1
 2456.58691406 1.787109375 l 2,25,26
 2206 2 2206 2 2151.48242188 180.521484375 c 1,27,28
 2077 6 2077 6 1904.58203125 2.14453125 c 8,29,30
 1721 -1 1721 -1 1656.90039062 185.731445312 c 1,31,32
 1593 2 1593 2 1431 -1.0439453125 c 24,33,34
 1315 -3 1315 -3 1269.77050781 68.0400390625 c 1,35,36
 1272 -40 1272 -40 1252.25683594 -119.879882812 c 0,37,38
 1148 -542 1148 -542 663.930664062 -545.791015625 c 0,39,40
 341 -548 341 -548 187.1328125 -346.896484375 c 0,41,42
 56 -175 56 -175 114.48046875 114.48046875 c 0,43,44
 135 217 135 217 190.567382812 336.995117188 c 0,45,46
 219 399 219 399 255.419921875 388.259765625 c 0,47,48
 292 378 292 378 265.825195312 307.799804688 c 0,49,50
 179 75 179 75 235.631835938 -109.409179688 c 0,51,52
 313 -364 313 -364 665.359375 -362.66796875 c 0,53,54
 1124 -361 1124 -361 1155.05664062 -15.0859375 c 0,55,56
 1164 84 1164 84 1092.65332031 257.984375 c 0,57,58
 988.989429722 512.025903809 988.989429722 512.025903809 1145.50878906 552.739257812 c 2,59,-1
 1180.71679688 561.897460938 l 1,60,61
 1212 403 1212 403 1248.03222656 291.599609375 c 0,62,63
 1283 184 1283 184 1431 183 c 24,0,1
EndSplineSet
EndChar

StartChar: uniFEB3
Encoding: 65203 65203 187
Width: 1443
VWidth: 2490
GlyphClass: 2
Flags: W
AnchorPoint: "Anchor-10" 802.558 1032.67 basechar 0
AnchorPoint: "Anchor-7" 765.093 -230.408 basechar 0
LayerCount: 2
Fore
SplineSet
1041.08886719 0.357421875 m 24,0,1
 975 -0 975 -0 937.421875 17.5615234375 c 0,2,3
 834 67 834 67 793.407226562 183.944335938 c 1,4,5
 730 0 730 0 547.458007812 -0.208984375 c 0,6,7
 375 -0 375 -0 306.887695312 177.46484375 c 1,8,9
 231 0 231 0 20.0927734375 0 c 2,10,-1
 -4.947265625 0 l 2,11,12
 -80 0 -80 0 -80 92 c 2,13,-1
 -80 98 l 2,14,15
 -80 183 -80 183 -4.947265625 183 c 2,16,-1
 18.8798828125 183 l 2,17,18
 239.581309035 183 239.581309035 183 259.708984375 313.203125 c 2,19,-1
 271.579101562 389.989257812 l 2,20,21
 293.012367107 527.079101562 293.012367107 527.079101562 388.795898438 527.079101562 c 2,22,-1
 407.66015625 527.079101562 l 1,23,-1
 394.682617188 411.583007812 l 2,24,25
 369 186 369 186 551.119140625 183.462890625 c 0,26,27
 696.918219326 182.000820095 696.918219326 182.000820095 731.633789062 329.208984375 c 2,28,-1
 746.77734375 393.423828125 l 2,29,30
 778.018489532 527.079101562 778.018489532 527.079101562 866.978515625 527.079101562 c 2,31,-1
 880.109375 527.079101562 l 1,32,-1
 873.626953125 451.90234375 l 2,33,34
 850 182 850 182 1059.09277344 184.744140625 c 24,35,36
 1184 186 1184 186 1213.08007812 280.799804688 c 0,37,38
 1230 335 1230 335 1210.5625 388.254882812 c 0,39,40
 1180 472 1180 472 1159.19726562 545.302734375 c 0,41,42
 1116.13053265 699.532538824 1116.13053265 699.532538824 1265.296875 770.827148438 c 2,43,-1
 1281.88574219 778.755859375 l 1,44,45
 1339 609 1339 609 1350.68261719 416.634765625 c 0,46,47
 1362 228 1362 228 1264.82226562 114.775390625 c 0,48,49
 1167 2 1167 2 1041.08886719 0.357421875 c 24,0,1
EndSplineSet
EndChar

StartChar: uniFEB4
Encoding: 65204 65204 188
Width: 1609
VWidth: 2478
GlyphClass: 2
Flags: W
AnchorPoint: "Anchor-7" 759.093 -228.408 basechar 0
AnchorPoint: "Anchor-10" 802.558 1032.67 basechar 0
LayerCount: 2
Fore
SplineSet
1054.64453125 183.030273438 m 24,0,1
 1197.05420634 186.001130817 1197.05420634 186.001130817 1203.76074219 334.071289062 c 2,2,-1
 1206.21191406 388.189453125 l 2,3,4
 1214.00911944 570.212890625 1214.00911944 570.212890625 1319.43945312 570.212890625 c 2,5,-1
 1350.2734375 570.212890625 l 1,6,-1
 1342.17285156 370.510742188 l 2,7,8
 1335 183 1335 183 1597.56738281 183 c 2,9,-1
 1614 183 l 2,10,11
 1649.05273438 183 1649.05273438 183 1649.05273438 98 c 2,12,-1
 1649.05273438 92 l 2,13,14
 1649 0 1649 0 1614 0 c 2,15,-1
 1593.09375 0 l 2,16,17
 1343 0 1343 0 1287.98925781 178.734375 c 1,18,19
 1214 4 1214 4 1051.08886719 0.357421875 c 8,20,21
 858 -3 858 -3 793.407226562 183.944335938 c 1,22,23
 730 0 730 0 547.458007812 -0.208984375 c 0,24,25
 375 0 375 0 306.887695312 177.46484375 c 1,26,27
 231 0 231 0 20.0927734375 0 c 2,28,-1
 -4.947265625 0 l 2,29,30
 -80 0 -80 0 -80 92 c 2,31,-1
 -80 98 l 2,32,33
 -80 183 -80 183 -4.947265625 183 c 2,34,-1
 18.8798828125 183 l 2,35,36
 239.581309034 183 239.581309034 183 259.708984375 313.203125 c 2,37,-1
 271.579101562 389.989257812 l 2,38,39
 293.012367107 527.079101562 293.012367107 527.079101562 388.795898438 527.079101562 c 2,40,-1
 407.66015625 527.079101562 l 1,41,-1
 394.682617188 411.583007812 l 2,42,43
 369 186 369 186 551.119140625 183.462890625 c 0,44,45
 696.918219328 182.000820095 696.918219328 182.000820095 731.633789062 329.208984375 c 2,46,-1
 746.77734375 393.423828125 l 2,47,48
 778.018489532 527.079101562 778.018489532 527.079101562 866.978515625 527.079101562 c 2,49,-1
 880.109375 527.079101562 l 1,50,-1
 873.626953125 451.90234375 l 2,51,52
 850 179 850 179 1054.64453125 183.030273438 c 24,0,1
EndSplineSet
EndChar

StartChar: uniFEBA
Encoding: 65210 65210 194
Width: 2522
VWidth: 2474
GlyphClass: 2
Flags: W
AnchorPoint: "Anchor-7" 664.176 -751.198 basechar 0
AnchorPoint: "Anchor-10" 1957.99 1060.06 basechar 0
LayerCount: 2
Fore
SplineSet
1527.60253906 183.426757812 m 1,0,-1
 1732.26464844 183.426757812 l 2,1,2
 2010.28027344 183 2010.28027344 183 2174.76074219 247.239257812 c 0,3,4
 2290.28027344 292 2290.28027344 292 2287.78027344 344.5 c 0,5,6
 2283.28027344 411 2283.28027344 411 2148.83984375 506.400390625 c 0,7,8
 2072.28027344 560 2072.28027344 560 2004.12011719 560.087890625 c 0,9,10
 1826.04492188 558.999023438 1826.04492188 558.999023438 1643.28027344 329 c 2,11,-1
 1527.60253906 183.426757812 l 1,0,-1
1401.35644531 185.829101562 m 1,12,13
 1506.24023438 349.200195312 l 2,14,15
 1764 750 1764 750 1995.48046875 748.165039062 c 0,16,17
 2139 747 2139 747 2268.72070312 626.6796875 c 0,18,19
 2388 515 2388 515 2392.03613281 385.240234375 c 0,20,21
 2395 265 2395 265 2322.02441406 183 c 1,22,-1
 2510.84765625 183 l 2,23,-1
 2527.28027344 183 l 2,24,25
 2562.33300781 183 2562.33300781 183 2562.33300781 98 c 2,26,-1
 2562.33300781 92 l 2,27,28
 2562 0 2562 0 2527.28027344 0 c 2,29,-1
 2506.37402344 0 l 2,30,31
 2370 0 2370 0 2213.28027344 99 c 1,32,33
 2024.42962222 -1.77075347614 2024.42962222 -1.77075347614 1728.41503906 -0.767578125 c 2,34,-1
 1501.91992188 0 l 2,35,36
 1317 1 1317 1 1269.77050781 68.0400390625 c 1,37,38
 1272 -40 1272 -40 1252.25683594 -119.879882812 c 0,39,40
 1148 -541 1148 -541 669.930664062 -545.791015625 c 0,41,42
 341 -549 341 -549 187.1328125 -346.896484375 c 0,43,44
 56 -176 56 -176 114.48046875 114.48046875 c 0,45,46
 135 217 135 217 190.567382812 336.995117188 c 0,47,48
 219 399 219 399 255.419921875 388.259765625 c 0,49,50
 292 378 292 378 265.825195312 307.799804688 c 0,51,52
 179 75 179 75 235.631835938 -109.409179688 c 0,53,54
 313 -364 313 -364 665.359375 -362.66796875 c 0,55,56
 1124 -361 1124 -361 1155.05664062 -15.0859375 c 0,57,58
 1164 84 1164 84 1092.65332031 257.984375 c 0,59,60
 988.98942972 512.025903813 988.98942972 512.025903813 1145.50878906 552.739257812 c 2,61,-1
 1180.71679688 561.897460938 l 1,62,63
 1207 426 1207 426 1250.19238281 291.599609375 c 0,64,65
 1283 187 1283 187 1401.35644531 185.829101562 c 1,12,13
EndSplineSet
EndChar

StartChar: uniFEBB
Encoding: 65211 65211 195
Width: 1708
VWidth: 2474
GlyphClass: 2
Flags: W
AnchorPoint: "Anchor-10" 1122.36 1126.25 basechar 0
AnchorPoint: "Anchor-7" 714.591 -311.358 basechar 0
LayerCount: 2
Fore
SplineSet
736.322265625 183.426757812 m 1,0,-1
 940.984375 183.426757812 l 2,1,2
 1219 183 1219 183 1383.48046875 247.239257812 c 0,3,4
 1499 292 1499 292 1496.5 344.5 c 0,5,6
 1492 411 1492 411 1357.55957031 506.400390625 c 0,7,8
 1281 560 1281 560 1212.83984375 560.087890625 c 0,9,10
 1034.76513119 558.998563249 1034.76513119 558.998563249 852 329 c 2,11,-1
 736.322265625 183.426757812 l 1,0,-1
18.8798828125 183 m 2,12,13
 254.028215338 183 254.028215338 183 274.692382812 344.598632812 c 2,14,-1
 287.192382812 442.3515625 l 2,15,16
 302.968907831 562.762695312 302.968907831 562.762695312 421.200195312 562.762695312 c 2,17,-1
 431.221679688 562.762695312 l 1,18,-1
 414.912109375 416.799804688 l 2,19,20
 393 217 393 217 615.076171875 192.829101562 c 1,21,-1
 714.959960938 349.200195312 l 2,22,23
 971 750 971 750 1204.20019531 748.165039062 c 0,24,25
 1348 747 1348 747 1477.44042969 626.6796875 c 0,26,27
 1597 515 1597 515 1600.75585938 385.240234375 c 0,28,29
 1606 185 1606 185 1403.77050781 90.3388671875 c 0,30,31
 1209.65151942 -1.69112076692 1209.65151942 -1.69112076692 937.134765625 -0.767578125 c 2,32,-1
 710.639648438 0 l 2,33,34
 456 1 456 1 346.766601562 178.680664062 c 1,35,36
 215 0 215 0 20.0927734375 0 c 2,37,-1
 -4.947265625 0 l 2,38,39
 -80 0 -80 0 -80 92 c 2,40,-1
 -80 98 l 2,41,42
 -80 183 -80 183 -4.947265625 183 c 2,43,-1
 18.8798828125 183 l 2,12,13
EndSplineSet
EndChar

StartChar: uniFEBC
Encoding: 65212 65212 196
Width: 1731
VWidth: 2474
GlyphClass: 2
Flags: W
AnchorPoint: "Anchor-10" 1128.23 1093.32 basechar 0
AnchorPoint: "Anchor-7" 706.685 -319.104 basechar 0
LayerCount: 2
Fore
SplineSet
736.322265625 183.426757812 m 1,0,-1
 940.984375 183.426757812 l 2,1,2
 1219 183 1219 183 1383.48046875 247.239257812 c 0,3,4
 1499 292 1499 292 1496.5 344.5 c 0,5,6
 1492 411 1492 411 1357.55957031 506.400390625 c 0,7,8
 1281 560 1281 560 1212.83984375 560.087890625 c 0,9,10
 1034.76513119 558.998563249 1034.76513119 558.998563249 852 329 c 2,11,-1
 736.322265625 183.426757812 l 1,0,-1
1422 99 m 1,12,13
 1233.42722388 -1.77169517785 1233.42722388 -1.77169517785 937.134765625 -0.767578125 c 2,14,-1
 710.639648438 0 l 2,15,16
 456 1 456 1 346.766601562 178.680664062 c 1,17,18
 215 0 215 0 20.0927734375 0 c 2,19,-1
 -4.947265625 0 l 2,20,21
 -80 0 -80 0 -80 92 c 2,22,-1
 -80 98 l 2,23,24
 -80 183 -80 183 -4.947265625 183 c 2,25,-1
 18.8798828125 183 l 2,26,27
 254.028215338 183 254.028215338 183 274.692382812 344.598632812 c 2,28,-1
 287.192382812 442.3515625 l 2,29,30
 302.968907831 562.762695312 302.968907831 562.762695312 421.200195312 562.762695312 c 2,31,-1
 431.221679688 562.762695312 l 1,32,-1
 414.912109375 416.799804688 l 2,33,34
 393 217 393 217 615.076171875 192.829101562 c 1,35,-1
 714.959960938 349.200195312 l 2,36,37
 971 750 971 750 1204.20019531 748.165039062 c 0,38,39
 1348 747 1348 747 1477.44042969 626.6796875 c 0,40,41
 1597 515 1597 515 1600.75585938 385.240234375 c 0,42,43
 1604 265 1604 265 1530.74414062 183 c 1,44,-1
 1719.56738281 183 l 2,45,-1
 1736 183 l 2,46,47
 1771.05273438 183 1771.05273438 183 1771.05273438 98 c 2,48,-1
 1771.05273438 92 l 2,49,50
 1771 0 1771 0 1736 0 c 2,51,-1
 1715.09375 0 l 2,52,53
 1579 0 1579 0 1422 99 c 1,12,13
EndSplineSet
EndChar

StartChar: uniFEC2
Encoding: 65218 65218 202
Width: 1445
VWidth: 2474
GlyphClass: 2
Flags: W
AnchorPoint: "Anchor-7" 640.88 -271.015 basechar 0
AnchorPoint: "Anchor-10" 373.774 1637.94 basechar 0
LayerCount: 2
Fore
SplineSet
926.83984375 560.087890625 m 0,0,1
 738.855368985 558.999162357 738.855368985 558.999162357 566 334 c 2,2,-1
 450.322265625 183.426757812 l 1,3,-1
 654.984375 183.426757812 l 2,4,5
 934 183 934 183 1097.48046875 247.239257812 c 0,6,7
 1214.02573676 292.39744568 1214.02573676 292.39744568 1210.5 344.5 c 0,8,9
 1206 411 1206 411 1071.55957031 506.400390625 c 0,10,11
 995 560 995 560 926.83984375 560.087890625 c 0,0,1
918.200195312 748.165039062 m 0,12,13
 1062 747 1062 747 1191.44042969 626.6796875 c 0,14,15
 1311 515 1311 515 1314.75585938 385.240234375 c 0,16,17
 1318 265 1318 265 1244.74414062 183 c 1,18,-1
 1433.56738281 183 l 2,19,-1
 1450 183 l 2,20,21
 1485 183 1485 183 1485.05273438 98 c 2,22,-1
 1485.05273438 92 l 2,23,24
 1485.05273438 0 1485.05273438 0 1450 0 c 2,25,-1
 1429.09375 0 l 2,26,27
 1293 0 1293 0 1136 99 c 1,28,29
 947 -2 947 -2 651.134765625 -0.767578125 c 2,30,-1
 424.639648438 0 l 2,31,-1
 375.192382812 0.1533203125 l 2,32,33
 91.0000280738 1.03451081084 91.0000280738 1.03451081084 91.15234375 188.274414062 c 1,34,-1
 319 188 l 1,35,-1
 258.788085938 1117.68164062 l 2,36,37
 240.520434773 1399.7371137 240.520434773 1399.7371137 410.482421875 1492.90625 c 2,38,-1
 432.0390625 1504.69921875 l 1,39,-1
 431.959960938 342.200195312 l 1,40,41
 704 750 704 750 918.200195312 748.165039062 c 0,12,13
EndSplineSet
EndChar

StartChar: uniFEC3
Encoding: 65219 65219 203
Width: 1299
VWidth: 2474
GlyphClass: 2
Flags: W
AnchorPoint: "Anchor-10" 264.798 1644.96 basechar 0
AnchorPoint: "Anchor-7" 521.478 -320.118 basechar 0
LayerCount: 2
Fore
SplineSet
330.322265625 183.426757812 m 1,0,-1
 534.984375 183.426757812 l 2,1,2
 813 183 813 183 977.48046875 247.239257812 c 0,3,4
 1093 292 1093 292 1090.58789062 340 c 0,5,6
 1086 406 1086 406 951.559570312 501.400390625 c 0,7,8
 875 555 875 555 806.83984375 555.087890625 c 0,9,10
 635.268420265 554.001699326 635.268420265 554.001699326 446 324 c 2,11,-1
 330.322265625 183.426757812 l 1,0,-1
-4.947265625 183 m 2,12,-1
 199 183 l 1,13,-1
 138.788085938 1117.68164062 l 2,14,15
 120.988568869 1400.18142582 120.988568869 1400.18142582 290.482421875 1492.90625 c 2,16,-1
 312.0390625 1504.69921875 l 1,17,-1
 311.959960938 342.200195312 l 1,18,19
 584 750 584 750 798.200195312 748.165039062 c 0,20,21
 942 747 942 747 1071.44042969 626.6796875 c 0,22,23
 1192 514 1192 514 1194.75585938 385.240234375 c 0,24,25
 1199 182 1199 182 997.770507812 90.3388671875 c 0,26,27
 796.726218105 -1.66765134354 796.726218105 -1.66765134354 531.134765625 -0.767578125 c 2,28,-1
 304.639648438 0 l 2,29,-1
 -4.947265625 0 l 18,30,31
 -80 0 -80 0 -80 92 c 2,32,-1
 -80 98 l 2,33,34
 -80 183 -80 183 -4.947265625 183 c 2,12,-1
EndSplineSet
EndChar

StartChar: uniFEC4
Encoding: 65220 65220 204
Width: 1325
VWidth: 2474
GlyphClass: 2
Flags: W
AnchorPoint: "Anchor-10" 245.935 1635.49 basechar 0
AnchorPoint: "Anchor-7" 514.011 -288.065 basechar 0
LayerCount: 2
Fore
SplineSet
806.83984375 560.087890625 m 24,0,1
 635.275040264 554.009744044 635.275040264 554.009744044 446 324 c 2,2,-1
 330.322265625 183.426757812 l 1,3,-1
 534.984375 183.426757812 l 2,4,5
 811.703858888 183.005023484 811.703858888 183.005023484 977.48046875 247.239257812 c 0,6,7
 1094 292 1094 292 1090.5 344.5 c 0,8,9
 1086 411 1086 411 951.559570312 506.400390625 c 0,10,11
 872 562 872 562 806.83984375 560.087890625 c 24,0,1
531.134765625 -0.767578125 m 2,12,-1
 304.639648438 0 l 2,13,-1
 -4.947265625 0 l 18,14,15
 -80 0 -80 0 -80 92 c 2,16,-1
 -80 98 l 2,17,18
 -80 183 -80 183 -4.947265625 183 c 2,19,-1
 199 183 l 1,20,-1
 138.788085938 1117.68164062 l 2,21,22
 120.988568869 1400.18142582 120.988568869 1400.18142582 290.482421875 1492.90625 c 2,23,-1
 312.0390625 1504.69921875 l 1,24,-1
 311.959960938 342.200195312 l 1,25,26
 584 750 584 750 798.200195312 748.165039062 c 0,27,28
 942 747 942 747 1071.44042969 626.6796875 c 0,29,30
 1191 515 1191 515 1194.75585938 385.240234375 c 0,31,32
 1198 265 1198 265 1124.74414062 183 c 1,33,-1
 1313.56738281 183 l 2,34,-1
 1330 183 l 2,35,36
 1365.05273438 183 1365.05273438 183 1365.05273438 98 c 2,37,-1
 1365.05273438 92 l 2,38,39
 1365 0 1365 0 1330 0 c 2,40,-1
 1309.09375 0 l 2,41,42
 1173 0 1173 0 1016 99 c 1,43,44
 827 -2 827 -2 531.134765625 -0.767578125 c 2,12,-1
EndSplineSet
EndChar

StartChar: uniFECA
Encoding: 65226 65226 210
Width: 1209
VWidth: 2472
GlyphClass: 2
Flags: W
AnchorPoint: "Anchor-10" 669.277 1221.39 basechar 0
AnchorPoint: "Anchor-7" 611.334 -830.048 basechar 0
LayerCount: 2
Fore
SplineSet
101.49609375 -166.178710938 m 0,0,1
 100 237 100 237 467 417.657226562 c 1,2,3
 373 508 373 508 279.48046875 596.739257812 c 1,4,5
 294 671 294 671 309 744.5390625 c 1,6,7
 463 905 463 905 742.48046875 905.739257812 c 0,8,9
 917 906 917 906 1031.48046875 826.739257812 c 0,10,11
 1111 772 1111 772 1106.59179688 688.049804688 c 0,12,13
 1097 492 1097 492 756.48046875 351.739257812 c 1,14,15
 917 183 917 183 1197.56738281 183 c 2,16,-1
 1214 183 l 2,17,18
 1249.05273438 183 1249.05273438 183 1249.05273438 98 c 2,19,-1
 1249.05273438 92 l 2,20,21
 1249 0 1249 0 1214 0 c 2,22,-1
 1193.09375 0 l 2,23,24
 886 0 886 0 607 283 c 1,25,26
 203 140 203 140 206.396484375 -159.360351562 c 0,27,28
 209 -461 209 -461 707.346679688 -461.000976562 c 0,29,30
 917 -461 917 -461 1065 -425.177734375 c 0,31,32
 1103 -416 1103 -416 1081 -457.633789062 c 0,33,34
 980 -647 980 -647 670.318359375 -646.75 c 0,35,36
 103 -647 103 -647 101.49609375 -166.178710938 c 0,0,1
660.48046875 740.739257812 m 0,37,38
 527 726 527 726 441 644.5390625 c 1,39,-1
 633.227539062 474.362304688 l 1,40,41
 802 541 802 541 882.466796875 588.44140625 c 0,42,43
 977 644 977 644 958.603515625 675.452148438 c 0,44,45
 920 743 920 743 728 744.638671875 c 0,46,47
 695 745 695 745 660.48046875 740.739257812 c 0,37,38
EndSplineSet
EndChar

StartChar: uniFECB
Encoding: 65227 65227 211
Width: 990
VWidth: 2469
GlyphClass: 2
Flags: W
AnchorPoint: "Anchor-10" 441.774 1246.36 basechar 0
AnchorPoint: "Anchor-7" 413.778 -275.026 basechar 0
LayerCount: 2
Fore
SplineSet
20.0927734375 0 m 2,0,1
 -4.947265625 0 l 2,2,3
 -80 0 -80 0 -80 92 c 2,4,-1
 -80 98 l 2,5,6
 -80 183 -80 183 -4.947265625 183 c 2,7,-1
 38.8798828125 183 l 2,8,-1
 245.309570312 188.481445312 l 1,9,10
 117 310 117 310 111.169921875 447.265625 c 0,11,12
 106 594 106 594 187.989257812 696.365234375 c 0,13,14
 311 851 311 851 490.850585938 850.759765625 c 0,15,16
 643 851 643 851 729.190429688 750.306640625 c 0,17,18
 760 714 760 714 774.3359375 664.645507812 c 0,19,20
 798 583 798 583 744.309570312 619.784179688 c 0,21,22
 665 673 665 673 535.229492188 672.4453125 c 0,23,24
 410 672 410 672 324.909179688 597.10546875 c 0,25,26
 248 529 248 529 255.5 440 c 0,27,28
 262 358 262 358 335.547851562 292 c 0,29,30
 353 276 353 276 374 260.037109375 c 0,31,32
 418 225 418 225 476 237.990234375 c 0,33,34
 539 252 539 252 592 263.51171875 c 0,35,36
 797 308 797 308 834.309570312 314.21484375 c 0,37,38
 896.515689215 324.081797121 896.515689215 324.081797121 884.309570312 285.645507812 c 2,39,-1
 837.309570312 137.645507812 l 1,40,41
 654 100 654 100 390 42 c 0,42,43
 198 0 198 0 20.0927734375 0 c 2,0,1
EndSplineSet
EndChar

StartChar: uniFECC
Encoding: 65228 65228 212
Width: 1125
VWidth: 2472
GlyphClass: 2
Flags: W
AnchorPoint: "Anchor-10" 533.108 1140.24 basechar 0
AnchorPoint: "Anchor-7" 532.321 -253.778 basechar 0
LayerCount: 2
Fore
SplineSet
1049.09375 0 m 2,0,1
 779 0 779 0 556.934570312 166.5390625 c 1,2,3
 364 0 364 0 30.0927734375 0 c 2,4,-1
 -4.947265625 0 l 2,5,6
 -80 0 -80 0 -80 92 c 2,7,-1
 -80 98 l 2,8,9
 -80 183 -80 183 -4.947265625 183 c 2,10,-1
 28.8798828125 183 l 2,11,12
 245 183 245 183 411 269 c 1,13,14
 276 364 276 364 140 460 c 1,15,-1
 165 616.569335938 l 1,16,17
 334 794 334 794 596 793 c 0,18,19
 770 793 770 793 885 714 c 0,20,21
 976 652 976 652 960.111328125 555.310546875 c 0,22,23
 941 432 941 432 680 259 c 1,24,25
 785 183 785 183 1053.56738281 183 c 2,26,-1
 1130 183 l 2,27,28
 1165.05273438 183 1165.05273438 183 1165.05273438 98 c 2,29,-1
 1165.05273438 92 l 2,30,31
 1165 0 1165 0 1130 0 c 2,32,-1
 1049.09375 0 l 2,0,1
294 528 m 1,33,-1
 537.747070312 356.623046875 l 1,34,35
 653 415 653 415 735.986328125 475.702148438 c 0,36,37
 827.5052182 547.075370886 827.5052182 547.075370886 812.123046875 562.712890625 c 0,38,39
 742 634 742 634 577 631.982347766 c 0,40,41
 414 631 414 631 294 528 c 1,33,-1
EndSplineSet
EndChar

StartChar: uniFEDA
Encoding: 65242 65242 226
Width: 1879
VWidth: 2448
GlyphClass: 2
Flags: W
AnchorPoint: "Anchor-7" 813.141 -273.584 basechar 0
AnchorPoint: "Anchor-10" 854.321 1447.31 basechar 0
LayerCount: 2
Fore
SplineSet
801 150.458984375 m 0,0,1
 203 149 203 149 194.919921875 490.3203125 c 0,2,3
 193 578 193 578 207.145507812 643.064453125 c 0,4,5
 223 714 223 714 192.759765625 717.66015625 c 0,6,7
 163 721 163 721 140.919921875 671.759765625 c 0,8,9
 103 587 103 587 102.040039062 455.759765625 c 0,10,11
 100 185 100 185 281.400390625 68.4404296875 c 0,12,13
 457 -43 457 -43 789 -43.47265625 c 24,14,15
 1246 -44 1246 -44 1474.55761719 102.173828125 c 0,16,17
 1518 130 1518 130 1540 154 c 1,18,19
 1673 0 1673 0 1863.09375 0 c 2,20,-1
 1884 0 l 2,21,22
 1929 0 1929 0 1929.05273438 92 c 2,23,-1
 1929.05273438 98 l 2,24,25
 1929.05273438 183 1929.05273438 183 1884 183 c 2,26,-1
 1867.56738281 183 l 2,27,28
 1688 183 1688 183 1614.61621094 281.571289062 c 2,29,-1
 1612.8125 284 l 1,30,31
 1638 362 1638 362 1638.37792969 464.50390625 c 0,32,-1
 1638.37792969 1508.77734375 l 1,33,-1
 1621.0546875 1500.26660156 l 2,34,35
 1455.9901569 1419.17198607 1455.9901569 1419.17198607 1470.24316406 1170.1328125 c 2,36,-1
 1513 424 l 2,37,38
 1522 265 1522 265 1323.80078125 208.71875 c 0,39,40
 1121 152 1121 152 801 150.458984375 c 0,0,1
1091.28222656 1284.37402344 m 1,41,-1
 1091.28222656 1175.19238281 l 1,42,-1
 1068.25878906 1173.36621094 l 2,43,44
 899.323242188 1159.96777344 899.323242188 1159.96777344 860.751953125 1094.53222656 c 0,45,46
 815.220268415 1017.29175685 815.220268415 1017.29175685 942.327148438 999.318359375 c 0,47,48
 1030.99414062 986.780273438 1030.99414062 986.780273438 1066.50878906 954.374023438 c 128,-1,49
 1102.02441406 921.966796875 1102.02441406 921.966796875 1101.8984375 865.338867188 c 0,50,51
 1102.01367188 739.249023438 1102.01367188 739.249023438 986.887695312 675.719726562 c 0,52,53
 897.370117188 625.936523438 897.370117188 625.936523438 787.87890625 627 c 0,54,55
 716.913085938 627 716.913085938 627 655.01953125 637.404296875 c 2,56,-1
 634.1640625 640.91015625 l 1,57,-1
 634.1640625 757.391601562 l 1,58,-1
 662.350585938 753.76953125 l 2,59,60
 895.931640625 723.755859375 895.931640625 723.755859375 970.518554688 800.833984375 c 0,61,62
 1012.73730469 844.462890625 1012.73730469 844.462890625 970.513671875 879.369140625 c 0,63,64
 950.274414062 896.102539062 950.274414062 896.102539062 887.591796875 905.303710938 c 128,-1,65
 824.909179688 914.505859375 824.909179688 914.505859375 783.362304688 957.231445312 c 128,-1,66
 741.815429688 999.95703125 741.815429688 999.95703125 743.181640625 1076.03417969 c 0,67,68
 745.3203125 1177.47460938 745.3203125 1177.47460938 840.803710938 1226.05078125 c 128,-1,69
 936.286132812 1274.62695312 936.286132812 1274.62695312 1064.71289062 1282.70410156 c 2,70,-1
 1091.28222656 1284.37402344 l 1,41,-1
EndSplineSet
EndChar

StartChar: uniFEDB
Encoding: 65243 65243 227
Width: 948
VWidth: 2449
GlyphClass: 2
Flags: W
AnchorPoint: "Anchor-10" 222.371 1444.19 basechar 0
AnchorPoint: "Anchor-7" 324.999 -310.351 basechar 0
LayerCount: 2
Fore
SplineSet
20.0927734375 0 m 2,0,1
 -4.947265625 0 l 2,2,3
 -80 0 -80 0 -80 92 c 2,4,-1
 -80 98 l 2,5,6
 -80 183 -80 183 -4.947265625 183 c 2,7,-1
 18.8798828125 183 l 2,8,9
 261 183 261 183 392.040039062 253.799804688 c 0,10,11
 464 293 464 293 456.149414062 341.020507812 c 0,12,13
 449 381 449 381 406.080078125 441.719726562 c 0,14,15
 56 923 56 923 38.1103515625 993.353515625 c 0,16,17
 -8.05881311901 1172.22786113 -8.05881311901 1172.22786113 169.651367188 1234.81738281 c 2,18,-1
 904.14453125 1493.50585938 l 1,19,-1
 904.14453125 1469.35644531 l 2,20,21
 904.000343167 1304.39261308 904.000343167 1304.39261308 666.360351562 1228.71972656 c 2,22,-1
 185.759765625 1075.6796875 l 1,23,24
 213 994 213 994 569.16015625 451.440429688 c 0,25,26
 613.053977065 384.430382464 613.053977065 384.430382464 601.7890625 294.610351562 c 0,27,28
 594 234 594 234 550.491210938 178.015625 c 16,29,30
 411 0 411 0 20.0927734375 0 c 2,0,1
EndSplineSet
EndChar

StartChar: uniFEDC
Encoding: 65244 65244 228
Width: 965
VWidth: 2449
GlyphClass: 2
Flags: W
AnchorPoint: "Anchor-10" 248.625 1432.83 basechar 0
AnchorPoint: "Anchor-7" 329.765 -299.492 basechar 0
LayerCount: 2
Fore
SplineSet
185.759765625 1075.6796875 m 1,0,1
 477 577 477 577 696.288085938 296.665039062 c 0,2,3
 785 183 785 183 953.567382812 183 c 2,4,-1
 970 183 l 2,5,6
 1005.05273438 183 1005.05273438 183 1005.05273438 98 c 6,7,-1
 1005.05273438 92 l 6,8,9
 1005 0 1005 0 970 0 c 2,10,-1
 929.09375 0 l 2,11,12
 724 0 724 0 559.440429688 218.16015625 c 1,13,14
 446 0 446 0 20.0927734375 0 c 2,15,-1
 -4.947265625 0 l 2,16,17
 -80 0 -80 0 -80 92 c 2,18,-1
 -80 98 l 2,19,20
 -80 183 -80 183 -4.947265625 183 c 2,21,-1
 18.8798828125 183 l 2,22,23
 265 183 265 183 392.040039062 253.799804688 c 0,24,25
 462 293 462 293 456.149414062 341.020507812 c 0,26,27
 451 379 451 379 412.559570312 433.080078125 c 0,28,29
 63 911 63 911 41.0400390625 992.240234375 c 0,30,31
 -6.90298041242 1172.63494539 -6.90298041242 1172.63494539 169.651367188 1234.81738281 c 2,32,-1
 904.14453125 1493.50585938 l 1,33,-1
 904.14453125 1469.35644531 l 2,34,35
 904.000343167 1304.39261307 904.000343167 1304.39261307 666.360351562 1228.71972656 c 2,36,-1
 185.759765625 1075.6796875 l 1,0,1
EndSplineSet
EndChar

StartChar: uniFEDE
Encoding: 65246 65246 230
Width: 1474
VWidth: 2461
GlyphClass: 2
Flags: W
AnchorPoint: "Anchor-7" 624.402 -751.555 basechar 0
AnchorPoint: "Anchor-10" 650.118 1092.71 basechar 0
LayerCount: 2
Fore
SplineSet
1442.56738281 183 m 2,0,1
 1479 183 l 2,2,3
 1514.05273438 183 1514.05273438 183 1514.05273438 98 c 2,4,-1
 1514.05273438 92 l 2,5,6
 1514 0 1514 0 1479 0 c 2,7,-1
 1438.09375 0 l 2,8,9
 1297 0 1297 0 1206.4921875 91.4970703125 c 1,10,11
 1206 50 1206 50 1204.25195312 13.7373046875 c 0,12,13
 1178 -522 1178 -522 636.391601562 -522.719726562 c 0,14,15
 309 -523 309 -523 167.788085938 -336.904296875 c 0,16,17
 89 -234 89 -234 91.2353515625 -63 c 0,18,19
 93 124 93 124 173.83984375 315.360351562 c 0,20,21
 216 416 216 416 254.83984375 408.100585938 c 0,22,23
 287 402 287 402 263.896484375 336.959960938 c 0,24,25
 159 41 159 41 247.143554688 -133.298828125 c 0,26,27
 350 -337 350 -337 641.08984375 -337.14453125 c 0,28,29
 1093 -338 1093 -338 1106.1875 3.4453125 c 24,30,31
 1109.01012373 76.2611642088 1109.01012373 76.2611642088 1101.06738281 189.528320312 c 2,32,-1
 1038.85449219 1076.71289062 l 2,33,34
 1016.01674986 1404.75940117 1016.01674986 1404.75940117 1177.01953125 1488.63574219 c 2,35,-1
 1206.41601562 1503.95019531 l 1,36,-1
 1206.41601562 509.20703125 l 2,37,38
 1206 183 1206 183 1442.56738281 183 c 2,0,1
EndSplineSet
EndChar

StartChar: uniFEDF
Encoding: 65247 65247 231
Width: 525
VWidth: 2448
GlyphClass: 2
Flags: W
AnchorPoint: "Anchor-10" 307.844 1622.41 basechar 0
AnchorPoint: "Anchor-7" 199.143 -270.325 basechar 0
LayerCount: 2
Fore
SplineSet
20.0927734375 0 m 2,0,1
 -4.947265625 0 l 2,2,3
 -80 0 -80 0 -80 92 c 2,4,-1
 -80 98 l 2,5,6
 -80 183 -80 183 -4.947265625 183 c 2,7,-1
 18.8798828125 183 l 2,8,9
 151 183 151 183 221.813476562 279.8671875 c 0,10,11
 276.996148641 354.994756629 276.996148641 354.994756629 264.171875 514.48046875 c 2,12,-1
 215.345703125 1121.69433594 l 2,13,14
 192.003719964 1409.95406064 192.003719964 1409.95406064 368.177734375 1498.21386719 c 2,15,-1
 385.103515625 1506.69335938 l 1,16,-1
 385.103515625 499.78125 l 2,17,18
 385 264 385 264 309.03515625 154.375976562 c 0,19,20
 202 0 202 0 20.0927734375 0 c 2,0,1
EndSplineSet
EndChar

StartChar: uniFEE0
Encoding: 65248 65248 232
Width: 663
VWidth: 2448
GlyphClass: 2
Flags: W
AnchorPoint: "Anchor-10" 330.005 1619.39 basechar 0
AnchorPoint: "Anchor-7" 259.081 -327.53 basechar 0
LayerCount: 2
Fore
SplineSet
611.567382812 183 m 2,0,-1
 668 183 l 2,1,2
 703.052734375 183 703.052734375 183 703.052734375 98 c 2,3,-1
 703.052734375 92 l 2,4,5
 703 0 703 0 668 0 c 2,6,-1
 607.09375 0 l 2,7,8
 444 0 444 0 324.248046875 142.651367188 c 1,9,10
 199 0 199 0 20.0927734375 0 c 2,11,-1
 -4.947265625 0 l 2,12,13
 -80 0 -80 0 -80 92 c 2,14,-1
 -80 98 l 2,15,16
 -80 183 -80 183 -4.947265625 183 c 2,17,-1
 18.8798828125 183 l 2,18,19
 303.70577997 183 303.70577997 183 281.473632812 458.166992188 c 2,20,-1
 228.08203125 1118.99414062 l 2,21,22
 204.999568607 1406.00536401 204.999568607 1406.00536401 373.561523438 1492.85839844 c 2,23,-1
 398.10546875 1505.50488281 l 1,24,-1
 398.10546875 458.166992188 l 2,25,26
 398 183 398 183 611.567382812 183 c 2,0,-1
EndSplineSet
EndChar

StartChar: uniFEE2
Encoding: 65250 65250 234
Width: 1176
VWidth: 2498
GlyphClass: 2
Flags: W
AnchorPoint: "Anchor-10" 621.958 1026.14 basechar 0
AnchorPoint: "Anchor-7" 690.103 -462.682 basechar 0
LayerCount: 2
Fore
SplineSet
1164.56738281 183 m 2,0,-1
 1181 183 l 2,1,2
 1216.05273438 183 1216.05273438 183 1216.05273438 98 c 2,3,-1
 1216.05273438 92 l 2,4,5
 1216 0 1216 0 1181 0 c 2,6,-1
 1160.09375 0 l 2,7,8
 1096 0 1096 0 1009 71 c 1,9,10
 935 -183 935 -183 745 -181.741210938 c 0,11,12
 400 -179 400 -179 443.198242188 362.432617188 c 1,13,14
 205.911903963 340.992039871 205.911903963 340.992039871 235.69921875 -30.26171875 c 2,15,-1
 263.018554688 -370.755859375 l 2,16,17
 279.984594903 -584.805643642 279.984594903 -584.805643642 129.137695312 -660.311523438 c 2,18,-1
 98.7568359375 -675.518554688 l 1,19,-1
 101.997070312 37.7578125 l 2,20,21
 104 502 104 502 499.23046875 508.219726562 c 1,22,23
 530 586 530 586 577.490234375 642.073242188 c 1,24,25
 699 542 699 542 1026 242 c 0,26,27
 1090 183 1090 183 1164.56738281 183 c 2,0,-1
589.275390625 432.396484375 m 1,28,29
 543 204 543 204 603 73 c 0,30,31
 644 -16 644 -16 757.346679688 -14.751953125 c 0,32,33
 865 -14 865 -14 891 98 c 0,34,35
 900.512288676 141.333759522 900.512288676 141.333759522 727 309 c 0,36,37
 697 338 697 338 589.275390625 432.396484375 c 1,28,29
EndSplineSet
EndChar

StartChar: uniFEE3
Encoding: 65251 65251 235
Width: 973
VWidth: 2477
GlyphClass: 2
Flags: W
AnchorPoint: "Anchor-10" 538.35 1056.82 basechar 0
AnchorPoint: "Anchor-7" 497.138 -262.05 basechar 0
LayerCount: 2
Fore
SplineSet
10.0927734375 0 m 2,0,1
 -4.947265625 0 l 2,2,3
 -80 0 -80 0 -80 92 c 2,4,-1
 -80 98 l 2,5,6
 -80 183 -80 183 -4.947265625 183 c 2,7,-1
 8.8798828125 183 l 2,8,9
 131 183 131 183 243.099609375 377.296875 c 0,10,11
 421 686 421 686 572 685 c 0,12,13
 774 683 774 683 842.400390625 419.3203125 c 0,14,15
 905 178 905 178 776 52 c 0,16,17
 714 -9 714 -9 626 -11.994140625 c 0,18,19
 546 -15 546 -15 453 20 c 0,20,21
 334 66 334 66 245.16015625 137.16015625 c 1,22,23
 154 0 154 0 10.0927734375 0 c 2,0,1
496 202.959960938 m 0,24,25
 634 140 634 140 703.524414062 185.990234375 c 0,26,27
 759 222 759 222 724.959960938 341.559570312 c 0,28,29
 674 523 674 523 556 518.634765625 c 0,30,31
 507 517 507 517 454.400390625 454.400390625 c 0,32,33
 402 391 402 391 340.19921875 290.6796875 c 1,34,35
 415 240 415 240 496 202.959960938 c 0,24,25
EndSplineSet
EndChar

StartChar: uniFEE4
Encoding: 65252 65252 236
Width: 1083
VWidth: 2477
GlyphClass: 2
Flags: W
AnchorPoint: "Anchor-7" 497.138 -262.05 basechar 0
AnchorPoint: "Anchor-10" 538.35 1056.82 basechar 0
LayerCount: 2
Fore
SplineSet
496 172.959960938 m 0,0,1
 634 110 634 110 703.524414062 155.990234375 c 0,2,3
 759 192 759 192 724.959960938 311.559570312 c 0,4,5
 674 493 674 493 556 488.634765625 c 0,6,7
 507 487 507 487 454.400390625 424.400390625 c 0,8,9
 402 361 402 361 340.19921875 260.6796875 c 1,10,11
 415 210 415 210 496 172.959960938 c 0,0,1
245.16015625 107.16015625 m 1,12,13
 126 0 126 0 10.0927734375 0 c 2,14,-1
 -4.947265625 0 l 2,15,16
 -80 0 -80 0 -80 92 c 2,17,-1
 -80 98 l 2,18,19
 -80 183 -80 183 -4.947265625 183 c 2,20,-1
 8.8798828125 183 l 2,21,22
 148 183 148 183 243.099609375 347.296875 c 0,23,24
 421 656 421 656 572 655 c 0,25,26
 768 653 768 653 842.400390625 389.3203125 c 0,27,28
 847 373 847 373 849.76953125 358 c 8,29,30
 882 183 882 183 1071.56738281 183 c 2,31,-1
 1088 183 l 2,32,33
 1123.05273438 183 1123.05273438 183 1123.05273438 98 c 2,34,-1
 1123.05273438 92 l 2,35,36
 1123 0 1123 0 1088 0 c 2,37,-1
 1067.09375 0 l 2,38,39
 903 0 903 0 836.815429688 104 c 1,40,41
 814 59 814 59 776 22 c 0,42,43
 714 -39 714 -39 626 -41.994140625 c 0,44,45
 546 -45 546 -45 453 -10 c 0,46,47
 337 34 337 34 245.16015625 107.16015625 c 1,12,13
EndSplineSet
EndChar

StartChar: uniFEEA
Encoding: 65258 65258 242
Width: 1055
VWidth: 2465
GlyphClass: 2
Flags: W
AnchorPoint: "Anchor-7" 549.771 -246.746 basechar 0
AnchorPoint: "Anchor-10" 659.893 1250.8 basechar 0
LayerCount: 2
Fore
SplineSet
1043.56738281 183 m 2,0,1
 1060 183 l 2,2,3
 1095.05273438 183 1095.05273438 183 1095.05273438 98 c 2,4,-1
 1095.05273438 92 l 2,5,6
 1095 0 1095 0 1060 0 c 2,7,-1
 1039.09375 0 l 2,8,9
 778 0 778 0 700.787109375 207.73046875 c 1,10,11
 419 151 419 151 239.860351562 239.33203125 c 0,12,13
 106 305 106 305 104.216796875 449.260742188 c 0,14,15
 100 697 100 697 609.970703125 796.536132812 c 1,16,17
 603 853 603 853 601.95703125 865.731445312 c 0,18,19
 596.029093989 949.588434531 596.029093989 949.588434531 701.751953125 978.340820312 c 2,20,-1
 721.07421875 983.595703125 l 1,21,-1
 798.158203125 411.33984375 l 2,22,23
 829 183 829 183 1043.56738281 183 c 2,0,1
676.508789062 372.196289062 m 1,24,-1
 630.755859375 644.092773438 l 1,25,26
 220 558 220 558 239.462890625 453.104492188 c 0,27,28
 247.218747818 408.929827307 247.218747818 408.929827307 326.416992188 377.244140625 c 0,29,30
 462 323 462 323 676.508789062 372.196289062 c 1,24,-1
EndSplineSet
EndChar

StartChar: uniFEEB
Encoding: 65259 65259 243
Width: 1163
VWidth: 2469
GlyphClass: 2
Flags: W
AnchorPoint: "Anchor-10" 503.718 1278.26 basechar 0
AnchorPoint: "Anchor-7" 403.937 -291.033 basechar 0
LayerCount: 2
Fore
SplineSet
-4.947265625 183 m 2,0,1
 213.719726562 183.040039062 l 1,2,3
 113 276 113 276 116 421.569335938 c 0,4,5
 121 667 121 667 397.233398438 774.1328125 c 1,6,7
 387 778 387 778 377.12890625 782.493164062 c 0,8,9
 317.464909321 809.787320521 317.464909321 809.787320521 360.176757812 932.217773438 c 2,10,-1
 366.186523438 949.444335938 l 1,11,-1
 688.142578125 752.556640625 l 2,12,13
 1064 523 1064 523 1062.609375 304 c 0,14,15
 1062 206 1062 206 1015.48925781 126 c 0,16,17
 954 20 954 20 806 0 c 0,18,19
 638 -23 638 -23 364.465820312 79.2060546875 c 1,20,21
 218 -3 218 -3 38.0009765625 0 c 1,22,-1
 -4.947265625 0 l 2,23,24
 -80 0 -80 0 -80 92 c 2,25,-1
 -80 98 l 2,26,27
 -80 183 -80 183 -4.947265625 183 c 2,0,1
716.838867188 552.302734375 m 1,28,29
 708 352 708 352 537.75 203.987304688 c 1,30,31
 696 154 696 154 783 154.296801742 c 0,32,33
 943 155 943 155 943.634765625 284 c 0,34,35
 944 412 944 412 716.838867188 552.302734375 c 1,28,29
565.919921875 424.440429688 m 0,36,37
 651 570 651 570 548.6171875 635.520507812 c 0,38,39
 509 661 509 661 462 661 c 0,40,41
 363 661 363 661 300.240234375 584.280273438 c 0,42,43
 243 515 243 515 241 439 c 0,44,45
 238 345 238 345 396 256 c 1,46,47
 521 347 521 347 565.919921875 424.440429688 c 0,36,37
EndSplineSet
EndChar

StartChar: uniFEEC
Encoding: 65260 65260 244
Width: 997
VWidth: 2489
GlyphClass: 2
Flags: W
AnchorPoint: "Anchor-7" 420.605 -776.244 basechar 0
AnchorPoint: "Anchor-10" 424.739 1208.91 basechar 0
LayerCount: 2
Fore
SplineSet
985.567382812 183 m 2,0,1
 1002 183 l 2,2,3
 1037.05273438 183 1037.05273438 183 1037.05273438 98 c 2,4,-1
 1037.05273438 92 l 2,5,6
 1037 0 1037 0 1002 0 c 2,7,-1
 981.09375 0 l 2,8,9
 531 0 531 0 685 -428 c 1,10,-1
 576.760742188 -546.600585938 l 1,11,12
 289 -330 289 -330 202.40625 -0.1376953125 c 1,13,-1
 -4.947265625 0 l 2,14,15
 -80 0 -80 0 -80 92 c 2,16,-1
 -80 98 l 2,17,18
 -80 182.862162104 -80 182.862162104 -4.947265625 183 c 2,19,-1
 200.303710938 183.376953125 l 1,20,21
 232 585 232 585 380.156740444 832 c 0,22,23
 413 887 413 887 463.004050455 848 c 0,24,25
 703 661 703 661 701 358 c 0,26,27
 700 189 700 189 596 96 c 0,28,29
 488 0 488 0 316.806640625 -0.1376953125 c 1,30,31
 380 -192 380 -192 506 -284 c 1,32,33
 615 183 615 183 985.567382812 183 c 2,0,1
309.758789062 183.21875 m 1,34,-1
 355.571289062 183.623046875 l 2,35,36
 458.872394505 185.039382688 458.872394505 185.039382688 509 218 c 0,37,38
 582 266 582 266 581.180664062 360 c 0,39,40
 579 515 579 515 444 638 c 1,41,42
 345 472 345 472 309.758789062 183.21875 c 1,34,-1
EndSplineSet
EndChar

StartChar: uniFEEE
Encoding: 65262 65262 246
Width: 925
VWidth: 2491
GlyphClass: 2
Flags: W
AnchorPoint: "Anchor-10" 519.056 1063.93 basechar 0
AnchorPoint: "Anchor-7" 441.147 -657.422 basechar 0
LayerCount: 2
Fore
SplineSet
521.481445312 683.17578125 m 0,0,1
 664 682 664 682 744.120117188 517.3203125 c 0,2,3
 811 379 811 379 817.626953125 183 c 9,4,-1
 930 183 l 2,5,6
 965.052734375 183 965.052734375 183 965.052734375 98 c 2,7,-1
 965.052734375 92 l 2,8,9
 965 0 965 0 930 0 c 2,10,-1
 813.959960938 0 l 17,11,12
 770 -254 770 -254 598 -381 c 24,13,14
 492 -459 492 -459 406 -459 c 0,15,16
 269 -459 269 -459 104 -418.690429688 c 0,17,18
 47 -405 47 -405 39.65234375 -371 c 0,19,20
 34 -345 34 -345 120 -330.262695312 c 0,21,22
 541 -258 541 -258 657 -75.505859375 c 0,23,24
 680 -39 680 -39 692.854492188 1 c 1,25,26
 606 -4 606 -4 526.349609375 -4.7265625 c 0,27,28
 334 -6 334 -6 261.284179688 79.7919921875 c 24,29,30
 207 144 207 144 207.618164062 243 c 0,31,32
 208 372 208 372 282 514 c 0,33,34
 372 685 372 685 521.481445312 683.17578125 c 0,0,1
495.267578125 508.27734375 m 0,35,36
 384 499 384 499 344.9375 309.765625 c 0,37,38
 317 172 317 172 522.51953125 177.217773438 c 0,39,40
 609 179 609 179 694.819335938 181.125976562 c 1,41,42
 681 326 681 326 636.850585938 415.609375 c 0,43,44
 587 516 587 516 495.267578125 508.27734375 c 0,35,36
EndSplineSet
PairPos2: "'kern' Horizontal Kerning lookup 15-1" uniFB90 dx=-150 dy=0 dh=-150 dv=0 dx=0 dy=0 dh=0 dv=0
PairPos2: "'kern' Horizontal Kerning lookup 15-1" uniFB8E dx=-150 dy=0 dh=-150 dv=0 dx=0 dy=0 dh=0 dv=0
PairPos2: "'kern' Horizontal Kerning lookup 15-1" uni06A9 dx=-150 dy=0 dh=-150 dv=0 dx=0 dy=0 dh=0 dv=0
PairPos2: "'kern' Horizontal Kerning lookup 15-1" uni064A dx=-50 dy=0 dh=-50 dv=0 dx=0 dy=0 dh=0 dv=0
PairPos2: "'kern' Horizontal Kerning lookup 15-1" afii57414 dx=-50 dy=0 dh=-50 dv=0 dx=0 dy=0 dh=0 dv=0
PairPos2: "'kern' Horizontal Kerning lookup 15-1" uni0649 dx=-50 dy=0 dh=-50 dv=0 dx=0 dy=0 dh=0 dv=0
PairPos2: "'kern' Horizontal Kerning lookup 15-1" uni0648 dx=-50 dy=0 dh=-50 dv=0 dx=0 dy=0 dh=0 dv=0
PairPos2: "'kern' Horizontal Kerning lookup 15-1" afii57412 dx=-50 dy=0 dh=-50 dv=0 dx=0 dy=0 dh=0 dv=0
PairPos2: "'kern' Horizontal Kerning lookup 15-1" uniFEEB dx=-50 dy=0 dh=-50 dv=0 dx=0 dy=0 dh=0 dv=0
PairPos2: "'kern' Horizontal Kerning lookup 15-1" uni0647 dx=-50 dy=0 dh=-50 dv=0 dx=0 dy=0 dh=0 dv=0
PairPos2: "'kern' Horizontal Kerning lookup 15-1" uniFEE7 dx=-50 dy=0 dh=-50 dv=0 dx=0 dy=0 dh=0 dv=0
PairPos2: "'kern' Horizontal Kerning lookup 15-1" uni0646 dx=-50 dy=0 dh=-50 dv=0 dx=0 dy=0 dh=0 dv=0
PairPos2: "'kern' Horizontal Kerning lookup 15-1" uniFEE3 dx=-50 dy=0 dh=-50 dv=0 dx=0 dy=0 dh=0 dv=0
PairPos2: "'kern' Horizontal Kerning lookup 15-1" uni0645 dx=-50 dy=0 dh=-50 dv=0 dx=0 dy=0 dh=0 dv=0
PairPos2: "'kern' Horizontal Kerning lookup 15-1" uniFEFB dx=-50 dy=0 dh=-50 dv=0 dx=0 dy=0 dh=0 dv=0
PairPos2: "'kern' Horizontal Kerning lookup 15-1" uniFEDF dx=-50 dy=0 dh=-50 dv=0 dx=0 dy=0 dh=0 dv=0
PairPos2: "'kern' Horizontal Kerning lookup 15-1" uni0644 dx=-50 dy=0 dh=-50 dv=0 dx=0 dy=0 dh=0 dv=0
PairPos2: "'kern' Horizontal Kerning lookup 15-1" uniFEDB dx=-150 dy=0 dh=-150 dv=0 dx=0 dy=0 dh=0 dv=0
PairPos2: "'kern' Horizontal Kerning lookup 15-1" uni0643 dx=-50 dy=0 dh=-50 dv=0 dx=0 dy=0 dh=0 dv=0
PairPos2: "'kern' Horizontal Kerning lookup 15-1" uniFED7 dx=-50 dy=0 dh=-50 dv=0 dx=0 dy=0 dh=0 dv=0
PairPos2: "'kern' Horizontal Kerning lookup 15-1" uni0642 dx=-50 dy=0 dh=-50 dv=0 dx=0 dy=0 dh=0 dv=0
PairPos2: "'kern' Horizontal Kerning lookup 15-1" uniFED3 dx=-50 dy=0 dh=-50 dv=0 dx=0 dy=0 dh=0 dv=0
PairPos2: "'kern' Horizontal Kerning lookup 15-1" uni0641 dx=-50 dy=0 dh=-50 dv=0 dx=0 dy=0 dh=0 dv=0
PairPos2: "'kern' Horizontal Kerning lookup 15-1" uniFECF dx=-50 dy=0 dh=-50 dv=0 dx=0 dy=0 dh=0 dv=0
PairPos2: "'kern' Horizontal Kerning lookup 15-1" uniFECB dx=-50 dy=0 dh=-50 dv=0 dx=0 dy=0 dh=0 dv=0
PairPos2: "'kern' Horizontal Kerning lookup 15-1" uniFEC7 dx=-50 dy=0 dh=-50 dv=0 dx=0 dy=0 dh=0 dv=0
PairPos2: "'kern' Horizontal Kerning lookup 15-1" uni0638 dx=-50 dy=0 dh=-50 dv=0 dx=0 dy=0 dh=0 dv=0
PairPos2: "'kern' Horizontal Kerning lookup 15-1" uniFEC3 dx=-50 dy=0 dh=-50 dv=0 dx=0 dy=0 dh=0 dv=0
PairPos2: "'kern' Horizontal Kerning lookup 15-1" uni0637 dx=-50 dy=0 dh=-50 dv=0 dx=0 dy=0 dh=0 dv=0
PairPos2: "'kern' Horizontal Kerning lookup 15-1" uniFEBF dx=-50 dy=0 dh=-50 dv=0 dx=0 dy=0 dh=0 dv=0
PairPos2: "'kern' Horizontal Kerning lookup 15-1" uni0636 dx=-50 dy=0 dh=-50 dv=0 dx=0 dy=0 dh=0 dv=0
PairPos2: "'kern' Horizontal Kerning lookup 15-1" uniFEBB dx=-50 dy=0 dh=-50 dv=0 dx=0 dy=0 dh=0 dv=0
PairPos2: "'kern' Horizontal Kerning lookup 15-1" uni0635 dx=-50 dy=0 dh=-50 dv=0 dx=0 dy=0 dh=0 dv=0
PairPos2: "'kern' Horizontal Kerning lookup 15-1" uniFEB7 dx=-50 dy=0 dh=-50 dv=0 dx=0 dy=0 dh=0 dv=0
PairPos2: "'kern' Horizontal Kerning lookup 15-1" uni0634 dx=-50 dy=0 dh=-50 dv=0 dx=0 dy=0 dh=0 dv=0
PairPos2: "'kern' Horizontal Kerning lookup 15-1" uniFEB3 dx=-50 dy=0 dh=-50 dv=0 dx=0 dy=0 dh=0 dv=0
PairPos2: "'kern' Horizontal Kerning lookup 15-1" uni0633 dx=-50 dy=0 dh=-50 dv=0 dx=0 dy=0 dh=0 dv=0
PairPos2: "'kern' Horizontal Kerning lookup 15-1" uni0632 dx=-50 dy=0 dh=-50 dv=0 dx=0 dy=0 dh=0 dv=0
PairPos2: "'kern' Horizontal Kerning lookup 15-1" uni0631 dx=-50 dy=0 dh=-50 dv=0 dx=0 dy=0 dh=0 dv=0
PairPos2: "'kern' Horizontal Kerning lookup 15-1" uni0630 dx=-50 dy=0 dh=-50 dv=0 dx=0 dy=0 dh=0 dv=0
PairPos2: "'kern' Horizontal Kerning lookup 15-1" uni062F dx=-50 dy=0 dh=-50 dv=0 dx=0 dy=0 dh=0 dv=0
PairPos2: "'kern' Horizontal Kerning lookup 15-1" uniFEA7 dx=-50 dy=0 dh=-50 dv=0 dx=0 dy=0 dh=0 dv=0
PairPos2: "'kern' Horizontal Kerning lookup 15-1" uniFEA3 dx=-50 dy=0 dh=-50 dv=0 dx=0 dy=0 dh=0 dv=0
PairPos2: "'kern' Horizontal Kerning lookup 15-1" uniFE9F dx=-50 dy=0 dh=-50 dv=0 dx=0 dy=0 dh=0 dv=0
PairPos2: "'kern' Horizontal Kerning lookup 15-1" uniFE9B dx=-50 dy=0 dh=-50 dv=0 dx=0 dy=0 dh=0 dv=0
PairPos2: "'kern' Horizontal Kerning lookup 15-1" uni062B dx=-50 dy=0 dh=-50 dv=0 dx=0 dy=0 dh=0 dv=0
PairPos2: "'kern' Horizontal Kerning lookup 15-1" uniFE97 dx=-50 dy=0 dh=-50 dv=0 dx=0 dy=0 dh=0 dv=0
PairPos2: "'kern' Horizontal Kerning lookup 15-1" uni062A dx=-50 dy=0 dh=-50 dv=0 dx=0 dy=0 dh=0 dv=0
PairPos2: "'kern' Horizontal Kerning lookup 15-1" uni0629 dx=-50 dy=0 dh=-50 dv=0 dx=0 dy=0 dh=0 dv=0
PairPos2: "'kern' Horizontal Kerning lookup 15-1" uniFE91 dx=-50 dy=0 dh=-50 dv=0 dx=0 dy=0 dh=0 dv=0
PairPos2: "'kern' Horizontal Kerning lookup 15-1" uni0628 dx=-50 dy=0 dh=-50 dv=0 dx=0 dy=0 dh=0 dv=0
PairPos2: "'kern' Horizontal Kerning lookup 15-1" uni0627 dx=-50 dy=0 dh=-50 dv=0 dx=0 dy=0 dh=0 dv=0
PairPos2: "'kern' Horizontal Kerning lookup 15-1" uni0623 dx=-50 dy=0 dh=-50 dv=0 dx=0 dy=0 dh=0 dv=0
PairPos2: "'kern' Horizontal Kerning lookup 15-1" uni0622 dx=-100 dy=0 dh=-100 dv=0 dx=0 dy=0 dh=0 dv=0
PairPos2: "'kern' Horizontal Kerning lookup 15-1" uni0621 dx=-50 dy=0 dh=-50 dv=0 dx=0 dy=0 dh=0 dv=0
PairPos2: "'kern' Horizontal Kerning lookup 15-1" uniFB94 dx=-150 dy=0 dh=-150 dv=0 dx=0 dy=0 dh=0 dv=0
PairPos2: "'kern' Horizontal Kerning lookup 15-1" uniFB92 dx=-150 dy=0 dh=-150 dv=0 dx=0 dy=0 dh=0 dv=0
PairPos2: "'kern' Horizontal Kerning lookup 15-1" afii57509 dx=-150 dy=0 dh=-150 dv=0 dx=0 dy=0 dh=0 dv=0
PairPos2: "'kern' Horizontal Kerning lookup 15-1" afii57508 dx=-50 dy=0 dh=-50 dv=0 dx=0 dy=0 dh=0 dv=0
PairPos2: "'kern' Horizontal Kerning lookup 15-1" uniFB7C dx=-50 dy=0 dh=-50 dv=0 dx=0 dy=0 dh=0 dv=0
PairPos2: "'kern' Horizontal Kerning lookup 15-1" afii57506 dx=-50 dy=0 dh=-50 dv=0 dx=0 dy=0 dh=0 dv=0
PairPos2: "'kern' Horizontal Kerning lookup 15-1" uniFE8B dx=-50 dy=0 dh=-50 dv=0 dx=0 dy=0 dh=0 dv=0
EndChar

StartChar: uniFEF0
Encoding: 65264 65264 248
Width: 1477
VWidth: 2506
GlyphClass: 2
Flags: W
AnchorPoint: "Anchor-10" 717.247 570.899 basechar 0
AnchorPoint: "Anchor-7" 660.112 -798.444 basechar 0
LayerCount: 2
Fore
SplineSet
1482 0 m 2,0,1
 1156.03808594 0.3466796875 l 2,2,3
 1035 0 1035 0 1033.61230469 -52.11328125 c 0,4,5
 1033 -71 1033 -71 1048 -75 c 0,6,7
 1073 -82 1073 -82 1173 -83 c 0,8,9
 1260 -84 1260 -84 1302 -105 c 0,10,11
 1373 -141 1373 -141 1370.828125 -237 c 0,12,13
 1365 -434 1365 -434 1073 -537.158203125 c 0,14,15
 909 -595 909 -595 711.930664062 -597.85546875 c 0,16,17
 179 -604 179 -604 105.83984375 -242.400390625 c 0,18,19
 81 -121 81 -121 102.599609375 20.0400390625 c 0,20,21
 121 138 121 138 180.360351562 253.3203125 c 0,22,23
 254 396 254 396 298.360351562 386.44921875 c 0,24,25
 333 379 333 379 310.736328125 329.025390625 c 0,26,27
 276 252 276 252 258.229492188 193.973632812 c 0,28,29
 233 111 233 111 223.3359375 16.8525390625 c 0,30,31
 205 -160 205 -160 299.7890625 -279.928710938 c 0,32,33
 407 -416 407 -416 738.87890625 -414.8125 c 0,34,35
 985 -414 985 -414 1137 -347 c 0,36,37
 1271 -288 1271 -288 1249 -245 c 0,38,39
 1245 -237 1245 -237 1228.16015625 -237.032226562 c 0,40,41
 1147 -236 1147 -236 1065 -231 c 0,42,43
 895 -220 895 -220 894.748046875 -66.9853515625 c 0,44,45
 895 183 895 183 1241.48242188 183 c 2,46,-1
 1482 183 l 2,47,48
 1517.05273438 183 1517.05273438 183 1517.05273438 98 c 2,49,-1
 1517.05273438 92 l 2,50,51
 1517 -0 1517 -0 1482 0 c 2,0,1
EndSplineSet
EndChar

StartChar: uniFEFB
Encoding: 65275 65275 259
Width: 1132
VWidth: 2448
GlyphClass: 3
Flags: W
AnchorPoint: "Anchor-9" 925.839 1619.37 baselig 0
AnchorPoint: "Anchor-6" 887.088 -231.465 baselig 0
AnchorPoint: "Anchor-6" 232.132 -262.106 baselig 1
AnchorPoint: "Anchor-9" 166.478 1559.76 baselig 1
LayerCount: 2
Fore
SplineSet
637.896484375 215.865234375 m 1,0,1
 746 232 746 232 812.309570312 316.375976562 c 0,2,3
 882.887849242 404.859397496 882.887849242 404.859397496 871.131835938 554.440429688 c 2,4,-1
 822.305664062 1175.69433594 l 2,5,6
 802.996931238 1424.03946981 802.996931238 1424.03946981 975.137695312 1499.29394531 c 2,7,-1
 992.063476562 1506.69335938 l 1,8,-1
 992.063476562 539.741210938 l 2,9,10
 992 328 992 328 886.830078125 190.015625 c 0,11,12
 741.892071163 -0.1416015625 741.892071163 -0.1416015625 489.4765625 -0.1416015625 c 2,13,14
 310.478515625 -0.1416015625 l 2,15,16
 106.247132911 -0.000171139772476 106.247132911 -0.000171139772476 107.266601562 153.360351562 c 2,17,-1
 107.438476562 179.215820312 l 1,18,19
 450 156 450 156 545.918945312 185.759765625 c 1,20,21
 466 543 466 543 160.41796875 997.103515625 c 0,22,23
 -19.1716698035 1264.25537056 -19.1716698035 1264.25537056 130.360351562 1380.82714844 c 2,24,-1
 149.353515625 1395.63378906 l 1,25,26
 556 735 556 735 637.896484375 215.865234375 c 1,0,1
EndSplineSet
LCarets2: 1 0
Ligature2: "'rlig' Required Ligatures in Arabic lookup 16 subtable" uniFEDF uniFE8E
EndChar

StartChar: uniFEFC
Encoding: 65276 65276 260
Width: 1330
VWidth: 2448
GlyphClass: 3
Flags: W
AnchorPoint: "Anchor-9" 966.526 1571.34 baselig 0
AnchorPoint: "Anchor-6" 951.471 -252.037 baselig 0
AnchorPoint: "Anchor-6" 256.133 -280.884 baselig 1
AnchorPoint: "Anchor-9" 139.173 1551.51 baselig 1
LayerCount: 2
Fore
SplineSet
1304.09375 0 m 2,0,1
 1027 0 1027 0 949.020507812 397.043945312 c 1,2,3
 914 284 914 284 820.80078125 180.802734375 c 0,4,5
 654 -2 654 -2 338.375 -0.634765625 c 0,6,7
 102.255078344 0.998235882355 102.255078344 0.998235882355 105.143554688 158.36328125 c 2,8,-1
 105.540039062 179.963867188 l 1,9,10
 441 160 441 160 557.220703125 208.696289062 c 1,11,12
 475 572 475 572 171.719726562 1020.04003906 c 0,13,14
 -8.69465498926 1286.54894303 -8.69465498926 1286.54894303 141.662109375 1403.76367188 c 2,15,-1
 160.655273438 1418.5703125 l 1,16,17
 566 762 566 762 647.038085938 252.840820312 c 1,18,19
 824 338 824 338 887.544921875 557.442382812 c 1,20,21
 938.087758625 747.329705483 938.087758625 747.329705483 909.446289062 964.2578125 c 2,22,-1
 882.197265625 1170.63964844 l 2,23,24
 849.988323427 1416.08898172 849.988323427 1416.08898172 1022.94238281 1493.2578125 c 2,25,-1
 1048.30957031 1504.57617188 l 1,26,-1
 1048.30957031 722.87890625 l 2,27,28
 1048.0052627 501.822944719 1048.0052627 501.822944719 1094.81738281 345.204101562 c 0,29,30
 1143 183 1143 183 1308.56738281 183 c 2,31,-1
 1335 183 l 2,32,33
 1410.05273438 183 1410.05273438 183 1410.05273438 98 c 2,34,-1
 1410.05273438 92 l 2,35,36
 1410 0 1410 0 1335 0 c 2,37,-1
 1304.09375 0 l 2,0,1
EndSplineSet
LCarets2: 1 0
Ligature2: "'rlig' Required Ligatures in Arabic lookup 16 subtable" uniFEE0 uniFE8E
EndChar

StartChar: arabic_dot
Encoding: 65536 -1 261
Width: 162
VWidth: 2211
GlyphClass: 2
Flags: W
LayerCount: 2
Fore
SplineSet
105.31537561 194.08359595 m 2,0,-1
 190.286343001 109.112628534 l 2,1,2
 210.391099666 89.0054182734 210.391099666 89.0054182734 190.808997021 69.6102207723 c 6,3,-1
 101.711403514 -19.4873727344 l 2,4,5
 79.9485124275 -40.4095849891 79.9485124275 -40.4095849891 59.1782027702 -19.4580335371 c 2,6,-1
 -29.3193064662 69.0404509751 l 2,7,8
 -49.9543341311 88.5247155556 -49.9543341311 88.5247155556 -26.1257553119 112.353294374 c 2,9,-1
 56.495093113 194.974142799 l 2,10,11
 80.3535617994 219.047770441 80.3535617994 219.047770441 105.31537561 194.08359595 c 2,0,-1
EndSplineSet
EndChar

StartChar: arabic_2dots
Encoding: 65537 -1 262
Width: 488
VWidth: 2211
GlyphClass: 2
Flags: W
LayerCount: 2
Fore
SplineSet
136.529746422 190.356751078 m 2,0,-1
 221.309947968 105.577526094 l 2,1,2
 237.788404158 89.0990699036 237.788404158 89.0990699036 221.850006525 73.1627277757 c 2,3,-1
 133.291199111 -15.3970561898 l 2,4,5
 115.01950442 -33.6667441053 115.01950442 -33.6667441053 97.2896808041 -15.9369204913 c 2,6,-1
 8.2499218401 73.1018614315 l 2,7,8
 -7.05911317558 89.1862808074 -7.05911317558 89.1862808074 11.4537269444 108.302138839 c 2,9,-1
 94.58928887 191.436723861 l 2,10,11
 115.019505792 211.868989131 115.019505792 211.868989131 136.529746422 190.356751078 c 2,0,-1
392.489707367 190.357727633 m 2,12,-1
 477.270885468 105.577526094 l 2,13,14
 493.82639264 89.0220189226 493.82639264 89.0220189226 477.792538517 73.1452986383 c 2,15,-1
 389.250377656 -15.3978385935 l 2,16,17
 370.903378373 -33.7448378753 370.903378373 -33.7448378753 353.234263885 -15.9215426347 c 2,18,-1
 264.68617599 72.6265452614 l 2,19,20
 247.7390215 88.626495561 247.7390215 88.626495561 267.930265516 108.817739577 c 6,21,-1
 350.566947843 191.455471148 l 2,22,23
 370.887782558 211.961658566 370.887782558 211.961658566 392.489707367 190.357727633 c 2,12,-1
EndSplineSet
EndChar

StartChar: arabic_3dots
Encoding: 65538 -1 263
Width: 491
VWidth: 2211
GlyphClass: 2
Flags: W
LayerCount: 2
Fore
SplineSet
262.397460938 382.3984375 m 6,0,-1
 347.911132812 296.884765625 l 6,1,2
 360.913085938 283.8828125 360.913085938 283.8828125 348.450195312 271.541015625 c 6,3,-1
 259.890625 182.981445312 l 6,4,5
 245.09375 168.182617188 245.09375 168.182617188 230.961914062 182.44140625 c 6,6,-1
 142.346679688 271.0546875 l 6,7,8
 129.088867188 283.575195312 129.088867188 283.575195312 145.641601562 300.124023438 c 6,9,-1
 228.26171875 382.744140625 l 6,10,11
 244.923828125 399.407226562 244.923828125 399.407226562 262.397460938 382.3984375 c 6,0,-1
393.177734375 173.861328125 m 6,12,-1
 477.958007812 89.08203125 l 6,13,14
 490.900390625 76.140625 490.900390625 76.140625 478.498046875 63.73828125 c 6,15,-1
 389.9375 -24.8212890625 l 6,16,17
 375.202148438 -39.556640625 375.202148438 -39.556640625 361.008789062 -25.361328125 c 6,18,-1
 272.44921875 63.1982421875 l 6,19,20
 259.505859375 76.1396484375 259.505859375 76.1396484375 275.688476562 92.3212890625 c 6,21,-1
 358.307617188 174.94140625 l 6,22,23
 375.205078125 191.836914062 375.205078125 191.836914062 393.177734375 173.861328125 c 6,12,-1
132.897460938 173.861328125 m 6,24,-1
 217.677734375 89.08203125 l 6,25,26
 230.620117188 76.140625 230.620117188 76.140625 218.217773438 63.73828125 c 6,27,-1
 129.659179688 -24.8212890625 l 6,28,29
 114.922851562 -39.5556640625 114.922851562 -39.5556640625 100.728515625 -25.361328125 c 6,30,-1
 11.732421875 63.6337890625 l 6,31,32
 -0.4638671875 76.4482421875 -0.4638671875 76.4482421875 15.408203125 92.3212890625 c 6,33,-1
 98.0283203125 174.94140625 l 6,34,35
 114.92578125 191.836914062 114.92578125 191.836914062 132.897460938 173.861328125 c 6,24,-1
EndSplineSet
EndChar

StartChar: arabic_3dots_a
Encoding: 65539 -1 264
Width: 490
VWidth: 2211
GlyphClass: 2
Flags: W
LayerCount: 2
Fore
SplineSet
261.897460938 -208.3984375 m 2,0,1
 244.423828125 -225.407226562 244.423828125 -225.407226562 227.76171875 -208.744140625 c 2,2,-1
 145.141601562 -126.124023438 l 2,3,4
 128.588867188 -109.575195312 128.588867188 -109.575195312 141.846679688 -97.0546875 c 2,5,-1
 230.461914062 -8.44140625 l 2,6,7
 244.59375 5.8173828125 244.59375 5.8173828125 259.390625 -8.9814453125 c 2,8,-1
 347.950195312 -97.541015625 l 2,9,10
 360.413085938 -109.8828125 360.413085938 -109.8828125 347.411132812 -122.884765625 c 2,11,-1
 261.897460938 -208.3984375 l 2,0,1
392.677734375 0.138671875 m 2,12,13
 374.705078125 -17.8369140625 374.705078125 -17.8369140625 357.807617188 -0.94140625 c 2,14,-1
 275.188476562 81.6787109375 l 2,15,16
 259.005859375 97.8603515625 259.005859375 97.8603515625 271.94921875 110.801757812 c 2,17,-1
 360.508789062 199.361328125 l 2,18,19
 374.702148438 213.556640625 374.702148438 213.556640625 389.4375 198.821289062 c 2,20,-1
 477.998046875 110.26171875 l 2,21,22
 490.400390625 97.859375 490.400390625 97.859375 477.458007812 84.91796875 c 2,23,-1
 392.677734375 0.138671875 l 2,12,13
132.397460938 0.138671875 m 2,24,25
 114.42578125 -17.8369140625 114.42578125 -17.8369140625 97.5283203125 -0.94140625 c 2,26,-1
 14.908203125 81.6787109375 l 2,27,28
 -0.9638671875 97.5517578125 -0.9638671875 97.5517578125 11.232421875 110.366210938 c 2,29,-1
 100.228515625 199.361328125 l 2,30,31
 114.422851562 213.555664062 114.422851562 213.555664062 129.159179688 198.821289062 c 2,32,-1
 217.717773438 110.26171875 l 2,33,34
 230.120117188 97.859375 230.120117188 97.859375 217.177734375 84.91796875 c 2,35,-1
 132.397460938 0.138671875 l 2,24,25
EndSplineSet
EndChar

StartChar: uni066E.fina
Encoding: 65540 -1 265
Width: 1971
VWidth: 2471
GlyphClass: 2
Flags: W
AnchorPoint: "Anchor-10" 735.292 1191.76 basechar 0
AnchorPoint: "Anchor-7" 735.292 -227.22 basechar 0
LayerCount: 2
Fore
SplineSet
1953.73535156 0 m 2,0,1
 1640 0 1640 0 1645.36035156 238.6796875 c 1,2,3
 1386 -44 1386 -44 789 -43.4731256124 c 0,4,5
 457 -43 457 -43 281.400390625 68.4404296875 c 0,6,7
 100 185 100 185 102.040039062 455.759765625 c 0,8,9
 103 587 103 587 140.919921875 671.759765625 c 0,10,11
 163 721 163 721 192.759765625 717.66015625 c 0,12,13
 223 714 223 714 207.145507812 643.064453125 c 0,14,15
 193 578 193 578 194.919921875 490.3203125 c 0,16,17
 203 149 203 149 801 150.458984375 c 0,18,19
 1130 151 1130 151 1323.80078125 208.71875 c 24,20,21
 1587 287 1587 287 1603.20703125 416.084960938 c 0,22,23
 1622.97385332 570.795355927 1622.97385332 570.795355927 1731.90039062 566.3671875 c 2,24,-1
 1758.46875 565.287109375 l 1,25,26
 1732 459 1732 459 1729.38378906 406.848632812 c 24,27,28
 1718 183 1718 183 1959.56738281 183 c 2,29,-1
 1976 183 l 2,30,31
 2011.05273438 183 2011.05273438 183 2011.05273438 98 c 6,32,-1
 2011.05273438 92 l 6,33,34
 2011 0 2011 0 1976 0 c 2,35,-1
 1953.73535156 0 l 2,0,1
EndSplineSet
EndChar

StartChar: uni06A1.fina
Encoding: 65543 -1 266
Width: 1966
VWidth: 2471
GlyphClass: 2
Flags: W
AnchorPoint: "Anchor-10" 529.959 1309.59 basechar 0
AnchorPoint: "Anchor-7" 652.452 -282.836 basechar 0
LayerCount: 2
Fore
SplineSet
801 150.458984375 m 0,0,1
 1141 151 1141 151 1319.64160156 197.357421875 c 1,2,3
 1125 340 1125 340 1124.84082031 496.638671875 c 0,4,5
 1125 614 1125 614 1198.84082031 703.638671875 c 0,6,7
 1311 840 1311 840 1452.72070312 841.818359375 c 0,8,9
 1595 844 1595 844 1718.4921875 690.518554688 c 0,10,11
 1773 623 1773 623 1771.89941406 512.598632812 c 0,12,13
 1771 372 1771 372 1644.84082031 207.638671875 c 1,14,15
 1715 183 1715 183 1884.56738281 183 c 2,16,-1
 1971 183 l 2,17,18
 2006.05273438 183 2006.05273438 183 2006.05273438 98 c 2,19,-1
 2006.05273438 92 l 2,20,21
 2006 0 2006 0 1971 0 c 2,22,-1
 1880.09375 0 l 2,23,24
 1621 0 1621 0 1474.55761719 102.173828125 c 1,25,26
 1252 -44 1252 -44 789 -43.47265625 c 24,27,28
 457 -43 457 -43 281.400390625 68.4404296875 c 0,29,30
 100 185 100 185 102.040039062 455.759765625 c 0,31,32
 103 587 103 587 140.919921875 671.759765625 c 0,33,34
 163 721 163 721 192.759765625 717.66015625 c 0,35,36
 223 714 223 714 207.145507812 643.064453125 c 0,37,38
 193 578 193 578 194.919921875 490.3203125 c 0,39,40
 203 149 203 149 801 150.458984375 c 0,0,1
1486.84082031 259.638671875 m 1,41,42
 1623 363 1623 363 1650.48535156 526.638671875 c 1,43,44
 1568 668 1568 668 1448.34082031 670.138671875 c 0,45,46
 1387 672 1387 672 1324.84082031 607.638671875 c 0,47,48
 1262 544 1262 544 1262.74316406 492.638671875 c 0,49,50
 1263 386 1263 386 1486.84082031 259.638671875 c 1,41,42
EndSplineSet
EndChar

StartChar: uni06A1.init
Encoding: 65544 -1 267
Width: 753
VWidth: 2491
GlyphClass: 2
Flags: W
AnchorPoint: "Anchor-10" 470.555 1351.6 basechar 0
AnchorPoint: "Anchor-7" 367.522 -224.826 basechar 0
LayerCount: 2
Fore
SplineSet
-4.947265625 183 m 2,0,-1
 198.639648438 183 l 2,1,2
 513 183 513 183 542.19921875 396.353515625 c 5,3,4
 430 365 430 365 341 365.369613022 c 4,5,6
 164 366 164 366 93.060546875 465.771484375 c 4,7,8
 18 569 18 569 76.955078125 738 c 4,9,10
 173 1016 173 1016 350.953125 1019.33691406 c 4,11,12
 521 1022 521 1022 598.626953125 827.55078125 c 4,13,14
 659 676 659 676 659.655273438 532.440429688 c 4,15,16
 660 471 660 471 654.7578125 402.977539062 c 8,17,18
 637 155 637 155 457.825195312 53.78125 c 0,19,20
 363 0 363 0 193.169921875 0 c 2,21,-1
 -4.947265625 0 l 2,22,23
 -80 0 -80 0 -80 92 c 2,24,-1
 -80 98 l 2,25,26
 -80 183 -80 183 -4.947265625 183 c 2,0,-1
181.544921875 653.182617188 m 4,27,28
 158 542 158 542 359 547 c 4,29,30
 443 549 443 549 544.543945312 573.025390625 c 5,31,32
 535 652 535 652 492.986328125 733.053710938 c 4,33,34
 440 834 440 834 355.3203125 834.506835938 c 4,35,36
 220 835 220 835 181.544921875 653.182617188 c 4,27,28
EndSplineSet
EndChar

StartChar: uni06A1.medi
Encoding: 65545 -1 268
Width: 1027
VWidth: 2471
GlyphClass: 2
Flags: W
AnchorPoint: "Anchor-10" 591.923 1067.74 basechar 0
AnchorPoint: "Anchor-7" 591.923 -220.283 basechar 0
LayerCount: 2
Fore
SplineSet
941.09375 0 m 6,0,1
 742 0 742 0 537.805664062 91.626953125 c 5,2,3
 374 0 374 0 50.0927734375 0 c 2,4,-1
 -4.947265625 0 l 2,5,6
 -80 0 -80 0 -80 92 c 2,7,-1
 -80 98 l 2,8,9
 -80 183 -80 183 -4.947265625 183 c 2,10,-1
 48.8798828125 183 l 2,11,12
 235 183 235 183 381.80078125 201.71875 c 5,13,14
 187 344 187 344 187 501 c 4,15,16
 187 618 187 618 261 708 c 4,17,18
 374 845 374 845 514.879882812 846.1796875 c 4,19,20
 657 848 657 848 780.651367188 694.879882812 c 4,21,22
 835 627 835 627 834.05859375 516.959960938 c 4,23,24
 833 376 833 376 707 212 c 5,25,26
 828 183 828 183 945.567382812 183 c 6,27,-1
 1032 183 l 6,28,29
 1067.05273438 183 1067.05273438 183 1067.05273438 98 c 6,30,-1
 1067.05273438 92 l 6,31,32
 1067 0 1067 0 1032 0 c 6,33,-1
 941.09375 0 l 6,0,1
549 264 m 5,34,35
 685 367 685 367 712.64453125 531 c 5,36,37
 630 672 630 672 510.5 674.5 c 4,38,39
 449 676 449 676 387 612 c 4,40,41
 324 548 324 548 324.90234375 497 c 4,42,43
 325 390 325 390 549 264 c 5,34,35
EndSplineSet
EndChar

StartChar: uni066F.fina
Encoding: 65546 -1 269
Width: 1425
VWidth: 2491
GlyphClass: 2
Flags: W
AnchorPoint: "Anchor-10" 376.133 1030.23 basechar 0
AnchorPoint: "Anchor-7" 471.89 -822.999 basechar 0
LayerCount: 2
Fore
SplineSet
1314.62695312 183 m 9,0,1
 1430 183 l 2,2,3
 1465.05273438 183 1465.05273438 183 1465.05273438 98 c 6,4,-1
 1465.05273438 92 l 6,5,6
 1465 0 1465 0 1430 0 c 2,7,-1
 1310.95996094 0 l 17,8,9
 1307 -57 1307 -57 1292.25683594 -119.879882812 c 0,10,11
 1193 -544 1193 -544 661.930664062 -545.791015625 c 0,12,13
 343 -547 343 -547 187.1328125 -346.896484375 c 0,14,15
 56 -178 56 -178 114.48046875 114.48046875 c 0,16,17
 135 217 135 217 190.567382812 336.994140625 c 0,18,19
 219 399 219 399 255.419921875 388.259765625 c 0,20,21
 292 378 292 378 265.825195312 307.799804688 c 0,22,23
 179 75 179 75 235.631835938 -109.409179688 c 0,24,25
 313 -364 313 -364 665.360351562 -362.66796875 c 0,26,27
 1164 -361 1164 -361 1195.05664062 -14.005859375 c 0,28,-1
 1197 0 l 1,29,30
 1150 -2 1150 -2 1026.34960938 -2.7265625 c 0,31,32
 829 -5 829 -5 761.284179688 79.7919921875 c 0,33,34
 707 147 707 147 707.617804011 243 c 0,35,36
 708 372 708 372 782 514 c 0,37,38
 872 685 872 685 1021.48144531 683.17578125 c 0,39,40
 1164 682 1164 682 1244.12011719 517.3203125 c 0,41,42
 1304 395 1304 395 1314.62695312 183 c 9,0,1
995.267578125 508.27734375 m 0,43,44
 883.857887971 498.903908601 883.857887971 498.903908601 844.9375 309.765625 c 0,45,46
 817 173 817 173 1022.51953125 178.217773438 c 0,47,48
 1109 180 1109 180 1194.81933594 181.125976562 c 1,49,50
 1181 326 1181 326 1136.85058594 415.609375 c 0,51,52
 1087 516 1087 516 995.267578125 508.27734375 c 0,43,44
EndSplineSet
EndChar

StartChar: arabic_gaf_bar
Encoding: 65550 -1 270
Width: 727
VWidth: 2211
GlyphClass: 2
Flags: W
LayerCount: 2
Fore
SplineSet
546.48046875 1621 m 6,0,-1
 0 1433.6796875 l 5,1,-1
 0 1452.04003906 l 6,2,3
 0 1566.78331797 0 1566.78331797 113.400390625 1604.33984375 c 2,4,-1
 682.559570312 1792.83691406 l 1,5,-1
 682.559570312 1775.55664062 l 2,6,7
 683 1668 683 1668 546.48046875 1621 c 6,0,-1
EndSplineSet
EndChar

StartChar: uni066E.init.math
Encoding: 65560 -1 280
Width: 981
VWidth: 2476
GlyphClass: 2
Flags: W
LayerCount: 2
Fore
SplineSet
635.109375 87.4482421875 m 0,0,1
 552.469726562 -10.4541015625 552.469726562 -10.4541015625 370.451171875 -10.4541015625 c 2,2,-1
 -25.4208984375 -10.4541015625 l 1,3,-1
 -25.4208984375 173.721679688 l 1,4,-1
 303.079101562 173.721679688 l 2,5,6
 432.884765625 173.721679688 432.884765625 173.721679688 492.815429688 233.653320312 c 0,7,8
 558.874023438 299.7109375 558.874023438 299.7109375 558.874023438 438.08984375 c 2,9,-1
 558.874023438 683.293945312 l 1,10,-1
 743.048828125 683.293945312 l 1,11,-1
 743.048828125 438.08984375 l 2,12,13
 743.048828125 217.159179688 743.048828125 217.159179688 635.109375 87.4482421875 c 0,0,1
EndSplineSet
EndChar

StartChar: guillemotleft
Encoding: 171 171 281
Width: 1079
VWidth: 2612
Flags: W
LayerCount: 2
Fore
SplineSet
516.614257812 1030.69238281 m 5,0,-1
 484.989257812 975.086914062 l 6,1,2
 333.115234375 708.05078125 333.115234375 708.05078125 332.89453125 516.478515625 c 4,3,4
 333.115234375 335 333.115234375 335 484.9375 69.0029296875 c 6,5,-1
 516.720703125 13.341796875 l 5,6,-1
 348.282226562 13.341796875 l 5,7,-1
 337.078125 30.9892578125 l 6,8,9
 151.115234375 323.897460938 151.115234375 323.897460938 151.482421875 516.572265625 c 4,10,11
 151.115234375 719 151.115234375 719 337.290039062 1013.36523438 c 6,12,-1
 348.247070312 1030.69238281 l 5,13,-1
 516.614257812 1030.69238281 l 5,0,-1
777.196289062 13.341796875 m 5,14,15
 580.115234375 323 580.115234375 323 580.39453125 516.405273438 c 4,16,17
 580.115234375 719 580.115234375 719 766.206054688 1013.36523438 c 6,18,-1
 777.161132812 1030.69238281 l 5,19,-1
 945.529296875 1030.69238281 l 5,20,-1
 913.904296875 975.086914062 l 6,21,22
 762.115234375 708.200195312 762.115234375 708.200195312 761.810546875 516.477539062 c 4,23,24
 762.115234375 335 762.115234375 335 913.852539062 69.0029296875 c 6,25,-1
 945.6328125 13.341796875 l 5,26,-1
 777.196289062 13.341796875 l 5,14,15
EndSplineSet
EndChar

StartChar: guillemotright
Encoding: 187 187 282
Width: 1079
VWidth: 2612
Flags: W
LayerCount: 2
Fore
SplineSet
580.500976562 1030.69238281 m 5,0,-1
 748.868164062 1030.69238281 l 5,1,-1
 759.825195312 1013.36523438 l 6,2,3
 946 719 946 719 945.6328125 516.572265625 c 4,4,5
 946 323.897460938 946 323.897460938 760.037109375 30.9892578125 c 6,6,-1
 748.833007812 13.341796875 l 5,7,-1
 580.39453125 13.341796875 l 5,8,-1
 612.177734375 69.0029296875 l 6,9,10
 764 335 764 335 764.220703125 516.478515625 c 4,11,12
 764 708.05078125 764 708.05078125 612.125976562 975.086914062 c 6,13,-1
 580.500976562 1030.69238281 l 5,0,-1
319.918945312 13.341796875 m 5,14,-1
 151.482421875 13.341796875 l 5,15,-1
 183.262695312 69.0029296875 l 6,16,17
 335 335 335 335 335.3046875 516.477539062 c 4,18,19
 335 708.200195312 335 708.200195312 183.2109375 975.086914062 c 6,20,-1
 151.5859375 1030.69238281 l 5,21,-1
 319.954101562 1030.69238281 l 5,22,-1
 330.909179688 1013.36523438 l 6,23,24
 517 719 517 719 516.720703125 516.405273438 c 4,25,26
 517 323 517 323 319.918945312 13.341796875 c 5,14,-1
EndSplineSet
EndChar

StartChar: exclam
Encoding: 33 33 291
Width: 676
VWidth: -1
Flags: W
LayerCount: 2
Fore
SplineSet
345.694335938 1434.90722656 m 1,0,-1
 357.977539062 1434.54980469 l 2,1,2
 403.393554688 1433.34277344 403.393554688 1433.34277344 423.927734375 1398.88867188 c 128,-1,3
 444.461914062 1364.43457031 444.461914062 1364.43457031 440.002929688 1294.03515625 c 2,4,-1
 391.899414062 534.508789062 l 2,5,6
 391.455078125 529.053710938 391.455078125 529.053710938 386.610351562 525.037109375 c 128,-1,7
 381.765625 521.01953125 381.765625 521.01953125 370.237304688 518.396484375 c 128,-1,8
 358.708007812 515.7734375 358.708007812 515.7734375 341.17578125 515.6640625 c 0,9,10
 325.782226562 515.747070312 325.782226562 515.747070312 314.260742188 517.327148438 c 128,-1,11
 302.740234375 518.90625 302.740234375 518.90625 295.935546875 521.678710938 c 128,-1,12
 289.131835938 524.450195312 289.131835938 524.450195312 285.736328125 527.896484375 c 128,-1,13
 282.341796875 531.341796875 282.341796875 531.341796875 282.029296875 535.526367188 c 2,14,-1
 225.383789062 1293.69335938 l 2,15,16
 224.99609375 1305.203125 224.99609375 1305.203125 224.4453125 1316.72265625 c 0,17,18
 223.059570312 1434.90722656 223.059570312 1434.90722656 317.345703125 1434.90722656 c 2,19,-1
 345.694335938 1434.90722656 l 1,0,-1
205 153.837890625 m 0,20,21
 205 161.671875 205 161.671875 205.791015625 169.162109375 c 128,-1,22
 206.58203125 176.65234375 206.58203125 176.65234375 208.166992188 183.81640625 c 128,-1,23
 209.752929688 190.981445312 209.752929688 190.981445312 212.135742188 197.817382812 c 128,-1,24
 214.51953125 204.653320312 214.51953125 204.653320312 217.700195312 211.171875 c 128,-1,25
 220.881835938 217.690429688 220.881835938 217.690429688 224.869140625 223.897460938 c 128,-1,26
 228.85546875 230.104492188 228.85546875 230.104492188 233.64453125 236.001953125 c 128,-1,27
 238.43359375 241.899414062 238.43359375 241.899414062 244.03515625 247.501953125 c 0,28,29
 283.071289062 286.537109375 283.071289062 286.537109375 337.700195312 286.537109375 c 128,-1,30
 392.33984375 286.537109375 392.33984375 286.537109375 432.375 248.512695312 c 0,31,32
 470.400390625 208.4765625 470.400390625 208.4765625 470.400390625 153.837890625 c 128,-1,33
 470.400390625 99.208984375 470.400390625 99.208984375 431.365234375 60.1728515625 c 128,-1,34
 392.329101562 21.1376953125 392.329101562 21.1376953125 337.700195312 21.1376953125 c 128,-1,35
 283.071289062 21.1376953125 283.071289062 21.1376953125 244.03515625 60.1728515625 c 128,-1,36
 205 99.208984375 205 99.208984375 205 153.837890625 c 0,20,21
432.375 248.512695312 m 128,-1,38
 432.420898438 248.469726562 432.420898438 248.469726562 432.465820312 248.426757812 c 2,39,-1
 432.2890625 248.603515625 l 2,40,37
 432.33203125 248.55859375 432.33203125 248.55859375 432.375 248.512695312 c 128,-1,38
EndSplineSet
EndChar

StartChar: colon
Encoding: 58 58 292
Width: 676
VWidth: 3384
Flags: W
LayerCount: 2
Fore
SplineSet
205 153.837890625 m 0,0,1
 205 161.671875 205 161.671875 205.791015625 169.162109375 c 128,-1,2
 206.58203125 176.65234375 206.58203125 176.65234375 208.166992188 183.81640625 c 128,-1,3
 209.752929688 190.981445312 209.752929688 190.981445312 212.135742188 197.817382812 c 128,-1,4
 214.51953125 204.653320312 214.51953125 204.653320312 217.700195312 211.171875 c 128,-1,5
 220.881835938 217.690429688 220.881835938 217.690429688 224.869140625 223.897460938 c 128,-1,6
 228.85546875 230.104492188 228.85546875 230.104492188 233.64453125 236.001953125 c 128,-1,7
 238.43359375 241.899414062 238.43359375 241.899414062 244.03515625 247.501953125 c 0,8,9
 283.071289062 286.537109375 283.071289062 286.537109375 337.700195312 286.537109375 c 128,-1,10
 392.33984375 286.537109375 392.33984375 286.537109375 432.375 248.512695312 c 0,11,12
 470.400390625 208.4765625 470.400390625 208.4765625 470.400390625 153.837890625 c 128,-1,13
 470.400390625 99.208984375 470.400390625 99.208984375 431.365234375 60.1728515625 c 128,-1,14
 392.329101562 21.1376953125 392.329101562 21.1376953125 337.700195312 21.1376953125 c 128,-1,15
 283.071289062 21.1376953125 283.071289062 21.1376953125 244.03515625 60.1728515625 c 128,-1,16
 205 99.208984375 205 99.208984375 205 153.837890625 c 0,0,1
205 873.837890625 m 128,-1,18
 205 928.465820312 205 928.465820312 244.03515625 967.501953125 c 128,-1,19
 283.071289062 1006.53710938 283.071289062 1006.53710938 337.700195312 1006.53710938 c 128,-1,20
 392.33984375 1006.53710938 392.33984375 1006.53710938 432.375 968.512695312 c 0,21,22
 470.400390625 928.4765625 470.400390625 928.4765625 470.400390625 873.837890625 c 0,23,24
 470.400390625 846.423828125 470.400390625 846.423828125 460.680664062 823.096679688 c 128,-1,25
 450.9609375 799.768554688 450.9609375 799.768554688 431.365234375 780.172851562 c 0,26,27
 392.329101562 741.137695312 392.329101562 741.137695312 337.700195312 741.137695312 c 0,28,29
 319.41796875 741.137695312 319.41796875 741.137695312 302.974609375 745.453125 c 128,-1,30
 286.532226562 749.768554688 286.532226562 749.768554688 271.819335938 758.436523438 c 128,-1,31
 257.10546875 767.103515625 257.10546875 767.103515625 244.03515625 780.172851562 c 0,32,17
 205 819.208984375 205 819.208984375 205 873.837890625 c 128,-1,18
432.375 248.512695312 m 128,-1,34
 432.420898438 248.469726562 432.420898438 248.469726562 432.465820312 248.426757812 c 2,35,-1
 432.2890625 248.603515625 l 2,36,33
 432.33203125 248.55859375 432.33203125 248.55859375 432.375 248.512695312 c 128,-1,34
432.375 968.512695312 m 128,-1,38
 432.420898438 968.469726562 432.420898438 968.469726562 432.465820312 968.426757812 c 2,39,-1
 432.2890625 968.603515625 l 2,40,37
 432.33203125 968.55859375 432.33203125 968.55859375 432.375 968.512695312 c 128,-1,38
EndSplineSet
EndChar

StartChar: period
Encoding: 46 46 293
Width: 676
VWidth: 3384
Flags: W
LayerCount: 2
Fore
SplineSet
205 153.837890625 m 0,0,1
 205 161.671875 205 161.671875 205.791015625 169.162109375 c 128,-1,2
 206.58203125 176.65234375 206.58203125 176.65234375 208.166992188 183.81640625 c 128,-1,3
 209.752929688 190.981445312 209.752929688 190.981445312 212.135742188 197.817382812 c 128,-1,4
 214.51953125 204.653320312 214.51953125 204.653320312 217.700195312 211.171875 c 128,-1,5
 220.881835938 217.690429688 220.881835938 217.690429688 224.869140625 223.897460938 c 128,-1,6
 228.85546875 230.104492188 228.85546875 230.104492188 233.64453125 236.001953125 c 128,-1,7
 238.43359375 241.899414062 238.43359375 241.899414062 244.03515625 247.501953125 c 0,8,9
 283.071289062 286.537109375 283.071289062 286.537109375 337.700195312 286.537109375 c 128,-1,10
 392.33984375 286.537109375 392.33984375 286.537109375 432.375 248.512695312 c 0,11,12
 470.400390625 208.4765625 470.400390625 208.4765625 470.400390625 153.837890625 c 128,-1,13
 470.400390625 99.208984375 470.400390625 99.208984375 431.365234375 60.1728515625 c 128,-1,14
 392.329101562 21.1376953125 392.329101562 21.1376953125 337.700195312 21.1376953125 c 128,-1,15
 283.071289062 21.1376953125 283.071289062 21.1376953125 244.03515625 60.1728515625 c 128,-1,16
 205 99.208984375 205 99.208984375 205 153.837890625 c 0,0,1
432.375 248.512695312 m 128,-1,18
 432.420898438 248.469726562 432.420898438 248.469726562 432.465820312 248.426757812 c 2,19,-1
 432.2890625 248.603515625 l 2,20,17
 432.33203125 248.55859375 432.33203125 248.55859375 432.375 248.512695312 c 128,-1,18
EndSplineSet
EndChar
